<mxfile host="app.diagrams.net" agent="Mozilla/5.0 (Windows NT 10.0; Win64; x64) AppleWebKit/537.36 (KHTML, like Gecko) Chrome/127.0.0.0 Safari/537.36" version="24.7.7">
  <diagram name="Page-1" id="J9BQ6jfQD7qYk748M-XX">
    <mxGraphModel dx="1434" dy="744" grid="1" gridSize="10" guides="1" tooltips="1" connect="1" arrows="1" fold="1" page="1" pageScale="1" pageWidth="827" pageHeight="1169" math="0" shadow="0">
      <root>
        <mxCell id="0" />
        <mxCell id="1" parent="0" />
        <mxCell id="pyMNxCjvLKhYikAlWu7p-3" value="" style="group" vertex="1" connectable="0" parent="1">
          <mxGeometry x="338" y="440" width="120" height="120" as="geometry" />
        </mxCell>
        <mxCell id="pyMNxCjvLKhYikAlWu7p-1" value="" style="shape=image;verticalLabelPosition=bottom;labelBackgroundColor=default;verticalAlign=top;aspect=fixed;imageAspect=0;image=data:image/png,iVBORw0KGgoAAAANSUhEUgAAAMgAAADICAMAAACahl6sAAAABGdBTUEAALGPC/xhBQAAACBjSFJNAAB6JgAAgIQAAPoAAACA6AAAdTAAAOpgAAA6mAAAF3CculE8AAABnlBMVEUAAAD4mB73mCD4mR/3mB/4mB/3mB73mB/4mSD1mR/5mh73lx/3mB/4mB/zniT3mB73mB/3mB/4miL5mSD3mB/3mB/vnyD3mB/4mB72lx73mB/ylBv4mB/3mB73mB/3mB/3mB73mB74mB/2mB/2mSD2mxvwlh7/lRX3mB/2mB///wD3lyD2mB/4liH2lyD/kiT3mB//gAD2mB/3lx/3lx/4mCD3mR/3mB7xnBz3lx73mB/2lyD2lyD/qgD2mR/3mB/4mR/3mB/4mSH3mCD3mR/4lRz3mB/3mB/3mB/3mR/3mB/4mCD3mB/4mB/4lx/2lx72mR73mB/3mR73mB7/gAD/jhz3lx73mB/4mB//nSf1lh73mB/3mR73mCD1mSD3mB/3mB/4lh33mB/3lyD3mCH4mB/3lx72mB73mB/3mCD3mB/4mR71mR/3mB/3lx//mTP3mCD4mCD3mCD6mCH1lx/3mB//ohf3mB/3mCD3mB72mSD4mh73miD3mCD3mB/3lx/2lx72mR/3mB/3mSD2mB/2mB/1kx34lh73mB////9VYj9QAAAAiHRSTlMARZnM5u7ixokyK8X+qxVD8d8mKPDZEL2PO/gTjV6+1ajarXQ3HBEM6VIBIO8ncQekAjl7lqqiXBJd+ZFYA5PdjudGukEkmmPYffOI1ItsVlXIPJcECWX6zg0ztH+pUO3sTv3KPoqHsMPCxG4Z9oUFYWiBLzHcC7d5wbFEP9L8QnZz9V+Ukhoi3MKCfAAAAAFiS0dEiRxhJswAAAAHdElNRQfoBwwFOg996FHkAAACoElEQVR42u3daU9TURCA4aMXEMEFrFRxQRYLcl2LWupSBVyqUreqVBC3KhRRFHAX9437s/WLgCGphNyZtOP7fj45yZM0OdNMmjpHREREREQ2WrHSq6gMtapV1avVGTW1gURr1q7TdayvC4Sq36DpiGwMxGqIKkI2BYJt1nM0SjqCLVvVINtEIcF2NUiTLETvs7VDFtKsBmmRhbQCAQIECBAgQIAAAQIECBAgQIQgXtvOWPuy6ygVyK5Ov0w2CsUhLbvLZjVSFLJnr7MB2edsQCr3G4EccEYgbQvOxbsOHjocaonq7qQS5Mj8sc4Giefy6LGkCuT4n0OpE1Iv/8kaVUiP3AzTG1OE9ElOY6cUIZ7oXHlaDXJGdkA+qwZJy0LOqUHOy0IuqEH6ZSEBECBAgAABAgQIECBAgAABAkQKkrl46fKVZVcykKvZUl8rLA1y7bozAUmUwaJnKZCqG0YgA84GJNduBHLz79sGI0OhFunQgtxacFV0WOBXNZnhqArk9vxNd+7KPPz37utCBvJSI0w+rQnJ5uSGsVyXHsQX3TM+8NUgD2UH5EY1yIgsZFQNUpCFtKpBxmQhj9QgtbKQcSBAgACxBvGsQApWII+tQJ5MGIG4p1Ygz5qMQNxgwQjExSfrbUB+f+MempruX9zzsoMUDwgQIECAAAECBAgQIECAAAECBAgQIECAzDVtBTJlBfLCCsR/aQTiuq1A/GYjEPfqtRGIS72pswFxLjmZeOstbrTsIP8ICBAgQIAAAQIECBAgQIAAAQIECBAgQIDMNS4LGVODvJOF6P35Uo8sZEQNMiMLea8GSWUkHR9SahDXl5dzfPzkFPssB/niVEtPyDC+fnPKxb73hs+o+PHT6Refzc6EWnY27oiIiIiI/vN+AZyoXk7lTwKFAAAAJXRFWHRkYXRlOmNyZWF0ZQAyMDI0LTA3LTEyVDA1OjU4OjE1KzAwOjAw+zjgBQAAACV0RVh0ZGF0ZTptb2RpZnkAMjAyNC0wNy0xMlQwNTo1ODoxNSswMDowMIplWLkAAAAASUVORK5CYII=;" vertex="1" parent="pyMNxCjvLKhYikAlWu7p-3">
          <mxGeometry width="120" height="120" as="geometry" />
        </mxCell>
        <mxCell id="pyMNxCjvLKhYikAlWu7p-2" value="&lt;b style=&quot;font-size: 18px;&quot;&gt;&lt;font style=&quot;font-size: 18px;&quot;&gt;AWS&amp;nbsp;&lt;/font&gt;&lt;/b&gt;&lt;div style=&quot;font-size: 18px;&quot;&gt;&lt;b style=&quot;&quot;&gt;&lt;font style=&quot;font-size: 18px;&quot;&gt;EC2&lt;/font&gt;&lt;/b&gt;&lt;/div&gt;" style="text;html=1;align=center;verticalAlign=middle;whiteSpace=wrap;rounded=0;" vertex="1" parent="pyMNxCjvLKhYikAlWu7p-3">
          <mxGeometry x="52.199999999999996" y="60.599999999999994" width="60" height="42" as="geometry" />
        </mxCell>
        <mxCell id="pyMNxCjvLKhYikAlWu7p-5" style="edgeStyle=orthogonalEdgeStyle;rounded=0;orthogonalLoop=1;jettySize=auto;html=1;entryX=0;entryY=0.5;entryDx=0;entryDy=0;startArrow=classic;startFill=1;" edge="1" parent="1" source="pyMNxCjvLKhYikAlWu7p-4" target="pyMNxCjvLKhYikAlWu7p-1">
          <mxGeometry relative="1" as="geometry" />
        </mxCell>
        <mxCell id="pyMNxCjvLKhYikAlWu7p-6" value="Bot&amp;nbsp;&lt;div&gt;interaction&lt;/div&gt;" style="edgeLabel;html=1;align=center;verticalAlign=middle;resizable=0;points=[];" vertex="1" connectable="0" parent="pyMNxCjvLKhYikAlWu7p-5">
          <mxGeometry x="0.0508" y="-1" relative="1" as="geometry">
            <mxPoint as="offset" />
          </mxGeometry>
        </mxCell>
        <mxCell id="pyMNxCjvLKhYikAlWu7p-4" value="" style="shape=image;verticalLabelPosition=bottom;labelBackgroundColor=default;verticalAlign=top;aspect=fixed;imageAspect=0;image=data:image/png,iVBORw0KGgoAAAANSUhEUgAAAgAAAAIACAYAAAD0eNT6AAAAGXRFWHRTb2Z0d2FyZQBBZG9iZSBJbWFnZVJlYWR5ccllPAAAAyZpVFh0WE1MOmNvbS5hZG9iZS54bXAAAAAAADw/eHBhY2tldCBiZWdpbj0i77u/IiBpZD0iVzVNME1wQ2VoaUh6cmVTek5UY3prYzlkIj8+IDx4OnhtcG1ldGEgeG1sbnM6eD0iYWRvYmU6bnM6bWV0YS8iIHg6eG1wdGs9IkFkb2JlIFhNUCBDb3JlIDUuNi1jMTM4IDc5LjE1OTgyNCwgMjAxNi8wOS8xNC0wMTowOTowMSAgICAgICAgIj4gPHJkZjpSREYgeG1sbnM6cmRmPSJodHRwOi8vd3d3LnczLm9yZy8xOTk5LzAyLzIyLXJkZi1zeW50YXgtbnMjIj4gPHJkZjpEZXNjcmlwdGlvbiByZGY6YWJvdXQ9IiIgeG1sbnM6eG1wPSJodHRwOi8vbnMuYWRvYmUuY29tL3hhcC8xLjAvIiB4bWxuczp4bXBNTT0iaHR0cDovL25zLmFkb2JlLmNvbS94YXAvMS4wL21tLyIgeG1sbnM6c3RSZWY9Imh0dHA6Ly9ucy5hZG9iZS5jb20veGFwLzEuMC9zVHlwZS9SZXNvdXJjZVJlZiMiIHhtcDpDcmVhdG9yVG9vbD0iQWRvYmUgUGhvdG9zaG9wIENDIDIwMTcgKFdpbmRvd3MpIiB4bXBNTTpJbnN0YW5jZUlEPSJ4bXAuaWlkOkJBRDVEODA1RDY4ODExRTdBQUVERUU1NzYyRERBOUVGIiB4bXBNTTpEb2N1bWVudElEPSJ4bXAuZGlkOkJBRDVEODA2RDY4ODExRTdBQUVERUU1NzYyRERBOUVGIj4gPHhtcE1NOkRlcml2ZWRGcm9tIHN0UmVmOmluc3RhbmNlSUQ9InhtcC5paWQ6QkFENUQ4MDNENjg4MTFFN0FBRURFRTU3NjJEREE5RUYiIHN0UmVmOmRvY3VtZW50SUQ9InhtcC5kaWQ6QkFENUQ4MDRENjg4MTFFN0FBRURFRTU3NjJEREE5RUYiLz4gPC9yZGY6RGVzY3JpcHRpb24+IDwvcmRmOlJERj4gPC94OnhtcG1ldGE+IDw/eHBhY2tldCBlbmQ9InIiPz5PxUNFAAB3MklEQVR42uy9B5Rd13WmuV+OlV/lgCrknEGQBEiBWaRISlSyPB6FcRi35OkZd9vLM3ZPW1ZPj91ePWO7x6GdZbuDLctWpCiRIinmACaQIAiAyEBVoXLOL835970PKIIIFV5+/6d1VIXAQtU59579n312cHzxl58WQkjeEzCj5gYjZIbPDK/9cSGfg1kz5uyPC/l80ozBG4xpLhkh+Y2bU0BITvGY0WZGhxnt8z42XGHcAxn8HoL2SCfTVwiCHjPOmnFm3scLtqgghFAAEFJ0OM1ovcK4z//YbP+dYvRYtNjjWiTM6L5CFMz/eN7+O4QQCgBC8hqc1LeascX+iLEpA6frYhJHKZFw2zW8CEfMeMceh+2PA5w6QigACMkFuD/fcBVj38ipSbsXYbc95nPxCkGAcVR4nUAIBQAhaWaVGfvM2G/GLWas57uTUxrtcd+834uZccyMl814wYwXzTjFqSKEAoCQxbwTO+YZfHxs4LQUxLpttscv2L/XYwuBlCB4yxYKhBAKAEKk3D7Vpwz+XuGdfbEA4fYpe4ApM16dJwjgLRjjNBEKAEJKAwSe3WTG/WZ8VKz7ZSenpSSAsLvDHgAZBq+b8SMzfmjGQWHWAaEAIKToToL32Qb/XjOqOSVknhjE+E0zhsx4whYEj4t1hUAIBQAhBfZc32obfIztZjg4LeQGQBh+zh5JMw7ZYgDjJWH8AKEAICQvqTDjE2Y8bMbdYt3tE7JUIBh32OPXxYoVeNKM75nxHTNGOUWEAoCQ3FFmG/yfEsvF7+WUkAwBQflJe6DeAK4IvmELgnFOD6EAICTzoOHNg7bRRyCfn1NCsgyE5kP2mBErgBBi4FGxGiURQgFASJpARbgHbKP/MWGaHskfIEAfsQfSDH9gi4HHhB0RCQUAIUsCEdqI2P+CfdIKc0pIngNh+hl7TJjxfTP+TqzMAqYXEgoAQm4AGsP8rBk/J1abXEIKEQjWn7YHuhr+lRl/bUYnp4bk0ymLkFzjEiuYDyems2Z8jcafFBFt9jN91n7GH7afeULoASAlS4d90v+fzGjidJASELoP2qPbjK/bnoEznBpCDwApBTxmfFqse1F0a/s3NP6kBGmyn/1T9rvwafvdIIQeAFJ0RMz4ihm/ZEYdp4MQBQWH7rFHnxl/bMafmDHAqSH0AJBCZ7W9oSEQ6ms0/oRckzr7HcG78p/NWMMpIRQApBBBLf5vmXHcjC+LlctPCLkxeFf+hRnHzPi2WG2qCaEAIHn/PKFUKhqnoN/6I3zGCFnW+4T+Fs+b8YpYcQLMHiAUACSvQAGUr9in/X824xZOCSFpZa8Z3zTjhBn/UqyS2IRQAJCcgWInvyHWnSWCl1ZzSgjJKEid/f/MuGDGbwq7XhIKAJKDE/+vipW//H+bUcMpISSrVIkVMIh38H+nR4BQAJBM4zPjfxUrd/k/ipXaRwjJHdVm/AczTpvxr4TdMQkFAEkzaH/6Zdvw/yczGjglhOQVSCH8Pfsd/Yr9zhJCAUCWDApFoVTv+2Ll8jdzSgjJa1BhEPE4CBb8eWGxN0IBQJbwXHxerDzkvzRjBaeEkIICDYj+wn6HP8+9nlAAkIVwwIw3xepjvorTQUhBs8p+l9+0321CKADIh0B6EXL4f2LGNk4HIUXFNvvd/mf7XSeEAoBoLv9vm3FUrCp+hJDi5ZP2u/7b9rtPKABICYIuZF8SK1jo18VK8SOEFD8++50/Ye8BDk4JBQApHfaZcdCMrwtT+ggpVRrsPeCgvScQCgBSxCAy+O/NeMGM3ZwOQoi9F7xg7w1tnA4KAFJcoIMYSvfi7u9znA5CyFX4nL1H/Kqw6yAFACkKtpvxqlile4OcDkLIdQjae8Wr9t5BKABIAYKa4KgR/poZuzgdhJBFsMveO/6DsL8ABQApKA6Y8Y5YXcJYCpQQshTc9h7yjrCIEAUAyXsqxSr/+bQZazgdhJA0sMbeU/7C3mMIBQDJM1Dg4z2xGoAwr5cQkk4c9t7ynrBgGAUAyRuQy/stsUp8NnI6CCEZpNHea74lrCFCAUByysNmHDbjEU4FISSLPGLvPQ9zKigASHZBqs6fmvFdMyKcDkJIDojYe9CfClOMKQBIVtgpVmvPX+RUEELygF+096SdnAoKAJK5tfo1M14xYx2ngxCSR6yz96Zfo12hACDppcWMJ834XTM8nA5CSB7isfeoJ+09i1AAkGXyGbEKcdzBqSCEFAB32HvWZzgVFABkaYTFatX5j2ZUcToIIQVElb13fd3eywgFAFkguE9Dj+4vcSoIIQXMl+y9jHFLFABkAXzCfmE2cCoIIUXABntP+wSnggKAXHstflusClvlnA5CSBFRbu9tv027QwFAPkiNGT8049eFdfwJIcWJw97jfmjveYQCoORB8Yw3zLiXU0EIKQHutfc8Fg6iAChpvmTGi2as4FQQQkqIFfbe9yVOBQVAqeE140/ESpHxczoIISWI394D/8TeEwkFQNFTb8YzZnyZU0EIIboXPmPvjYQCoGhBOgzqZd/CqSCEkEvcYu+NTH+mAChKUB7zJTPaORWEEPIh2u09kmXPKQCKii+Y8bgZlZwKQgi5JpX2XvkFTgUFQDHwW2b8rbCLHyGELASPvWf+FqeCAqBQQVTr35nxVU4FIYQsmq/aeygzBCgACoqUG+vznApCCFkynxden1IAFBAdYgWyHOBUEELIsjlg76kdnAoKgHxmlzCVhRBC0k0qhXoXp4ICIB/ZZ8ZTZtRxKgghJO1gb33ajP2cCgqAfOIuse6pKjgVhBCSMcrtvfYeTgUFQD7woBk/MCPEqSCEkIwTNOP7ZnycU0EBkEs+a8a3zPBxKgghJGtgz/0nM36aU0EBkAu+ZMZ/Fxb4IYSQXOA247+a8fOcCgqAbPJLZvy1GS5OBSGE5NSG/bkZv8ypoADIBr9mxh+Z4eBUEEJIzsFe/Ptm/J+cCgqATPLvzPhdTgMhhOQd/xf3ZwqATPE1M/4tp4EQQvKWX6MIoADIxEP1m5wGQggpiP2a1wEUAGnhK1SUhBBSUOA6gIGBFADL4ktiBfwRQggpLH5PmCJIAbBEUOTnL4XR/oQQUohg7/4zYbEgCoBFgvK+KDDBPH9CCClsG/d3wrLBFAALBI19UGKSFf4IIaTwQcXAbwgbCFEA3AC09P2usLY/IYQUE9jTvyNsJUwBcA12Cbv6EUJIsRK09/hdnAoKgPl0mPGYGRWcCkIIKVrK7b2+g1NBAQAqbVVYx6kghJCip87e8yspAEobrxnfNmMD3wlCCCkZNth7v5cCoHRBnv8BvguEEFJyHLBtAAVACfJbZnye7wAhhJQsn7dtAQVACfEFM77KZ58QQkqer9o2gQKgBLhDStztQwgh5AP8pW0bKACKGAR+fEtY5Y8QQshlPLZtKKmA8FISAPVi5X9W8lknhBByBZW2jainACguUul+7XzGCSGEXIN2KaH0wFIRAL9vxi18tgkhhNwA2Io/oAAoDhDd+RU+04QQQhbIl834EgVAYbPdjD/ls0wIIWSR/GczdlIAFCZVYkV1BvgcE0IIWSR+24bUUAAU3s/134QdnwghhCydFWb892K1lcUqAFDZ6X4+u4QQQpbJvWb8ewqAwuBjZvxbPrOEEELSxP9hxicoAPKbVWb8VzMcfF4JIYSkCdiUvzVjHQVAfoJgPwRssNIfIYSQdFMuVpGgMAVA/vF7ZmzlM0oIISRDoFfAH1IA5BcPm/Ev+GwSQgjJMF8y4zMUAPlBoxl/xWeSEEJIlvgzM1ooAHJLKjAjwueREEJIlkChub8rdBta6ALgX5lxD59FQgghWeYOM36VAiA3bDPjd/gMEkIIyREoEFSw/QIKVQAg5e/vpUR6NhNCCMlLPGKVCg5SAGSP/1esdAxCCCEkl6A40O9RAGSHh8Tq1UwIIYTkA78oVjo6BUAGaRCm/BFCCMk//sq2URQAGeJPzKjlc0YIISTPiNg2igIgA3zSjEf4jBFCCMlTHrFtFQVAGkGDnz/is0UIISTP+SMpkKZ0hSIA/qNYJX8JIYSQfKbRtlkUAGnggBk/x2eKEEJIgfBztu2iAFgGfjP+XKya/4QQQkgh4LBtl58CYOn8lhlr+CwRQggpMNbYNowCYAlsN+NX+AwRQggpUH7FtmUUAIvAZcZfmuHm80MIIaRAcdu2zEUBsHDQ5ncXnx1CCCEFzi7bplEALIA2M77GZ4YQQkiR8DXbtlEA3IDflQJtrUgIIYRchaBt2ygArsM+Mz7HZ4UQQkiR8TnbxlEAXAXkTf4BnxFCCCFFyh9IHtW1yScB8EUzdvP5IIQQUqTstm0dBcA8wmb8Dp8Nkk8kkkmJxRMyF03I9ExMP5LcY5ZF4nFrbRKJpP6akALid2ybl3PyJc/+N8xo4HNBsmtIksaAiBqRhH5uDWNX1Efn87kkFHTrqCjzythEVLp7piTgd3HycinMzKL5vC5xOBwqzGbnYioIsGj4PWfqo9P+3Jn63GF+n/NHck6DbfN+gwJApMOMf81ngmTyJJ9M2Abf2Ilkwjoyuj1O8RtjDmPi87j0cwyv+dzrdUo44JGysEcqK3xSXxuQnr5p+clL3dLVMyFul5PGJAfEzdqtai+X1e0Vumaj43MyMxtX7wzEG7wCUfP57FzcDHxuPuLX+Dvm92JGKDiuEAqOeR8JyRKweX9hxplSFwD/Dw5bfB5Iek719keBpbc2dhhrt9chLnx04TRoPrqdUl7mkbqagESqfFJT5Zc6Y+QbaoPmc5/+dx8SEhtEqiq88jffPC7T03H9t2g0suuxcZn1++iBNrl5Z51cLZZq1hj8sdGoDI7MyODwjIyMzZqPs/r50MisTExFdd0SRihADMRiCfUexG3vj3oR7K/LtSUZxGfbvk+VsgA4YMYn+SyQNJoJ3eChAxJmY4e7Hqf3lsawNDWEzMegNNQFpbrSLx4jCHBCxEbvMadJp0bEXPskiD9fv6ZSHrq7Xb7347MyORlVIUGy4MUxxtnjcUpbc5m0t5bJtQKp4RWI1GD4zHNQoQY+Zv5buP8hAGPxuBEFc9I/OC0Xuiel8+KkdPdMSl//tIyb9dS1d1hegmSSXgGSUT5p28BnSlEAYOdk2h9ZskHACS6Ok1wsqSf+GmPUV7SUSWtzSFY0lanhLyvzitn31Qvg97vF73Wp0U5t7G734l6ByjKfPHBXqwwMzcgrb/ZoXICHIiDjwMUfCnrlk/d3SKQ6cN2/a62tZby9Zr298/7MY9Y7UOuW2iq/rGorl6mZuMRwfWBUI+IJ+gZn5PyFcTnfPS7nuiakb2BG/wyeo8seJKoCkjZgA3diSys1AfAzZmzj+pMbnunNcT6mht6638WvK8q9ssoY+6b6oJ7sYfzDIbcEA269s4ehxj1+Opmajsmxk8NytnNcTp0d1e/FRWOQcbDuCMK8aUetbFlfnZ6Nz21dA4WCng/8fkdruaxfWSHDo7guiOma4+rgwsUJjf240DWpHgR4FPB8pYQBPQVkiWyzbeF/KSUBgH/3q1x7ci2DH08YY29O9nGz+WOjrqn0SU21X+oiAXXfV1d4pbYGxj+ov5cpQ9zTP2U2/il1GXf3Tsrp8+PS2T2hJ1Ld/M2/yyy0TGPNM65r3nt/2Ky734xARv4lxBhUV/l1zOdi35Rc7J2Q3oFZFQeDQzP6bPSZ52LUCILUFQW8QfQQkEUCW/j30LqlIgC+ZMYqrjtJcTkVz7prDwU8Um5O+RVhr572m+tDeve72pzOykOejH0fM7PmxDc8q9HlCB57//SIHHl/SO+L5+YSmiWAjd7rsbwLNP5Z2KTcDpmaickb7/TLeXMCX7UCWQDlEjGCEOtRFvapIMyk4W2sC+pIMTI6J8dODcuZC+PSY8QBgg3HxqNWVsJMXBxOYeohWSirbJv4l1mX1l/85aez/W/iSu6E5GFnJJL9k75lQh16mvZ4jWF1mw095DbGvly2baqRzeurJejPnE7Fvz5rjL6miUWTcuLUiLzyVp+8d2pIRkejanwQP4DNnBt5rp8XK1ofUfu4fgkG3RrzsXF1lWxaVy2N9UHz/FjiDPEe2VwveATeODIg7xwdlC6IxaiVmhi10xOZZkhuwHkz1pgxV+wC4Ctm/DHXu8Q3c7Hy8XG3jzx8bOS7Ntcaox+R2mqfdXoyY37AXiYYm4zKG2/3yaEjg3L63KhMTscveSRI/mMV/BE9aft95jlqLZOdWyKyfWNEqit9KhiyEaeRilOJ2nEqx06OyFvvDsjhY0MyNDyjXiOKAHIDfsmMPylmAYCLtVNmNHGtSw8YVRRnQeQ+quttWFMlO43RX7mizJz6PWYDd0t5mTfjm+TI6Kxuzu8cG5aLfZMyMxOTyamYFpRBNkHKdUsKwStwucDTpeqNAbcG91UZAYBI/11ba43AzG7lVRQdQoYIMgu6Lk7K6+/0y+HjwzIwNK1ZKT6vW+MNCJlHt1jXATPZ+gezHQPwZRr/0gInMNyd4269qtwnOzbVyPrVlequjVT5pbkhpO7aTIP7/MPHBzWAr7d/WoO6kPI1PR0Tj9uK5LY2ZG7KheUBsL0A9q9RAXByKipxs74IyDvfOS7vnRiS2uqAPmvrjehE/ECmQfphpNoqGd3SEJbmxpDcsqtBBQDiSt45NiT9A9P69+ABoxggtm2Ejfz9YvQAhMw4bUYd17nYT2VJvf+M24V4WpvC0toclpb6kKxqr5C1KyuyEimN6m/njcG/2Dsl57sm5MTZESMAJrV+gMe+Ky6EiG3Mp3XStYMOk0lJhU/M//WlpjhJuxLiFSflqxnPD/+eXQfPYUuhK36tFRLnfZ7PjhLMG2pEQBTA+4Rqj2tXVmopYQQQIn10ZWu5XQAqe+BZPH5qRM51jevnEKVIOcSziNRCep9Kmj4zVpoxWWwegP+Fxr+40eI8MaRDOTRNq9Zssiitu92c+ndvq71qed10A7crUvbGxufMyW9Y3nhnQIu64HvDFQNGrvfXZPJyqeJLhvxKo24bMKuC3WUPBe6zHfadt9N5ueHNpc81WNH6vUtG3Zn69Qd/cKtHwmVlkLTX8IMjJUCsJkm4vkl9TK13cl5N5GuJhVSJ3WzOPf59PIseO2MDVzyvHeqTl9/olYpyj2xcW21dDxiBWhb2auyJIwuCsM2IYQxw6L0BeevwgDaZ6hue1uwCXB+4mU5YqtTZtvJ3i8kDAJ8bmh5Uc32L8cRvq0m40s1xqqE2IDfvbJB9e+o1hS/TTM/GtNkP0vfeOGw2+Df7zMlqXH8PDX9yVaznUpLDFafuDzWjmWfEHala9A7rP0aJYtxnIxMiEDTDblQEo4agN7/Xfelz3H9buehobnS5PoH+nufDJ8sZY2gQsOaYJwhgJJHGhmsbRLLPzCKwLa7FePD7KIwzbf7OlN2Fb9qcXBH4dslDkWq4NK/x0gd+L5GalPkKJfsXL1ZL4YTGpMAbsHd7rdy8q0Ea6gIS0Hl0Z9UzgHmFMHn+4EXp6pnUZzcKpcV+E6XIkFhN8saKRQD8phlf47oWp/FH9LPbGK/NG6rl3o+06h0rXOwwRJncvGBGosYYHXy7X1587aLmZMMYpU6tOT/dJ+e578UyhjDSlUYUVZb7pKzMozUNKiv8aoQQtR42vw6gZLFv/t2wfdK2v76eru08czeEhMtx2VV/PYPquJpCubpoSdoeCPRTgDCIq8W8bLrx78MrkfL8wM0OIzYxiTGn1fNQMAd58fDG4OOwOd2Ojs1a/RecTlvszO/IJ1nxEl3586r4clieAqwD7ur339QoFWZ9stXxCf8Mnl0IrVPnxuSJ5zrl8HsDel3FSoMlCYoD/btiEAC4+79gRhXXtHjAHT8inOsjAdm3u0F2b6+TirBHas2vs1Eb/8j7w/LKm71yoXtCK7GNTcxpLn+qD3ymNkztJJe87CLXTnJx63N4GpDFgOhzFKZBNblITVBqq3zqCcFJHnEHOPHj24Nx19O6Dy2IHTpv+D1HAe/2qTlJpcOhO1/UjgdJCSJkXaAr37BZN3htcGUzaAQDAuQQrDmp9+Gi84m1tK5A7OuPDMxNak2TWvPfqdcBuCJY2Vauz/a6VZVZnUPMXf/QjEyYZ/rQkQF59pWL0t07JQGfO+3lrUneMmxGq2Q4FiAbMQA/S+NfHGCThGsYpz0U6tmzLaKbY2tjWMvxZhqUXUVe9WlzQkLgFFyluPOHYcDpLZ2d+dQoJFKFZ6yGQ9ZpTLQufYUx7lUVPj0xYuD34Kb3mQ0aJ3dkNiC1MWxEEdLSSqVrYCoOQe/db/BI4DlCW+XxyTkZR8qcFmSyhCW8CRB1EAUDQ1Y732EjEnD1kBIF7nlxEcu5L4emcFltAFUEoKhPb/+kBo8iaBT39ag+uGd7rcaQZBoIwSZUHTQDz9aalZXy/slRef1wv5w6N6p/jmeMMQJFTZVtO/+wkD0AyINB1b8OrmcBG347fx/V+hDNj5MRcvj3bI1kPIUPRuLEmVFN3Tt5dlQFADZmnBCxGacjfepSGeL45Upz+FnDIXNqD7mNcfcZY+9V9zyaDcGw45QIlz2ED6LLU6WBSfqACIAAQLomjDKuEiano+b34yoYUH4X3h8ICMQuaM+Aed6C5RpIPAfW1xWtI7BtY40++8giQHBrNsF78OY7A/LeyWE5d2FcznaNq8fL62EKYRGDuDlUB4wXqgD4tBnf5DoWJnq/H0uoccNptx3V+rbVyr49DRn/t4fshisw+i++1iPHT43q6Qx348s5Tc+/l0/Y1WNwosLXxd07DDxys3Fqx+kL2QwtjSE9BWIOSO7BM9nTN60pnp0XJ+yGPLMasIjrBXgJYLhhIFNX+I5l1OVP3c8jVQ9NqW7dXS8376zXzxvqg1lP20MRq4OH+uT0+TH1juBndrFNcbHyGTP+qVAFwCtm7OUaFiapIC2U6b3/zja5aXtmszjhZsfGPTQ6I8+/elFeOHhRRYDPGOblRvJfMgR26VgEVjm1X7xTT/Ao1tLRViarVlRIS1OIbX4LEAQeopwzgujOdVn1H3Byjs/z7KTE31IzD/Df4mtCMG7dUC0fu2uFFrUK+j2aBZNNUG74h0+fl6Mnhy/9fKToeNWMmwtRAOw343muX+GhQW1mL8EJ+OP3tsvOLTUawJbJ4D78m++9PySPP9upKXyT0zE7An3pQdjzA/awQbqN5a+L+PVEj3vVtR0VGsSI+2r8W16kfzH/umBJZaQgjx7rjfqAw0ZMnr0wJu+fGVEvUnfvtMZ0uD5QN2FpYjJVn2H1inJ58J4VsnFNdkOdEFwJ0Qwv2aNPnZV3j4+oqMm2ECEZ5zYzXsjEF87kBe6vcN0K67SPyH64TevrAnLv7a3aZa2lKazV/DJ26jeGFy7+V9/qk/6BKXX9LzWaPxV9Dhdx1GyM5WG3fv8w9EhNrK0JXsqZLwt79E6fVdeK6xm20k8vC9WycFhF33rzLE/dZnV9HBia0Sp8CCaFtwDpiRAEuOpyuZ12tsH1/52UAZ6eiWtVP1xDrDbPGa7HtqzLTrkTq76DyIa1VVJR4ZW+gWn58XOd2pEQ70Aw4GH6YHHwK5kSAJnyACBw4ZgZjIwqAHBCHp+MalDbTdvrNdp5jTGYCHTLFEj3euvIgJw8M6qjq3dSvw/cvy/E/Z4q5IITEArWYKerqfLJiuawNDdYWQnI40b6XZ0x/DACDu6GxAbXBX1GcGqtgrE56UZMQee4XOyf0msneBAQaY94E/cNguzw3OLqym+EckdruaxbWanXA2hlnW0QF3D0xIgR1L3m47C+S748qH5JlrdFm7FerID6gvAA/Gsa/8Iw/HCZOp1O2bqxWnZsisj+PY3q+s8UOKUcPz0i758e1Q5p/f3T5tTlWFCJXr3njFmnfLhfUVCnutKvJVwrzcc6831rmdWWMk3LI+RaQOxipBgdi8oZYzy7+yZlYHhGBgdn9FSPLITR8ajt8rfEwJVXRPg1gkfxfMLoHjs5LKfOj2qd/01GBKxozl4nQmQpYKD/Bupk4HoAtTK0LLKbBYUKFKdtU79cCB6AiBnn5YZZwCSXwF2OjQunZrjJH763Xe8yMwFO6zhpIW//1TetcqdI8cJp/3pxBZdKy9rR+hAJaCOMfPuKcp+0NoZkdXuFbFhTqQV4CEkXE5NROXxsUAPt8NwiJgUFivD7iDEQu3rg1Roi4blF90s8uzftqJc79zdrvwEEm2YTfB941156vVfrZqCuAn6PaYMFybQZbWYM5LsAYNnfQjj9m52guS4k9x1oldv2NmZkU9CNcCam7tbHfnJeTyTYSH2ehZUI1lMXArXMycvncUq7OdnAtbp9Y0Rqa/xcRJI1ui5OauOet98blE7zOa6drGuo60feI+YAPRz2bKuVR+5baYSqR4Vs1voMQEAbtfK9J87Kc69clIHhaca9FC5pLw+cbgHgMaNT2PUvb4nZtfJvv7lBHrnfbEhhb8aC/AZHZuS7j5/ToCQUcUkkktctra4bqnaYs5rLNDcEZefmGtm6sVZdmk5nUrwe1Ml38j6fZFcwm+cSFQqT5rmbmozKiTNj8sbhfjny/pDWIHA4EHz44euB1PNulRj26BXbvQdatJjUh5oiZRCkLvb0TcmPnrkgz77crdd+zBYoONAquMWMaL4KABb+yeMNDO7L9tYybdize2ttxu764e5/6oVuc1oakP7BGW0Og13wasFUOEFhc8K9fjjokXWrKmTjmmrpMKd9VN+Dyx/3/HRbknwCQX8oT4yP6GXw3skRefvIgHoHgPeKDoypGgQISm1qCMmd+5rllp31Wf6uk1o4CDEKTz7fpf00IAIQ7EgKhrQWBkq3AHjCjHu4RvkDTiDaX9xsRrfuqjcn6ohs3xJRN3wmNsU33unXk9F7ZnNButWVlfuwCSJFDx3hEMEfqfHLmvYKNfhoI1xjRAl6C+C0REih0NM/rVUJIXi7eyY1+O5c57i2TvZ7rTbN8A6kahSsaC6T3dsjsmtznZYWzjaHjw/K8VNj8twrXVowCfE4EC1J1hLKd35sxr35KABQ7/+UZL+1N7kGiPCHux/FblC69M79TVJbnf7YTHgXcJp4/9SIPHfwojZQQVMcr32ySBVoQd40gv5g9PE91ZiTfaM5DW1cXak51IQUA0grRDYA2lNf7Js0Y1qzX3CF4LY7Pk5Px1Qcb98U0doBG5HLn+VAVryXz77SrbE5J06PaiowymHzdi2/z3RmrBKrT8CycW2/+Yvp+sZ+1YzbuT75Y/yx0eDu/O7bWuTj97VLKJDeUzUMPwL8Dh0ZlG8+ekpefL1XNzakRCFwL2lX4IMbFCd6iI+VK8pl7456ufcjLXLX/hbtJlhdxYA+UjzAsCOzZsv6atm6MaJVNPEu+mxPADxf8AbAAHf1TGhgIWIEAgH3pb+bDWDocSUI7xs8Fbiqg4ciaf8hdUBegmWZMCMtJ/d0eQBw1EPqXxPXJ38EADr2feK+Dtm0Nv0lSnGnifvOHzx9Xl54tVs3tvmBefjUaTdgwV3+jk21sn9vgwoSXAMwiI+U2rENHQxfe7tPXjZCGY2MorG4/gG8dMgWWNNRIZ+4v0O2bawWlzO7OfuIwTn0br/8w/dPycjonIoUvqJ5S7dYKYHL7hKYLgHwsBnf5brkwUZjV8j72F1tctvNTdIQCWSkF/3jz3TK0y92Se/glJ70sVvgI+73EcWP+/w9O2pl95Y6qTOfB/0ucwJyM5iPlLQImJqKqsHvH5qRg2/1qvu9u29KBTFSXVF9c99N9fLJ+1eJ3+vM6vcWiyakb2havvv4WfXqTU9HtfgRyUs+bsb3lvtF0lUJ8Be4HrkHhh9uxtv2Nsvtxvg3N4TSLz17JuWxZ87L4feG1P0PTwO8ATD6qMa3e2u1bN8c0X/bcvuzBC8hetoyAy5+gHcD7aV3mHcFWTPvHB2S1w/1aTliFOy52DstB25pkl1bIln73uDFa64Pyac/tlJ6eqfk2KlZCQYoAPKUX8gXAYC8xPu5HrkHd/LI6b/n9hZNNUons3MJefn1Hi3fe+i9QZk0Jxmc+FGRb826ClnbXiF1dQFZ2Vqu5XgJIdcHV2MYAJkviBlA+eC3zen74Ft9Wnzo1JkRufeOVqks82Xt+6qrCWgfg96BKfOex1kvID+537a9nbkWAD8rVgwAyenp3xj/gEe7nuH0nc5XFul8L7zWI088e0FTmyrMZoR64+iD3mY2ro3rqmTzumouAiFLpLkxpOOWXfUauwMX/NnOMXn5zV4ZN2J73+5GjRHI1hUasobQLfG1t/uZkpufuGzbu6zKgMsVAPAP/RzXIvcgr761KSR37m8xJ/P0SDJcKaBV6rd/dFqefrFbo5s3GUOPmuZ7ttXJLbvrJeCj9iMknaDcNcb4xJyW733h4EWZnbWyehprAxIOZz5dEF689tZyFSLXq95Jcgps778Xq1tgTgQAChK0cR1yC6LqsTk01Ydkw+rKtHxNVOdDUZO/+6fjWsoXefu7t9bJ7Tc32mV5HVbkECEkIyAg8IE7V8jH7l4hb707oFdwrc1lsn9Pg97XZ5qVK8q0SBHqGXg9jAXIQ9psG/yjXAmAL3ANcg+MNSqLoZ1vOkAu8JuHB+Sbj57WUrw//z9slK3rq8Xvt7rxXap3zlMBIRnFYdvdjWuqpKOtTL17qDiI6zc0FcpkSu32TTV6DXDk+JB4K3xcjPzkC7kSACgp9xDnP/fMzCW0wM72zTXL/lq9A9Ny+OiQ9g341Mc6tHhPS2NIi/sQQnKDz+fSAXc8BLjbfbnKZtKoAmcG2gt6PS5pMwcLFOrCdSCzefKSh2xbPL2U/3g5T80DZjDcO8cg776pLiTrV1VeSjFaClquN5bQwj31tQEtHrRvd4OsXVlB409IvngEjA1GQyE01kpeKtw///P0gmuAvTvqZC6aZJ+A/CRs2+IlsRwB8FOc+zw4/c/GZPe2Wo0cXrLxtz8ijbC60qvpSGtWsjY/IflMUi5X3MyUcW6oDcre7XVX7eRJ8oYl2+KlCgAkmX+M8557gn63bF5XJXWRpTf5sU4PSQ0sYqU+QgoDeOtSbvlLcTkZAPEGK1vLzN5glS0mecfHbJucNQHwIGwP5z2H6j9pndh3bolIZJkd/lIbibWZUAAQQi4TDnnkI7c2aUxAggogL8+Btk3OmgCg+z8PQO1utBJtawpxMgghmbEuAbds2xTRmh+2s5DkH0uyyUsRAGXC0r85Pv0nxelySFtLmTTVBzPS7IcQQgA8gxABG9dVSzjskViCCiAPud+2zRkXAOj8xwbuuTz5x5IalHP37S1SXcmlIIRkFuw3d+1vkcpyn7YuJnmH37bNGRcAdP/n+PTvcDqM4ffJnq21TNEjhGQcj9spK9vKtFsgPmdKYF6yaNu8WAGA3LD7OM+5IxpPSHmZV3ZsqpVAgHX4CSHZY8v6Kr12RLVQknfcZ9vojAmAT5jh5TznUABEk1JX45cDtzYZJU4BQAjJHjftqJP21jKZjVIA5CFe20ZnTAA8zDnOHcjAQUe+xtqgigBW5iSEZBNUG22oC0rA55YE7wHykUXZ6MUIAFw23835zR2o+reiOawqPJOFPwgh5FqgMRFKj8/NsSZAHnK3LKLHz2IEwK1mlHN+cwdq9a9sK5eNa6s4GYSQnLBqRbls3VjDOID8pNy21WkXAB/l3ObQ+McTWu4XzTl8Xt79E0JyA7oSrmgpk0i1nzWB8pMF22oKgAIhGk3Ijs0RWbuykpNBCMkptTV+2bOtTuJxdgksBQHQYMZ2zmvuSCZENqyqlMY6lv0lhOSWpvqQ7NoakUSctYHzkO22zU6bAEB+IaPOcmH47aY/a43xxxUAI/8JIbkG+1Ckyi/NDUFxaTtiioB8Wh5ZYL2ehQoAuv9zJgCSEo3F5fabG7X2PyGE5AMoQ37zrgbtRRKPUwDkGQuy2c4F/p17OZ+5Of27zOxXVvhk3aoKlv0lhOQNoZBHbt5ZJ36tCcD5yDPuXYh9X4gAuAlij/OZfeLmrfJ4XHLTtnqpKGMBRkJI/oBrgIZIQGuT+L0uSSRYFyCPqLZt97IFAFv/5gjc/ePUD/d/eZgCgBCSf4eUW3c3SE21T+aidAPkGTe03QsRALz/z5Hxd7ucUlPll5aGICv/EULyDq85+e/ZXidV5X5tVEbyihva7hsJAFQV2s15zD7RWEKqKr2yc2utMf5OTgghJC9xux3S3BiSirCXwYD5xW65QfXeG1mWm2XxDYPIMsHdGups4/R/6656cbl4+ieE5C+7zEGltSksMywPnE/Adt+yHAGwj3OYfaCiQyG3vlBVFT66/wkhec3alRWyorlM+5WQvGIfBUCBMTMb157bOzfVcDIIIXmP1+OUlqaQVFX6NH6J5A37lyoA0HFmL+cv+6Dxz8rWctm6KcLJIIQUBB3m0LJpTbXMRXkNkEfAhruXIgC2mhHm/GUXuP+ryn3SWBdk7WVCSMGANsHrV1fK7ByvAfKIoBk7liIA6P7PAVDPm9ZVy7pV7PpHCCkcEKvUEPFrp0C2Bsgr9lEAFAho+7tpXZWm1RBCSCHR1BCWHZsiGgdAEZA37KcAKBDq6wLaYcvjZvYlIaSwqK0JyO5ttdrEjAKgcD0ArfYgWSLV9nfv9jqprQ5wQgghBQeKAiF9uboS6ctCEZAfNJixajEC4FbOWbYFQFIcDofs3FIr9bVBTgghpCCB93LHloj4vE6mBOa5F8C5WJcByYzxdxm5HKn26yCEkEKlotwrN+2o106mcfYHyBf2L0YA3ML5yh7oqOXzGdW8tVbCQQ8nhBBSsKCJWXtzWMrDHs0MSPIeIB+4ZaECAAWANnG+sgNy/WOxpHiNWr5tT4MEg25OCiGkoPF5XbJ+TZWUhb0SY4OgfGC9Gd6FCIDVZjAKLVun/2RSy2ji3r+lPqTqmRBCCv1ks88caKqrfDLHBkH5AE6WGxYiALZyrrIH8v6rK/2yc0uNJOgqI4QUg7UxB5lVbeVSV+PX4GZubXnBVgqAPAPuf1TOuml7nbiZ+08IKSLQIbCm2q/9TUhhCIAtnKfskEwkxeVyqJsMebMOFv8nhBQRm9ZWSUtDSKJsEJQPbKEHII+IxpNSHwnIytYydZMRQkhReQBay6W5Pigzs/QAFIIHoMyMds5TdpiZiWkLTRT/IYSQYkMDnOtCUlXpY1Gg3NNoRuR6AgAuAh5FswRO/S2NYa2fTQghxcjKtjLZsLpSojF6AfLNC3A1AUCyQDyelMb6oDTUsewvIaR4aW+FAKiSGAVAPrDlegKA9/9ZAmoYqritOczJIIQULSgKhPbmKHZG8tsDQAGQJVAcY92qKmluCHEyCCFFTTjkkdUd5VoPgDUB8lcA8Aogw6Qe/kh1QGqrfZoGSAghxUxzfUh2banVQED2Bsgpm+bb/fkCAD2DKzg/GRYA+J95/resr5ZIDe//CSHFT1nYIxvWVIrDyQNPjkHEedvVBEAH5yYrCkBL/u7ZXsvWv4SQkqGywqeBzy6XUxKMB8wl7RQAOQL1fkIBt0bG+rws/UsIKQ08bqfs2hIRv8/FmgC5pYMCIAfgofd4XLK6vULcrPxHCCkhykJe2bGpVg8+CboA6AEoNZD7j4d/64YaCYU9nBBCSMmAgOfWppD4/fbeRydAXnkAVnJeMkssbnkAdmy23GCEEFJSIsDpkFUryiQc9kqM1wD0AJQKCPzD6b+uJmB3/uMVACGktMC2t3dHvdRU+WWOHQLzxgPgNqOF85LB038soVGwG1dXsRAGIaQkcbudsn51pVSbvRBXoiQnNJnhnS8AWm0RQDIoANARa+umGvMS8PRPCClN0CGwtsYvAb+b2QC5wWnb/EsCgO7/DBOPi1SV+7QzFiGElDLtLWFpqA2wQ2Du6KAAyJrxT0iFMf71taz8RwghG9ZWax+UaJQCIFcajAIgS0RjSWmqD8qajnJOBiGk5Kmt9msr9FicAoAegCJndjYmrU1hWbuSrRYIIcTpdEgtMqKqfBJnHEDOPQANnI9MPuxOve8qD3s5GYQQYmhpCMnajkoNkCZZp2G+AKjhfGQGpLrU1wVV6RJCCLFoaw5TAOSOGgqArAiAhHS0lDEAkBBC5hEMuKW5MSTCrGgKgGIFaS6rVpRLW1OYk0EIIfMIBTzSVBfSz1kgLTcCIGAPkiFa0ACDtf8JIeQD4Gp0/apK7QuUZHegbKJ238nTf2ZprAtKeRmD/wgh5EPHUCMAtmyssSoC0v5nffopADJEyp21eV01o/8JIeQq+LwuaWspE5+HHlIKgKISAEntfLVxbbVEqpkBQAghVyPgc0lTfUgbBSUZCEABUBQCQERb/iLVxUt1SwghV8XrcWiHQHgD2CGQAqAoTv8el1NrXft9Tk4IIYRcA2QCbNtYYwSAk1UBKQAKHzzEULOo/Y+PhBBCrg5c/+iSCk8pbwAoAApfAMST4jVqFgGAgYCbE0IIIdfBaw5K9ZGApkvTC0ABUNBAxfr98ABU8P6fEEIWcGhat7pSKsu9Wj2VZEcA4Hga4jyk1/i7XU4pL/NJGdP/8m99zJiZiUksdrn0SDJhfZaqSY5OZWjghCwOfI4/N7/U6xyPhzEduWZmNiZzUeuUaFZHEvb6wYjg8GiWTFyueeuHjBzzP6wfPHMkHz0ATg0EfO3tPununTIHJ85JFghBADBHLY2gvzUMf2tjSKLRuDEY9ADkgyhz2PXGxyeicuLMiJy9MC49/VPSPzgjo2OzMjsXV1GAvwtjD89N0O+WmmqfRCIBLVcKj87K1nJxmD9H4RJ8dLCQecZJGXUwOR3T9TtzYUJ6+ybN+k3L0MictX7m3bPEmkM8bqcEAy6pqfJLTU1Au3Fi/Va3V4jL/Lmun8PK1CH5wcoV5VozJUYPQLbwQQDwmJpGcAopD3u0/j+CW0ju6embklcO9cqp06MyMj4nU9NxmTMGYy4WNyItqS7HRNKqRKbpm2ZMOeIyZsTC4MiMnDZiAYLAa07/ZSGvNDcGZcPqKtm9vZYFTLLA0PCMvPJmr5ww64f1mJ6Jq8GPRhPaawOeG702TiYvrR8M+/ikw/z9WfGY9YPn5pkXuyVs3s2G2qCsX1Mpe7bVSciO0bHqdlAM5BKnmX9cAfi9Ln0fnVyPjDte6AFIM1FjVCrKvLJxbRU3lKyf9C9v4nFjFA69NyjvnRiWC10TctGc9oeGZ/V0gb/jcjl0g0mdAt1Ox1U9B7PGyMzMxs2GFLXvJh1yvntcTp4dk1ff6lOht3NLRFrZ7CntvHN0QN49PiznOy+vHww/TvguvaaZv34iV7aVw/pBJOC/wTVB6m75XOe4nD4/Jq+9PSAdLWHZtbVWOlrLOOF5QFNDSGqqAzJoRB/qA5DMewAoANJlgPT/HCoAqio4rdkGhmDObPjvHhsyBnpU3jYC4NS5MT3t+/1u8bgd5iToXsTXE3HpRbK9Edn3/3NzCb1COHpixBioITUmWzfUGDFQJu2t5VyIZRCPJeXd9605ffvIoLx/ekRP/MimcRvRFgwsbv3wTDghDFyX1w9XPRCFx0+NyuGjHn1GdmyKyOr2Mlm5ooKLkEPWdFRKc8Og9PZNqceNZF4A8AogTSQSuP/36L0jybbhSEjf0LS8896Q/Pi5TjnbNa4GA4Ff6e7ECO+By2V9XZwwXzjYI6+/3S97ttXKgVubZGVbORtALXb9Ekl19R8+Zq3fiTOjGsjn8zmlwpu59cO/e/CtPjlkxMaOTdVy1/4W6TDrV1XpZXxHDmhtCmm8RjTGOIAswCuAdBKLJqW5NagPMcme3wUR4afPjcr3njwnrx/q15zicDA7YcQwJhB9uIN+7Z1+OXx8SB68a4XcfnOjeoGcThqRG4HNvrN7Uh416/fSG71i7L6EQ54sPDlWwCDWD9cF7xwdkiPvj8hHD7TIHUbI1dYEdX1JFo+k5t2tqvCLg+9N1jwAFABp3MigXukGzoLZt+5b1MX73Ctd8oQ5NXb3TC3KRZxOsF853U4NAv3nH56Rs10T8shHO6S9JcwAs2sY39SMvGZO4I89fV69Nr4cpelheVJBuz94+oKc6zTrd3+HrFtVqWtKIZA94D2L1PhleirGec+CAKCvMl0eACMAIkg5qgtwMjJq/C2DGouJ/OOjJ+UNc/LuG5yWfLGx+P7ePjIgU2YDu/u2Ztm7o46LdpX1g/v9u4+flVff7JWLfVN59f0dPTki0985KXfua5KP3NzERcsikWq/NNeH5PipYb2qIRmDVwDpBHeWlUa9ohAQyazxGBufk+8Y4/HSGz0yPh4Vp8uRN6cFBC/NziXkvfeHZC4aV2/FzTspAuav38RkVH7w1Hl5/uBFGR6ZtXL3zXuTzJP1QzAp0g6jc9b6Hbil6cOuC5IRcIWK7Jojx4dYECgLHgAKgDSAwiI1VT6tAUAyB4zHkDEYP/zJeXni2Qu6GcN1m08edhgMuLKjsaScOjsm3/nRGbUcu7bUlnwlQazfyNicPPV8p64hgihT65fMo/Xzmu8pFk/Kue4Js35n9Tnbt7tBCwyRzFJZ7tM26jG2Bs64AMDTzCuANIB7wlbz0FYzAyCjoJLfk893acCYGn9Xfhn/+UYEWQg42V7oHpd//P4pDRAs9ejmyamYPPtKtzz61DlNz4Qgysv1EyvAE2uInPR/+O4peevwgH7PJPNUlfkkFKD7P8NoxA09AOkQAImkNDeEpb6W9/+ZAieCZ1+9KE+/2KlFfArhqgVlhVEOuqtnUn5kTrynz42VbMtTvCOo6PfMS90yPR3XbI1C8FhACIxPzMm3Hz8rx06NqLePZPho6nNJW3PZJTFNMucBIOnyAKCKFT0AGePQuwPy6lu9Mjo+V3CudL/PrYWJXnq9R8YmZqXU9jQEyJ45PyYvmp8fAX8+X2Gd7uD6x/ePmg/5FLBYrITDbmlutNKpk0IFkLEDihmznIblg0cUjWNYvzoD4soYj/HJOXPy75Kz58cLsseCFhQ0J8mX3+iTZ16+qHFkpXKSxAkOP+qjT57Xqnv5em1zI+AJOHioz6xhjy36WawmU6CGxtqOSus5of3PFLPYSec4D8vf3GvNyT/gd3MyMgAag3z/ifNaHQ61/N0FmhuMxkHDo7Py6pt9cvjoUMkUCUImxOPPXNC+DOiQ6XYX5s8NLwBiGF59s1+vMlzM9skY2EvRnwEimfY/c68mPQBpON0AFHwJBCgA0m88EnLSnBoRODYzF9N740K+E0T52U7EAxiDqE2GitwLgKuxC90TRgCcNz9vzBjRwg7sQqEpxHMgEHVsYk5/PpIZUKER7YHhVWUcQOY8ABQAyxIAVmIwellXlDOhIt2g3zuq/MFYOoqgOjtOv4gkP3VuVN48PCCz0eKOKh8anZGXXu+V4bE5deUW+g2Zla6YlO7eKXnuYI8RpcwKyBQIoF3RHNaUTAZeZk4A8ApgmR4AbAodK8qkPMQaAOkWV10XJ9VlrnfoReAy1xxzFJqZS8hjT52TyclYUb8b57sn5Scvdqn7vFiuPLwelxYy+snznTI1HePpNGPz7JQVLWHxeJ32QYukGV4BpOVUYE4EDbUh3gmmGdT2f/voYNG9/DCEiGXo7pvSJkYzc8UZTDY8NivvnxqRyeniEjkpL8DoxJy8896gBqiS9IMW3ivbK1RwxekByJgHgAJgGSdUhxN3VV7zsLJoRbpBFTa02fUUpbByaBQ5ut+hDW4xcub8uF5zuIuwep72Mogn5blXu40AiPJlzQCIF0EgIK7NEky4yJgAoHxdsgCwSoY21IVYHjzNTE1HNe8aTX6cRdgRDPebMCJvHRmU3oHizCs/dXZUznaOF2X5XNxm4P0/eXZMr6noos6EyLLKAiPwEl4zznDa4RXAcoAqRZW3tqYwGwCl+/TfOaEnSHeR115HUyP8nEgvKyZ6eqfkfPeE1nAo5tIYKHB07OSI9qcgmaE+EpSA38VAwAx5APjkLlkAJDUtDYEqftYASCsnzMnqwsUJzZ0vZlAhEAbkXNdEUf1c6HuAGI5ify8QqHb0xIhc6J7kS5uhPbbN7K8IsI7HKAAyIQB4BbDUhzNpBIDHoakqHjcvAdIFvKmdxvj3D84UbNGYhYKiRmcvjEl/kV0DwPWPqw23q7jXz+lEieBRTVclGXg/3E5pbQpLKOSWOAMB0g2vAJYrAFxmA6iLBEqmqls2jP/gyIw2XymFKUV52YHhWRkaKR4djuBGVDycnY0X/XuB643ZqPXz8pI6M+CAFQ552R44Qx4A+q6WZKiSGtxUXuYtiK5mhQLS486b0+PYeFSNY6k8SwMj0zI5VfjR5DD+57omtW2zs0TCYlxG5PQOTLNJUIZAgTXEADAVMO1M4hUd5Dws4fRv1Ggo4DGnfz+DU9IIToxnLwmA0rAgcHMODs3onXnBC7hYUs6cG1UxU0rr12cEQFcvz1IZ2RMcDk21DhR4GfA8ZJACYKkbXUIkFHRLc32IKUBpPk319JvT8LQxICVzgnTKyOis+bkLXwAgtRE/x4y6/0tjAeGpGhmblWFmAmSMSJVfOwSyAyMFQF6AIiDhoEcDVFgBML3AGM7OxUsmrsLlEpmYjmlzmWIwhsOjc9rvwFEirwWeU5QGHp9gPHWmaKgNSnWVj3EAFAD5QSKRkLIyj7Q0hTgZ6ZxX835PTEU1v9rhKA0BABcnegLg2qMYQE48ujiWSlysrt9UTEYnWBEwYwKgPihVlT52X6QAyBMPgLFUPq9LgwBJ+sDdcam95PCUw2VeHDXzkxoAGI0l1DCWAvgxo0bwIOuBZIb6moBUlfMKgAIgTzY5uP0CfnfJbHJZmlbdRLXDYkkVV0Zd+bi6zQsdGH7ka5diWAxPp5kDvVbKwh5eAVAA5B5E/ZeFPFIeZvvftM6rsRo4CScTqgBKx/w7LOOBa49CB67/pP0zlRL4eRPJBKPUM0go6NHKi5xiCoAcK32RygqfBqWQtDoA9ARZii84PJvF4N0s5VMws4EzLwCqq5h2nW4BMG0PsuDNOmlO/16prvRzMtJ5ihIpmeI/V4KAuWLImkNGg6OEn19eCGYOeF1rawKWh5AsF7X7qS2HXoBFCoCKMvMwVlMApHUDdTg0sFLjKkroHYfbGKmkxdD50O22q2KW2B6NH9elPZ75HmeKynKv1FT66AFI0+lfDx4UAIsnEU/oFUDEqFGSTgEgKgAgBJIlZUGSenIuhsY5KI9dikYQIo4BwZkFV64NdQEKAAqA3IJIVESkBtkCOO2EQh4tIFNKwVTYz3w+t1aWLHRgBEMBt17llJKIw8/r9VIAZBKUA0bjtRgFQNoFQA/nYzGbnGgfAAr+DJwgzUYKYYXTcKmIAHQ5DRvjX1EkNSWqKvzi9bhK5qSGnzNoRE84zJogGRVZZuOtLPex62J66JkvAM5wPhZ+WoMSDfrZATBzBsRnTsSlZEASWla6oqzws0rQFyNS7bfXrzSeVysouDjWL99B7ZVwiOnXaeAsBcASN7ja6oAEg3T/Z2Z+RWpr/HqiKhUBELevlKorfUXxs9SWmABAZ1AYfwSpkczidjmlvi6gYSasubAszlAALOm0ltSa1OEQX/ZMgGI4zY1hVfnxEhIAMP7NjYXfV8LpEmlpCus1TqJEFACeUwSo1UaYFZRpfF6n1CD9Wq9fqQDS5QE4zflYuACoqfJLJXsAZASkw7U3h9UlHiuRut8QPbg3L4YYALfLJavayyUYcJVM2VYUr6qrCUibET4ks8AziCtCKAB6ANLnAejEPsQ5uTG4Aqgxar+8jPdQGTlBmieyoS6oTZZK4QogaTROBfKbq/1F0f4YgbE4/SNN1u0ujU0a64ZrK4+bbcEzLgDMs9VQG5ASKxWS9nOsGefnCwAY/wucl4Vt2LgCgBIlmcHjcUpTfVBPxMV+DQAvR3trudTXBovq58JpGJ6yYu/ehuezuSEkkWrWBMkGgYBLDwhkWXSZEZ0vAC65BMgNpFPSiviFq5pkjtUdFdJqjMjcXHEbkFnz861fXSktRXD/P59Na6ultTEsM3PF3SIXbYA3r6tWwUoyD/ZdCEvrNMb5WCKXbD0FwGKxXZwks3S0lklbc1nRnyBR/nf1igotcVpMIA4AXoBivwJA1cr1qyqkkafSrIGmQKgJQPu/ZM5SACz14fN7Ltc7Jxmjotwn7S1h8fldGndRbKR+pLWryiVSU5z54/Bq1NX4i7JDINYP99D4+ZC9UQzxGwUjml0OzRJSEUAVkDYPADMBFvDCI7iJL3sWTlZmrGgpk63rarTHfPE9T0m9/9+3u0HqI8V5elyzskK2bKiWmdniuwawAlQdcsvuet0TSBbfHTsTC96zJBUAPQBZeuzM6+7QfG23iwIgGyAGYM/22qJLB1Qxad48bGK4Pw4VaUAp6rZv3RDRbIBiJOBzyS07G4qmhHPBHA7MASxSbe3DSV4EpM0DQAGwAJCD6vfxCiAbYJ4RDIiAMgRfFoPahymMRuPi87jkrv0tVkBTkepJVG1bvaLciLg6rXWQKJLT2pxZP7/fJXt31ml3OjcDgrOK1+vSrAtNM01wPtLlAeg1Y4Rzc+1TGzbqmmqmAGaTiDGQD9zRJn6vqyju++Lmh3Cak0tLY1juuLVJvEWeO46+APfe3mJ1OkwWxz6Agaj/+w60qieHZBe0DEfsBYQXGwMumimZl/J/5eN7mPNzjRdf7KCfSNCofwqAbAGxtWV9taxbWanKv9ADyqLRpDTUBmXfngYpC3lUDBQzuKdtbymT3VtrtZFLoa8fPBkQpTs2RXQdvQwIzjooFlab8gAwBmCxHBGrENBVBcA7nJ9rKwDEANRUeo0houzPrhFxyGc/vko3XpRdLVQQOIb4UYiZA+b0Xyp7V8CIuEce6FBvQOoEXainfwSkblpbJQ/e1V4yzaryTwA4tHomagLQ/i+aD9h4CoAF239VANr1y8UsgKyfIpvqQnLgliYtuTo1HVNvTCGB73d0fE62bqyR+z7Sqs+Qo0QeI/ysFWGfPHj3Cg3empyKFuTPPj4RlU3rquS2m5vE7XEwGyhXAsA8PCgV7nTSA5BuAcArgOt4APCwhdiLOgfG02HUvkNu3V0ve3fUS8DvktkCqzA3MRmTNR2VcsetzdLWUnpNYyDidm6JyG03NWop7anpeEHFPuJ5a6wP6vohvZHkFlwNOlkHYCkcvp4AeFdYYPGaRgiR214P3f+5Aqr/zn3NcsuuBn3xC6HbHEQjysXC/f3AnW2ydUN1ib4/VvDWR25pNCKgQfs9zBZAfQerXoMR/gGPWb9W2WVEjJdNf3LvBTDGH2mYOBhQBKTPAzAu81IESGoTEH3QysNeyqMcb8aIvv7oHa0ahAXXcj6nluGOGN8eOv3db77nvTvqSj6FFOlbd+5rkVt21mksTWqO8nL9ktb3Vlnu1ZgNnP7D9ADmzV6AjqwQlQkqgIVy0YzB6wmADykEYj1sUJzhsIeBPzk9RVp5v4gq/5lPrpE1HRXqkcnH9z9pXxnB3Q2vBU7/SIUr9b0KPz9KBH/6Yytl+4YazezI1+9TWzWX+eTmXfXyuY+vUrcz3/78AF6ZMnMg83kZCLjU0z8FwCI2A6v+tLtoi7YUjAhwXs7D/sWf2aAR9UgLisXyaxeYmY1JRblf7rmtRR68q03vwC0RU+oizlo/VAn8mU+tlR2bavTdyrf1m43GJRz0yG17G+SnHlp1qfkMX/88eY7MQFdWj9ulpYFJ+gQAAwGv6gFwGgHgZeRvnhgReAMiEb988bPr5J7bW8Xvc2qUdq6Bh2h4ZFYrGH7+U2s0c8HNO+Orrl9ttd+crFfLQ/euUO/I2MRczk/YeNdHxmaltSGkp/6PHmg1Rsap3y/f/Hx6hqz92ONhP4BF8CHb7qYHYAGbApSSOaWgcAs383w6BTikriYg932kReqNGHj6hS45enLEiAG3bgzZPG2jwA1KxOJeG6f+O/Y1yfrVVRo7Qq4NSiHjiiRSFZCnzPq9e3xI5wx3u1ldv0RSSzRD4H/k5iYdSPnzeVnoJx+B168i7BGvhzEAy/EAXE0AnDRj2owA5+uyAoCbEn0APBQA+WlE9jdrsN1LB3vk6KlR6R+Y0qYhXo91esu84XfJhjVVsnFtlXxkb5PU1/L1WSgIrt1/U4PUVPq1tv57J4alt39K1w3vWya9bjD8s7NxNSSIKcH67d/TqI2oSD57AESbMFmBpJyPBRAz4+hCBAASrFEucDfnzAIKEwIAfQB4ostfb8D2jRHZsKpKHn++U44cHZQeY0RGxqJavQ3rhgIi6dACeB6w6cDdH/S7pbEuKB0ryuXWXfWybWONpRmTvO9flMY287VhbaWsXlmunoBDRwakd2Bar1N0/ZxW4Z10rR8C/GD8UVOitiYgHW1lcotZv91barl+BUKFOZD5iqRHSBY4ZsbcQgQAeJkC4IObk6YBovoUd4W8xudzycN3r9BrgWdf6pbnX7soPX3TuobxeOLSaWEpy5gyCmhC4vI49Dpo/apKufv2Fi0Pe+UJhSzuRAdw4se9+923N8sLr/bIc69elM6Lk5KIJ9Vgq7s3ufz1c3stQYhYDazfdlu4cf0KB6Rker2MAVggL1/tN68lAF40419yzlIbR1I3jXIGARYMMCTotgfX8qmz4/LKmz1y5MSw9A/MWDX553kEUlcEqU0/tZ+g/HMqne/SidEIjI7WMtm6oUYb3ODaQZ8JhoinFbfTaVd+rJNznePy8pu98u6xYfXqIOob1zvXXD/7/z6wfkmrkY/P65b2lpBsXlcte7bXazYCnhWe+AuPoN8jLqeTMQAL44XFCICXOF9Xnhwcqji5SRQGMA5Oj0s8ZqxfXWk2er/ca06WyBQ4e2FCunompH9wWoaGZ2VkbE6isbjMziW0vajHbQWhBXweqazwahMi3Om3NZdJc2NI3f5wHSMmhGQO3MuLR2R1e4XUVAXkrn0tMj45J+c7sX5Tun4Dw9P2+iVkZiahXh54ZpAfHvC5dY2qzfqhfSxKMLc2hDXjAJ6imiofVVtBi3yHeb9ZCXCBvLgYAXDBHq2cN9ugOEU3fVKAG4XHaQx48NKvO9rKjeGf0aZCCACbnomb031Cc9Gxl+C+GR0IYUhQuQ9ZBcg5jqRO+yS73gCzDmgClWIl1m9kVianYjI9G7UMv1FuOOHDO+B0WmuHk73fvLM49ZeF3BKpCWgsDykSHNa7SgFwQ3rMOLUYAZBSDJ/j3Fmg9SQ3/+IgFHCbwSjvQiXgd0tzg5sTQVTcc19e2ulfD7ZL+Y9KiVQAoJ/5wIQQklfgKoflgG/ICxQASxYAScsV7Gf+PyGE5BOIE2EmQGY8AKgaNEEBYKUN4UFjzWlCCMkjAWAOZ163S7g1X5MpM95aigBAQaBXKQCSGm2KQDCmmxBCSB4JAK/L7gjKvfkawIbHliIArus6KCUPgMYA+F1sBUoIIXkEYgDUO8vN+Vq8cL0/pABYAIgBQOQxIYSQ/AFpuogBIEuz4TeauVfMKOlWC6kqgBAAbAhKCCH5JQA82g+ALoCrANv98nIEwJgZr5e2ALCuAAI+5psSQkg+gYqdHheLAV2D120bvmQBAH5U0hIqKXYaoJtlgAkhJI+A+9/DIMAl2+6FCIAflrYHIKmpJqGgh48TIYTkEcjO8rIl8JJt90IEwEEzhkpYAajCDAcZBEgIIfklAKwsgAQLAVzJkG27ly0AEEjwRKnOIn54XAEEA6UnAKiqCSH5jM+uA0A+xBOygAD+hc5cycYBaCVAFALye0rwZ09SBBBSaIeWhDVKRgDwCmDJNnuhAuBx2IPSVABWb3m3qyR/dA18jMeTEovzDSMkn9/VuWhcP1rCvTTeVw0CdDsYBPjhx+HxdAoA9BM+VJoegKS2AsZdU6mBXtsw/sdODcuZC2N8rQjJ4y3/0JEhmZiY07RljFLA43ZqnRba/w9wyLbZaRMAC3YpFKOUQv4/REApgp89YUTAT17slv/27ZPSPzjD14uQPAGxbz956aL8p786rLVKEBBXauCKlvZ/abbavcgv+uulqABKuQAQrgBam8Jy9MSIPP5spwwOzcialeWyc3Ot1NcG+KoRkgOi0aS8+/6gvPHOgJw6Oyo1VT5paQzpnXjpCQCn2aYpATItAF4Sq6pQecmdgku8AFBlhU8O3NokvQPT8tSLnfLGYZ+c7RyXrRtqZGVbuTTWBfnKEZIFxieicqF7Qk6dG5PnD140wnxYtm+KyGceXKXvaSlWK8dVZWkXrP8AY7atTrsAQEvBJ834ZIk5AMwpmCUA6yIB+ezDq6R3cEoudE3IE892ykuv9cjeHfVy574W8+d+qSz3qhonhKSXyamY9A9Oy+FjQ/LUC51ysW9KorGEbFhdKffc1iIrWspKdm4Q78Ad+hJPynXa/y5HAIDvlZoAgARw0qYpNZU++bnPrZc//Pq7mhWAuIhXD/XJoSODsmZlhTxwR5usbi+XQIBFkwhJy+5jTiAjY3Py7Mvd8vSLXTI0OituY/Dg6vd5nbJ/b6PcfnNjSc8RDh1ulAMWoRCwbPTC526RX/w7ZsyZ4S0pFwC59KLB3f+ZB1bJP3z/pHRdnNQSyXOxuJw4Myp/1v2etDWH5e7bmjVGgBCydEbGZuWp57vkrSMD0mdO/3NzCb2OxJY0MRmVzz60Su7a18J9KdWuHWqptL21c7aNzpgAGBUrv/ChUlHfcC956Na+BGpv79oakbGJOXn0qXPS3TMl5WVGBMzFdVPCGBialpde75WNayrl5p31EgywjwIhCwX3+y++3iOd3RPSZd4vCAHtSWJH+E9NxeT+O9vkwK3NRoDT22a1a3fJzGy81Bu2PW7b6IwJAPCNUhEAAG7uUsmpXSiovLX/pkYtPPLY0xdkYHhGQgG31kpATe4z58flXOeEnDYb2alz49LWFJaNa6s0m4AQ8mFisYQG9MGTdvy0GadGVEzjXcMBBJlIENmIR9q7s04+eqBVGpiFo3hsDwAEQInzjUWLpyX8I7hjQDK4vxRmFKafQYAfBieP229u0lgABASOjc+pKw4bFa4F4D252Det2QLlYY/s3FKr1wKtTSGprw2WZGElQq5kZHROuvsm5dyFcXnJnPqPnxqVuBHRQfN+hUOeS3sQjD/uuTcZIf2pBzqkqT7EybMJ+J1SZuZqcGRWSthXOyOLvP9fqgAYF6vN4CPFPqPILS2lqlqLpaLMK3fvbxG3Mfo/evaCObHE1FUJwQTNhCAln9erXoEXDvZcuhZA1sDalRXiw4sb9JZ0nQVSeswaYz4zE5eB4Wl57e0BTecbGJzWfQYBtFeeN2IJKxB5szH+n35olXSUcMT/1YBQqqjwSbJzXEo4DPCHtm3OuABIuRqKXgAg2sZln2rJ1Skzp3vcRQbNS/itx05rxDJqc88H85fqpogrgbOdR6U87JWbdtTJHea/RWBhPJ6k0CLFu5WYvSQeS5hTvENOnBmRHz/fJUeOD0ssGtfANQ1iu5ZgmI2rB+3j93XQ+F91D/JqCnKJtwT+xlL+o6UKgEfNmDKj6CvAwCS5aZhuKAL2bKtTJf6N75+ScxcmJBx0XzMgJxZLquvz+Vd75PVD/dLeVia33dQoOzZHOJmkKJmajsmzr3bLocODGtE/MRVVt77uMY5rn1uHR2fltr2N8vC97bKyjcb/aiBOCwGSJdwPYMq2yVkTAJNm/MCMzxS18Tdv5sxsTOvfT83EJejnvfW1wD3/jk01GvH/nR+dkTcP96sIuLKHgm52Doe+rOMTczI0kpDhsVm52Dulkc8rWsKya3OtNDXwjpMUPkdPjshb7w7Iua4J6euf0r0kHk9ovMz1PF4o8oO0vwfuXKFptR3G+DsZi3RVEDD52qE+IwJKNgLgB7ZNXrx42n7zF5f6j6L44meLWwCIupVQhQvXAbi3ZkDg9ZV4fSQgjXUBiZtTfs/AlG5iLqfzQ94A/BpXA4jgRdATNsYzF8ZVCKDKGcaEmfdgwHVd9ygh+caF7kk5fHRIXn6jR2NfYJxOnx9TVz4a17ivc62I/WbWvDNlIa/c85EWefCuFZo9w33n6rx7fEi+8/hZzTwKlO4B7avQmtkWAGfN+N+kyIsCuV0uGTUn1G5jmKqrfNJQG+Rd9Q2oqfLLqo5KDXTCGJ+MSiKZvOamh5ONx2O58aZmYvoyv202UGykcJ3iygC5z0iJKmGVT/IYuOpRo/+9E8Py/KsX5YnnOuW1t/ulz4hgl52mBoF8PUOOVEB4xuD9Qu8N1PeHZ41cHRQi+4fvndLyyKmMiRJkwoz/WRZR/jddAgD/4BZ7FDUwTsgxRZ7uqvYKNXAMDLw+CPrbtiGip52hkRk15ImkVazzeocZNPbwaplTl0wa4XDk/WF55c0+6eyZlKQ5Hfl8VmwBvhYLNJFckUhY9/rTZvT2T+lp/59/eEY7ZnaZZxUneaS6QtQuxHWPvw+hgNP+g3e1yUfvaOMecw30+nByTv72m+9rl1KPq6QDtf9ZlhgAuFwBAHDv8D+WwixDueMlPX56ROvdV1f6+SbeAKQuoUXp5vU1WizoIoz4Itorp64I4HFBnYEjRum//HqPnL0wLj6zsUaq/WbTRCMQbpQkyyf+kVnN2//2D8/KY0+fV6EKFz8MvvsGJ/2rGbQ5c/pHIO1PP7xGtmyoocv/OsCj+I3vnpR33x/RQMoS98j+mhknl2zXvvjLTy9rjzfjjBltpTLbSFdDB67PPrxahQBZyGkpKaPGgL/6Vp/84KnzWuIUmQOLUe3YJPF1sC/CQwAPQ3nII82NYdm6sUp2b60ryV7oJIuGZyqqWSsI6sOV4OxsTCanYxqwp5uhw7GoUrSxeEILaVWVe9Xdv3ldtdRA1PLkf+01mIjKk893qqdlajp6qeZIiXLejA5ZRjPk5XoA4NOFFbyjlGa9d2Bai3mgFGdFuY9v5QK8J7gDRfWy1oawlJd55XzXhEzPxNRLsJANLxU0iK+FDRdlUoeGZ7XvwIWLk/LusWGtOjgzm9CvTzFA0kGfeddfM0b/uVcvynMvX1Tjf/r8uAwOz2iAq26i5rlcjPGHkMUpFhkzH9EUvw7ZtaXGPLc+RvpfB1zDvvRGj/zgyfOaRom9o8Q9Jb9nxjPL2puX6QEAaEd1Fu9Bqcw6auDD1bd/T4M8dE+71LMm96IYHJmRl9/olXePDsnRk8N6lwqBsJR7PHhkIAiwOYRDbuloLZf21jIN1kTQJu5UW5hSSBZxpDnfNS5d5oQPod91cUKDUhGDEo0m7GDVpd05w/AjKNbrc8m6lRWyZ3udbNtYo4WwyI29JS+91iPfeeKsdHZNaqnkEgdFJNrN6FzOF1muBwCMmbHHjLWlMvMIbEN9gL6BGY3cbW0OM1VtEQTNXK1dWak9AZwup95/woBrsxP7lL9QsBFjPVK9BZBOePzkiNYhOGc28pGROc0sgMcG7lq3y8lMAvIBcD3Vo6mnk3Lk+JA8f7BH+1vA4Jw1z9A0jLZ5ZnzmGcOztthTJ9JcIVQ9bpfGxGzZUC2fuLddK2GWhRjlvxDh9Oa7A/Loj8/J+2dG1cNH5DEz/my5XyQdHgDwsBnfLaXZxxYAoxIOeuTO25rlnttaNDCQHrzFg1ze75uXG8F9OM1js9Q5XuZcYuONRRN6esCmsXFttXYl3LCqUsrLvVrhMRWpTUrmgK8neXid8HgNDM3IkRPD8taRATl9dkyFPUSpxzwby40sT1WmQ5Aa0tTgiXrg7jbZbJ5DsjBQE+HMhTH5L/903Aj7USkr85Ryxb/5fFyW0PwnUwIAOygCEppKUZ3iZIBSnbfvbdQGOWTxczg5FZVjp0bl+0+ck/NdYxoc5U5zmp/TvqtFCmFttV/Wrq6UbRtqZMPqKquvOnYWKriiZmxiTgXne+8PyzFj+EfM6R8pfVAGiTRbFngH8cxtMgb/vgOtsmFtpXqgGOS3MHDVeqFrQv76H45rJUW3m/Nm0y1W4P2y+x+ny2+Nb+TrZvybUlsJuAOR/gP3FF72O25putT4hizcMKOhx1ZjjJvrQ3oH++QLXfLOsUFJJkQrfKUjzxeeAHw9bPQ9/dPq+j1ybFirDVaW+7QMMcQAKj56GURYFCDQ9MSZMXn/1IgGiSIdFe8rfh8D3ia8w+kIKIN+wDOGqyx4lW7aXif79zZIW1OZnlx99DQtinOdE/I3/3hcOnsndX3IJb6eDuOfTg8AQDrCKSnRfozYTCLVAbn/jla5c3+z3nOTJXoEzKaMzfrE2VF5570hefvogBU8ZTZQBGGl45Cu3dnsNCwIAq/bqRkdqC1QVeEzn3slgsqPRpCgAxt+n+Q/6CuBoD2cHOHeR8GYoZE5GRw2gm9sTl3KOElqm29nep4liAi8/9j5mhtCsnNzRFausIJRWxvDXJQl8O6xIfnmo6d1D3Cn4TqmiICbapVY6ffLJp1WCt/Qk2bcU4qrglM/Aol+9Mx5QVfKA7c0astbsgSPgHnhsYFirOmolFXt5RqN/f7pMe2khncAaX7L2RSw8eOKwW2/ARABI6Oz0m++PuIQ4KatMQKgtiYgLU1haYwEVRSEwx4jELxSa8Qeg5Fyy9h4VEvtotLk5FRcxqfm1LPT2T0p3b0TavgB2lOr6918DKUpehzXVtqwJ5rQa7/V7dXS0VauHfs2r69WjxJZGki1/N4TZ9UDiD2Ut3If4Ml0Gf90CwDw56UqAHCiLC/z6Ab02FPn9HSJmACUDSZLBxsqBiqvoVsgSn+iURBqr8OV67JPB8vdJBAb4PRYPQlS6zk5HZexc2Ny7OSIBo5B5DU1hqS5PqiioMWc7uAt8HmdKkiwWfn9LpYoTjO4S0dDLtR+mInGJRZN6mketffPnB/VFL2evmmZNX+W6iuBNUh3HX31GiWsayRcEeHd1quj5rDs3VknG9ZUcbGWAeoqHDkxJN/64Rk5fHRQqip9DPi7uo1NG+m8AlCxLVZeYl0prxA2olDAo208797foidJlvZMD/CuoLvaUy92yYWuSSO04noSSyQun+wzKfLgKUBPAs0wiFn13hvqgtLeUqZR3i3GGDTWBiUcdl/avCAOPHYHOD4G15lb+1QNsZVqHoXgUFTdQ4bI+c4J6RmYlu6LEzJjl4DVIjx26mim5ja1jlZpaodZT7c0GhGIO/5bd9cz5icNICsDKZj/+OhpXWvU9KDx/xB9YtXdiearBwDf2B+b8bVSXiUE+0SNCHjy+S6ZmozJw/e18w45TcDrv2tLRDatq5KhoVl5/uBFeeWtXhk0n2ODhlHIlCHA13VpSUKHvjg++wYAd81wQyOVDN8fNi4YhbpIQIMamxqC6i1A3QOIwUtixhg8rfxWgqIAgm1+YBc6bsKzg6qOaKbT0z8lvf3TercOwQXhl/qIK6JsGd1kEmJPVOy1NAbl1l31xvDXS23Er+vMipPLBzVAXnytVx57+qz0m/cYa0vjf1X+OJ3GPxMeABARKyWwpMvjpU6L2CC2ovDHRzukrYkBQemdZGN8jeFFR7Yz5tRw8FCf9mFH4yCfz7Xkim1LWWsYCv2I/yXs06LHuhrw2h89Xqd2LkNWA9ybqBuBj/WRoNTWwJ1cvCWMUTMDbnuU0EWcBUTTwPCsxl1Mz8b0Lh0nf/w9uIKRAoaPeIcsjWQJu2zUfo/ZhakAvDu7ttTKjk01ulZw+SMWhKQH1Pb/3pPn5KAR8bjmS3layIdA8BNS/wbS+UUzIaPxDf6NGV8u5dVKnRbRsOKNd/olak4QD9zRynvCtE6yUZuIsTBTij4DEFi37KzXYMxjp0a0cyNS/RDhj/Krmcq/ThmmS9+UywrVhSFBSljCdm9jJO22r0g9RC14XCGgmBSC0/x+t/iMWHCbETC/HzB/HjKnIQycigL4POjW/w7/vd+XW9czjPb0TFQmJmMyMRVTd/2U+Qj3PD5Ommcfxj1mDPms+bsz5jQPV29qTNofES+DSUzV1IdnwGm79l2O7Ai4aGqtzPrAvX+zeU9Xt1dovw+UlW5gud600907qZ0UDx7ql4mJOSOYXbwiuzZ/k27jnykBANCk4BfF6hZY0uA6ABvl62/36wb4kNlokO9O0gtc/0i7wsAmjkIvp86PSXfPpFy4OCEXe6f0VJetEzb2MYfz6ulLanCiSRmendUTLtLIUgIhYXsT/Ob7DIU8WkEu6DfG3mvEgfloCQC3pplCMFjtZ8UOhrRaJ2s7Wqfdnc5pNUvGgOv8WvtrSqRYjpXkpXoJcNXDQKe+z7h5fuEOxzONUzpc9Jbxt/Lq8YzD2E9ORrXhDQQA/lWn47JRV8Nuf8R6OBy58XpobX47kBTZHkjhq49YH1Exspk9JDLGiTOj8vizF+SVN3v1ueJVyvUfVdumpn+fysAVQIpvmfEI187i/2fvTKCzrM48/iRAQggBREGlyii4r9OOVaud0850quNSF2zH6nTs1G1c2hnbTk+rdga1Z5zlWDtnFnXO1NbK9GhdQFFEwUpUMKgE2RQxhAQIJISE7CF75nnuez+IGCQh3/K+7/f7tf8mBk/Dd9+7/O99n/s8FjRmk6ZFkF9zxfFy0nGTyAOepnZfuS4o4bqxolnq6jvcz8K+00gExfUlXi30+xME//PEKyYJ/rvnFYQt/mPzc12Uuu2o7M67MwA5QQDb/mqn9/baLrh3TzJEW+SD4/het6CbCQj+zJuIHF+hMWfvLYw9hmPPz8Nbrc0+i72KsZsbR0wtkONnTJLPnnYYhaNSjJ362O2Np+aXy9oPd7m+OmoUt2YOwDzVrKgZgPNUy3h2AyYdCZLcWIe/9srj5PNnTHHvE3nnlXpsMbOgzOdfqXDFXfa3EMain/Xv7XH9AzvfUI8u9mREDtoojseyZqKmf6ZI/uLSGXLGKZzIpb5PBlc33/+oQZ54fqMr5Z2spF5ZwPmqt1Lxf5zKl4j2Fy5RfYHnt3duDRaefnliXpkLXLvsq39AOdA0sGlzi7zw6mZ3ChPnxf/jC/aAI/+cYXbUuI9FbaSq6lZpaethcKQBC/587pVKeXfVTmfGLSCWtX9IlKRq8TeSUQ7402hQXc0z/CQW8byjrt3lu7ZSwtM4ekwZ9r5xztyPXPlmTlsgYZIs8G+XLkyHTBpLkF8KWf1BvTypu/51GxqCKow55MMYBneo1qfq/zzVYcTPqTaqjuM5fhw7/rKgKUt+YdHTluL2S+ceKYXjiAtIJpZU5IXFlVK2qSnjUfMQLuxV3EcVjfLq0ir3Ku7Yo4tolGTu/po65e2VO+SNt2vcOLRFP5FpE4bERr+Gpm4MpPgEwN482oXaS3iWg7gvC37RQWH3oss3t7ijMYvkPuzQsWQOTAI7d3XIgt9vlpLSWhcMx+4f9j0FsIsPdjxtJ3InzJzkblUw9EaGxVeser9e3nynRl4u3ipV1W3OfFPOd9j8g+qdKBsA433VLSrO2AadhHJcmlibgNZ9WK9moMNd73J55fO5GnOwttPuotsd45IVO9z3YyjFCoOZcF2U7CSusbnL1XT4zBHjXeImOJiFX1xGzJXr6uXpF8qldE2du+I3btxoTNXwqVfZ4tydyl+SDgNgH8DOXr/CM90/tju1q1u2G1m5VgdOj0Upj5fcUbmxD1pLNpZ8acXanbLo9Sptz06MFHwqZsDtZkjllhY5YcZEV+2Rq2nDw5JebdnWKs+/UinPvlQhu7t63HE/c9dB80+q11L9S9JhAIz3VDdzCjC0EwF7LVCxtVk+KGvQyWmUS24DQ8Pu+Fst+Mef2aC7kU5X8pfdBwzFgNtudUN5o5x8/GRX5RGGOOa03ax87zMLNkn55uYg2RODbiRYxr9rVV1xMQD2QSwe4AKe7YEMQHALyyKUrd75tupWnZSaXGlTy1YGn862mnb51ZMfusIyiYkd4IDjzn+13PT1uzrk6Gnjyfl/ACyniVXlfG5hhaxcVycNTV3OgI9izI2U2aridPyidBkAY5XqBhUVcYbyYHQQWfKMxpYuVx2t2ldHs7zxk9idDEr1jjZ5+sVNsuqDOndywuIPB2UitR/Z+LNUwNzKGWQ3190nK9fulIVLtsrbK2tlw6Yml1LZaliw+I+YGtVfSYrf/WfCAHR7XcQzHuppwN687hZJW17Z7K7WBPnixVWPg4A6F/G/RZYs2y5jx47iCBIOeszZkXaNmm2LHZk5fQLxAJ7W9m4pq2iWt96tkUVvVLnqm+0dPS52yb1qo4mSwd2qpWnbaKbRACROAb6jmsBzHt6k5Iqm6DxUsaVVd7j10tLa5QrCWORttufTtuQidt3oNV38bRYazYQNI8CCAi1trRU5mjxxrEw7fFzWXsu1jYZV1LRXau/prt8C/JaqAWht63anI26DwsqfLLaprpPg6nwsDYB9MKtrTF6AgzQCeXlBjXurcrdsxQ43MC2TmQUtWXGYbDuCsyI1byyvltdLqt3pSB5VxSAJ5PsbOZZL4tQTJ7vCQdn0Sqm7t9dVhLSTkMWvb5Un5m+U0rV1zmzn5wc7fkg6P1EtT+cvTLcBMNZ4lzOJ5z0iO+AMgd1ftvu268saXOnho6ZlT4hFd3evlG9pkfmLNktVTSv1xCG5k6Mu+FbmeMu2FjnrzCkuSVC2ULm1VZ55aZM893KFlFc2SWdnr6sskSgvDUlns+r6dO7+M2UA7AO2qC7jmY/kNMCXbdUdcHtHrxqBTqmoapG1H+xyrn3ihHwpGh/vACYr7fv40x9JZVWL+2eC/iC5YyzHRbU3q8k2o33cMRPd7jeuNLd2u5O0l4u3uCx+lj67SeeVHlc+O2fPDSVICX+vWpHuX5qp5Oi/Ud2pmslzHxm26OXn5bj0m1bdzO7AWw6B8i3NMn1aoRxz9AQ5aeZEZwhitfg3dMhTC8rdvW3blVhGt/5++gMk/xSgp7dflumCaAWDvnTOtFgZ666uPvlwU6Pb5W/d3up2/tW1bS4Q0k48eKWWFsr9mpj+/p2BEwCjT4JKgVfy7JO3W7HgJbuKY5G5ZgI2bGxyVwgtiKelrVua9asFC44riHZRHDvtsKC/V1T5+aPZ+UOKx5YtlL0u3uawQ8a6dMFR7nM2F9hCbydnVp53Scl2efPtGtmgRqCrs9elQrbFn3GVNqzi36pM/OJMrgS/Vf1QdSbPP4mTlQRRzGPG57kdsU1alVWtYmN5+rTx8tnTDpMzTz1UpkwuULOQI0WFeZHKfW5BSMU6YS14dbMro8w7f0gHthOu2t4mxcurXUKuE2dGJ4TJTgdt0bdiY3a7wU7NLN24VULs6Oh184UFFx8ygfwiGWC1XwszQiYNQJ93PkvoA6nbuTgz4CN2LaLZds6mKYcVyOknT5bTTzxETjh2knu3aXfnLXd3WJ2/JUZa+k6NvLZ0m7M67FAgnRQV5cmqdfUyQU2zBduOKxglYQyJM+NvufntinB/Tr/U7GiT997fJe+uqZVtamL69A+s6qhd4RtfSDR/CHb/fdloAIxi1VzVLPpBegxBrs8w2NDYIctX7JCVq3e6Kz2HTy1wRuD0EyfLzGMmhHJxXfNBg5SU1jgjk0d1P0j3+JEg58bq9XXyu+fL5PpvnhzKv+fOXbtl7Ye7ZH1Zo3uv39HZ49712wlAv/4H4xwa5kqaUv6G1QAYFv1oeQE4f0qTCbB4Adsd2HF6S1u/OyK0O/TbqnWnsK5OigrHSKFq6qEFMu2IQpkxvUiOnJq5Ok7299tZt9tFJ2/c3OziGDj6h4xMmL5yoJW8nbKoUr721WMyGhrf090nldtaZHNVq9TsbHflxC1y3yL6LfbHxni/zw+SO4oiPSGi0699me3PIWiICtWDEtwKgDQaATvuT5TrtEXWSudavQGLAB41Ose9E5w8KV+mTilwwU+FhaNl/Lg8ZxAOsZ+rQbA/TzUWvPjswgpZv7HBJf6xJC1E/EOmSGQKXPxmlRwxtVDOPGVyWqLlbRxYciIbp7uabJHvkkb9ammwbeFv8D+zsmtWiteO+KMU35NlPOjXvqw3AMb9EqQIPoJ+kRnsWDDP5CcMW2Db2oNdRFlFk6tOaLuICWoKzAwcOjlfpk0d50zA+PF5Lm963pgcl4zHbhkUFoyRgoJRbrEeM4KsYVadbZFOtG++U+3MCos/hME8m6z63fOvVErhuNFy0vGTRry7tp26nS7YuGtt69Hve9y4s0I7tvjX1u+WHbXt7grs9trdzoT09/e5MTfGmflcVywMQk+NX/MyTlgMQKs/Afg1fSM8k5wdd462HjIg+Umf7sBrattkW02rvLe2zp0cuBTEOvnYaYAzB6rJh+TLlMljZZIaBiurOr5wjIy1egY5Qc4C8fEIo0dJMIGNtkpiucExpfoFm0wtQtne+c99aZMu/EHEP4s/hMUwGx+WN8jry7fLhKI8OerIwn0W9GBRt/5uCYXsZM2yV3Z390m3fp/jx5n9WXt7jzPbFt9ip3C2q69r2O2+b9Gf67+uYyVnz1G+fZ1YxGIfUe70ax4GYACWCOF21Vn0j3BPfG7hHuTPLF2o5R0wJSbAgZOhJeuxAiKWSMVOCFysge6einQiM6MwqSgwC/azqYeOlWXv1si8hZUu4I9XlxBGzNgueWu7Gt6x8vWLZ7h+ajt2C7qz4Dvb0dt7eFvcLX+FZRS0Ql52smU7+ESODmeKB5jvgVg8DsSGFZKhpD9hNwA2AuxKxFL6SHTZu+j3f9wAiF1N6neTnx1xJm4k2E7fviauH9rOJsdX9LOERrt1EiVqGcKMvZYqVhNQumbnx3b+A08ALOi2ty+4mhf8c3AqkPj+k+QMagYg8tzhp0MMwCAsUz2p+ib9JJrsnbByBp28bFK0QD43OXpn4CbLARNn4t8zU0CdcQg7djRvxnZXY+fHxkCO/58c/8NE7EBOYmz47zG4WcOTfo0LT98NYSP9WIJCQePoL3E1CPuaAyZAiC5mWffEywAMTrtf20JFGO+IbFHNpr8AAEBMmO3XNgzAEPiFqpQ+AwAAEafUr2mhI6wGoFd1o6qHvgMAABGlx69lvRiA4WHlEX9O/wEAgIjyc8lQqd+oGwDjHlUZfQgAACJGmV/DQkvYDUCH6mYJ0b1JAACAA9Dv164ODMDIKFY9Sn8CAICI8KhkuNRvXAyA8SNVNX0KAABCTrVfs0JPVAxAo+q79CsAAAg53/VrFgYgicxVzaNvAQBASJnn16pIkBuxxr1NtZM+BgAAIaPOr1GRIWoGoEZ1A/0MAABCxg1+jcIApJAXVA/T1wAAICT8j2p+1P7SuRFt7B+q1tPnAAAgw2xQ/SCKf/GoGoDdqmtUXfQ9AADIEN2qayUo94sBSCOrVXfS/wAAIEP8VLUyqn/53Ig3vpVYXEwfBACANLNE9UCUP0DUDYDlW/62BNcvAAAA0kGD6jpVHwYgs1jaRa4GAgBAuvgbVVXUP0RuTB6GXb94hD4JAAAp5jHV03H4ILkxeih2DWMNfRMAAFKEXT//Xlw+TJwMgF0NnCURKcIAAACRoll1paoVAxBOylXfkiA4EAAAIBkkAs43xOlD5cbwQS1Q/Yz+CgAASeJfVM/F7UPlxvRh3ataSJ8FAIARskiChD+xI64GwO5m/qWqgr4LAAAHyWYJUv32xfHD5cb4wVmiBgsK3E0fBgCAYdLh15D6uH7A3Jg/wFWqW+jHAAAwTG6VCOf5xwAEPK56iL4MAABD5GEJEv7EmtwseZjfV5XQpwEA4ADYWnFHNnzQbDEAXRIkcKikbwMAwH6o9GtFFwYgXuxQXSxkCgQAgE/S6NeIHdnygXOz7AFbHmeL6uymrwMAgKfbrw3rs+lD52bhg16iupH+DgAAnhv92pBV5Gbpw7abAffS5wEAsp57/ZqQdeRm8UO/RzWHvg8AkLXM8WtBVpKb5Q/fjn2KGQMAAFlHsWT56+BsNwCJ64HrGQsAAFnDesmi634YgP1jVz8uUdXSFAAAsafWz/lZfyUcAxBgVQPt/mcTTQEAEFua/FxPpVgMwMco9R2jjaYAAIgdbX7nX0pTYAAG4y3VZRKUgQQAgHjQqbpctYymwAB8Gq+prhKyBQIAxAGby7+u+j1NgQEYCi+prlH10hQAAJHF5vBvqV6kKTAAw+FZ1V+r+mgKAIDI0S/BPf+naAoMwMHwf6pbaAYAgMjxPdVjNAMGYCT8r+r7NAMAQGT4seq/aQYMQDL4d9XdNAMAQOj5merfaAYMQDK5HxMAABBq7lP9I82AAUiVCeB1AABA+LBj/9k0AwYgldjrgJuF2wEAAGHAov1vF479MQBpwgIDvy3kCQAAyCQ2B1+veoimwACkE7sieLWQMRAAIBPY3HutcNUPA5AhLFnQFULtAACAdGK5/WcJSX4wABnG0gZbhSmqCAIApJ5EVT/S+2IAQoEVELpAglrTAACQGmyOvVAo7IMBCBlWSvgrqlqaAgAg6dT6OZaSvhiAUFKqOle1nqYAAEga6/3cWkpTYADCTIXqPFUxTQEAMGKK/ZxaQVNgAKJAowTvqebQFAAAB80cP5c20hQYgCjRpbpOdS9NAQAwbO71c2gXTYEBiCr3SJA1kIRBAAAHptvPmffQFBiAOPC4cIwFAHAgEq9PH6cpMABxYokEgSyVNAUAwCeo9HPkEpoCAxBHEldZSmgKAIA9lAhXqDEAWcAO1ZeF6lUAAOLnwi/7uREwALHHolqtfrUFuuymOQAgC9nt58DbhUh/DEAWYoEuJLgAgGwjkTCNYD8MQFazSvVHqoU0BQBkAQv9nLeKpsAAgEiD6lLVfap+mgMAYki/n+Mu9XMeYADA06earfqakC8AAOJFo5/bZvu5DjAAMAgLVGep1tAUABAD1vg5bQFNgQGAA1MuwZ3YR2gKAIgwj/i5rJymwADA0LErMreqLlfV0RwAECHq/Nx1q3DVGQMAB8181RmqxTQFAESAxX7Omk9TYABg5FRLUCDjh0LCDAAIJ11+jrrQz1mAAYAkYVdoHlSdLeTLBoBwsd7PTQ8KV5kxAJAyVkuQRONhmgIAQsDDfk5aTVNgACD1WFDNbarLVDtpDgDIADv9HHSbEOiHAYC084IEwTbzaAoASCPz/NzzAk2BAYDMUaOapbpKCLwBgNRS7eeaWX7uAQwAhIC5qlNUvxSCcAAgufT7ueUUP9cABgBChuXbvkn1p6oymgMAkkCZn1NuEuqUYAAg9BRL8H7uX1U9NAcAHAQ9fg45w88pgAGAiNCh+onq86pSmgMAhkGpnzt+4ucSwABABFmlOkf1I1U7zQEAn0K7nyvO8XMHYAAg4vSqHlCdrHqS5gCAQXjSzxEP+DkDMAAQI7aorlF9UbWC5gAAPxd80c8NW2gODADEm2US5O3+jnCXFyBbqfFzwNl+TgAMAGQJdq/3MdXxqn9WddIkAFlBpx/zx/s5gLwhGADIUlpVd0nw7o8EHwDxZq4f63f5sQ8YAACpkCDF558IVb0A4sZqP7av8mMdAAMAn6BY9TnVdapymgMg0pT7sfw5IZkPYABgCPSp5qhOUt2o2kyTAEQKi+a/yY/hOX5MA2AAYMhYKtBHVSdIUPN7G00CEGq2q26XIMDvl0IqcMAAwAjpUj2smqn6O+HqIEDYqFX9wI/Rh/yYBcAAQNKw60P/4ScZSxdaR5MAZJRdEuTrn6H6hZC3HzAAkGIsX7ilCz1WdbeqniYBSCsNqtl+DFrFvjaaBDAAkE7sHvH9qukSvHfcSJMApBS7wve3qqNV96maaRLAAECmTwTsveOJEtwzLqFJAJLK26pvSBDc95/s+AEDAGHDrhpZprHzVOer5gnXjwBGMp6eU/2x6lzVM0KVPsAAQAR4SzXLnwrYDYLdNAnAkLCx8ogEd/ivVC2lSQADAFHE4gIsh4DFCVjQUi1NAjAotX6M2Fi5VVVGkwAGAOKAXRm0oKWjJHiXuVioQgbQ78fCN/zYuE+4XgtpYjRNAGmmW4J3mSa7wnSDBDXJp9E0kEVYxr5fS5Bpk+I8wAkAZB028f1UgiPPy1UvCkFOEF96fR+/3Pf5n7L4AycAwMQoMt/LjkGv9ycD02kaiAFb/E7/V6oqmgM4AQAYHJsg7T2ovR64SPWEBAmHAKJEq++7F/m+fB+LP3ACADA07A70y14FqotVV6suUY2jeSCEWEKsBarfqV4Srr4CBgBgxNhE+qxXoepSbwZsdzWW5oEMYsV3FvpF397vk6EPMAAAKaLNT7amItVl3gxcqMqjeSANWKndV3wftLiVFpoEMAAA6cUm3t96TVRd4Q3Bn6km0DyQRKzozqt+wbf0vE00CWAAAMKBTci/8bJ+bfUI/tzrD1U5NBEMA0vQs0r2xqFYausemgUwAADhxibqN7zuUh0hwSsCMwMXqCbTRDAIu1SL/IJvR/w1NAlgAACiTc2A0wG7+nq2BAGEZgjOEq7DZit202SFX/AtkO8doXolYAAAYj3pL/eywisWK2ClVs/3Okc1nmaKJXY3/23VMi/rA800C2AAALITWwAWeRmjVGcMMASmo2mmSLJ1wGJvWiOkmgbAAADsB1sg3vP6L/8zMwDneTPwBdWpEiQngvBguSLeV5X4xf4tbwAAAAMAMKKdZCL3QOKU4Dh/UnC6/2o6RrhtkGosOr/S7+bX+q+mjezuATAAAOk4Jdjg9fSAn1tiotP2MQX2/SSa7KBo2meRX+tF4h0ADABAqLCFqcRrIIdLUBDGNGPA96ajs3gc2nVNK5BjJXE3+a8DxTU8AAwAQKTZ4bV8P2PwqEGMgeUuOHSAohZzYO/k6weoZpAFfquQXAcAAwCQxbvgSq9Po2AfQzCYrFBSvgQ1EfKH+L3RKUF++84hft+2z+I+mKiEBxBy/l+AAQAUuRaStKAmewAAAABJRU5ErkJggg==;" vertex="1" parent="1">
          <mxGeometry x="140" y="459" width="82" height="82" as="geometry" />
        </mxCell>
        <mxCell id="pyMNxCjvLKhYikAlWu7p-8" style="edgeStyle=orthogonalEdgeStyle;rounded=0;orthogonalLoop=1;jettySize=auto;html=1;" edge="1" parent="1" source="pyMNxCjvLKhYikAlWu7p-7">
          <mxGeometry relative="1" as="geometry">
            <mxPoint x="397.5" y="260" as="targetPoint" />
          </mxGeometry>
        </mxCell>
        <mxCell id="pyMNxCjvLKhYikAlWu7p-9" value="&lt;div&gt;Generate&lt;/div&gt;New Version" style="edgeLabel;html=1;align=center;verticalAlign=middle;resizable=0;points=[];" vertex="1" connectable="0" parent="pyMNxCjvLKhYikAlWu7p-8">
          <mxGeometry x="0.2411" y="3" relative="1" as="geometry">
            <mxPoint as="offset" />
          </mxGeometry>
        </mxCell>
        <mxCell id="pyMNxCjvLKhYikAlWu7p-7" value="Source Code on GitHub" style="shape=image;verticalLabelPosition=bottom;labelBackgroundColor=default;verticalAlign=top;aspect=fixed;imageAspect=0;image=data:image/png,iVBORw0KGgoAAAANSUhEUgAAAgAAAAIACAMAAADDpiTIAAAAA3NCSVQICAjb4U/gAAAACXBIWXMAABApAAAQKQH1eOIPAAAAGXRFWHRTb2Z0d2FyZQB3d3cuaW5rc2NhcGUub3Jnm+48GgAAAwBQTFRF////AAAAAAAAAAAAAAAAAAAAAAAAAAAAAAAAAAAAAAAAAAAAAAAAAAAAAAAAAAAAAAAAAAAAAAAAAAAAAAAAAAAAAAAAAAAAAAAAAAAAAAAAAAAAAAAAAAAAAAAAAAAAAAAAAAAAAAAAAAAAAAAAAAAAAAAAAAAAAAAAAAAAAAAAAAAAAAAAAAAAAAAAAAAAAAAAAAAAAAAAAAAAAAAAAAAAAAAAAAAAAAAAAAAAAAAAAAAAAAAAAAAAAAAAAAAAAAAAAAAAAAAAAAAAAAAAAAAAAAAAAAAAAAAAAAAAAAAAAAAAAAAAAAAAAAAAAAAAAAAAAAAAAAAAAAAAAAAAAAAAAAAAAAAAAAAAAAAAAAAAAAAAAAAAAAAAAAAAAAAAAAAAAAAAAAAAAAAAAAAAAAAAAAAAAAAAAAAAAAAAAAAAAAAAAAAAAAAAAAAAAAAAAAAAAAAAAAAAAAAAAAAAAAAAAAAAAAAAAAAAAAAAAAAAAAAAAAAAAAAAAAAAAAAAAAAAAAAAAAAAAAAAAAAAAAAAAAAAAAAAAAAAAAAAAAAAAAAAAAAAAAAAAAAAAAAAAAAAAAAAAAAAAAAAAAAAAAAAAAAAAAAAAAAAAAAAAAAAAAAAAAAAAAAAAAAAAAAAAAAAAAAAAAAAAAAAAAAAAAAAAAAAAAAAAAAAAAAAAAAAAAAAAAAAAAAAAAAAAAAAAAAAAAAAAAAAAAAAAAAAAAAAAAAAAAAAAAAAAAAAAAAAAAAAAAAAAAAAAAAAAAAAAAAAAAAAAAAAAAAAAAAAAAAAAAAAAAAAAAAAAAAAAAAAAAAAAAAAAAAAAAAAAAAAAAAAAAAAAAAAAAAAAAAAAAAAAAAAAAAAAAAAAAAAAAAAAAAAAAAAAAAAAAAAAAAAAAAAAAAAAAAAAAAAAAAAAAAAAAAAAAAAAAAAAAAAAAAAAAAAAAAAAAAAAAAAAAAAAAAAAAAAAAAAAAAAAAAAAAAAAAAAAAAAAAAAAAAAAAAAAAAAAAAAAAAAAAAAAAAACyO34QAAAP90Uk5TAAECAwQFBgcICQoLDA0ODxAREhMUFRYXGBkaGxwdHh8gISIjJCUmJygpKissLS4vMDEyMzQ1Njc4OTo7PD0+P0BBQkNERUZHSElKS0xNTk9QUVJTVFVWV1hZWltcXV5fYGFiY2RlZmdoaWprbG1ub3BxcnN0dXZ3eHl6e3x9fn+AgYKDhIWGh4iJiouMjY6PkJGSk5SVlpeYmZqbnJ2en6ChoqOkpaanqKmqq6ytrq+wsbKztLW2t7i5uru8vb6/wMHCw8TFxsfIycrLzM3Oz9DR0tPU1dbX2Nna29zd3t/g4eLj5OXm5+jp6uvs7e7v8PHy8/T19vf4+fr7/P3+6wjZNQAAHSdJREFUGBntwQmAjeX+B/DvmX0Y+y6uJcWkst3rRqVCJColOSnRLkskxLWUErlFruUvtLi2CrnKUpIWomyVLEkkstwZhmEss5w53/+V69rmnDnv+z6/933PmefzATRN0zRN0zRN0yJXieSGTVrc1aFz194Dh40aN2X63IXLli2cO33KuFHDBvbu2qXDXS2aNEwuAS2iJFS9rm3XYZM/XLM7iyHJ2r3mw8nDura9rmoCtPBVpGGXUe9+sS2dFqRv++LdUV0aFoEWTkrd+MTYT3+nQr9/OvaJG0tBc7uKzXtO+jKVQlK/nNSzeUVorpTUbOjSI7TBkaVDmyVBc5NKHcZt8NFGvg3jOlSC5gJRdbvP3k1H7J7dvU4UNOckNhu69BgddWzp0GaJ0BxQ9pEFJ+gKJxY8UhaarZKfW51LF8ld/VwyNHtE3zT6F7rQL6NvioYmrEj7GWl0rbQZ7YtAE1Om2ydZdLmsT7qVgSYg5q5/ZTMsZP/rrhhoal0zJoVhJGXMNdCUKdljPcPO+h4loSkQffucTIalzDm3R0OzptYr+xnG9r9SC5pp8Y9+w7D3zaPx0MwoPvAAI8KBgcWhGVV5dAYjRsboytCMuGZ6NiNK9vRroIXqliWMQEtugRaC6PbrGKHWtY+GFlxitx2MYDu6JUILrMiQVEa41CFFoOUttkcKC4CUHrHQLuXx7mABscPrgXaRZutZgKxvBu189ZaygFlaD9pZ1Wb5WeD4Z1WDdlrpsVkskLLGloZWePBRFlhHBxdGweZ5/AALtAOPe1CAXb2KBd6qq1FQJY7IpsbsEYkokFrspPaHnS1Q8JSdRe1/ZpVFweJ57DC18xx+zIMCJHkFtYusSEZBkfBSFrVLZL2UgAKh2XZqedreDJGv+D+pBfTP4ohwN+6mFsTuGxHJYl70UQvK92IMIlb1b6jl65vqiFAPHqMWgmMPIhIVnUUtRLOKIuI03kUtZLsaI7JED/VRM8A3NBoRpMrX1Az6ugoihjedmmHpXkSGuKnUTJkahwhQbhU1k74ui7BXfw810/bUQ5jrcJKaBSfaI5x5hlOzxv+iB2GryIfULJtfGGGq+mZqCmysirDU9BA1JQ42QRjqnkNNkewnEG5ip1BTaEIMwkrpFdSUWl4CYaTST9QU21QeYaPGb9SU21EVYeLaf1MTsDcZYeG6w9REHGyAMND8ODUhR5vA9dpmUhNz8na43EM+aoKyO8DVevipicp9HC42mJq4fnCt16jZ4GW4U9RUaraY4IELed6hZpM34EKvU7PNKLjO89RsNBAu04uarZ6Cq3T2U7OV/wG4yN0+ajbLuQOu0TyTmu1O3QKXuO44NQdkNIQrXHOYmiPSroYLXH6AmkP2V4fjLttFzTG/VoTDSm2h5qAtpeCo+NXUHLU6Hk56h5rD3oGD+lBzXB84pqWPmuN8LeGQK49Qc4EjV8IRxbdRc4VtxeGA6E+oucQn0bDfaGquMRq260LNRbrAZo0yqblIZiPYqtIBaq5yoBJslLiBmstsSIR93qPmOu/BNt2ouVA32KT2SWoudLI2bBG/kZorbYyHHcZSc6mxsEErPzWX8reCuLIpVCXlq8nP9hs5Zd7nGw+x4Dn6+bTxIwb27NJ1wpdpVCWlLKQtoSL3F8c5V3SZutXPgiJr3cTOyR6cU/GfVGQJhD1NRX7z4CIl24z4jpFv95gb4nGxhlTlaYi6NpOKvIK81Hx+GyPZjlF/QZ62U5HMayEoYTNVqYsA6o3azcj08/C6COQFqrI5AXImUpWfEJjn+vFpjDS+D25GEFdQmYkQcweVeR5BJT7yPSPJwRGVEdwaKnMHhJQ/SGVqIj/Xv5fNCLGhSwLy8zSVOVgeMj6mMt8hBBWHHWD4y57dGCEo56MyH0NER6rTHyGJ6/gNw9uBFyogNJ9QnY4QUCKF6lRBqBpMy2TYWt0xFqHqTHVSSkC9qVRnGwwoPXAPw1HmtAYwoJyf6kyFcjf6qc4EGBJ9zwqGm9zpVWDMD1THfyMUi9tChdrCqObfMqx8XAdGvUqFtsRBrcFUyFcMxrX5nmFjfVMYdytVGgylrjhFhb6FGZ72WxkWdnTwwISEU1To1BVQ6TOqNBzmRHXaSddL7RkLc5ZSpc+gUCcqdTPMinliD13t+ItFYFZfKtUJypQ6SJVOxMG8+F5HqEzuiUOHTuRSmZw3ysO8a6nUwVJQ5W0q9SksKT+HpmTv+Xb+xMG9n3yo/R3Nr6+fXK18sTj8Ia5Y+WrJ9a9vfkf7h57sPXji/G/3ZNOUj2rCkhQq9TYUuYlqvQKL2uxhyHL2rl0wacijreqU9SBknrJ1Wj06ZNKCtXtzGLJ97WDREqp1E5SI30a1HoBVSf/IZb7SV015ulnFKFgSVbHZ01NWpTNf/v8rBqtGUq1t8VDheSp2DaxruJGBZax5u0/LSlCoUss+b6/JYGCbG8M6LxV7HgpUPEG1suOgQMyAk7xU7sbp/VtX9UCEp2rr/tM35vJSpwbHQoFkKnaiAqybQsU2QY3LP+MFcta82qY4xBVv8+qaHF7g8yuhRPQpKjYZliX7qNhsqNL5EP8ra+XLLZJgm6QWL6/M4n+lPQxV1lExXy1YtYCqDYQyZWaSPLF86M0JsF3CzUOXnyA5qwyUeZOqzYdF11O51lCo5YDGsXBMbOMBLaFQTyrXCNasonLVoAXQlMqtgCVtqV4haAEkU702sCD6Jyp3HFogJane5iiY9wTV2wUtEE8O1XsYphXaT/XWQgtoP9X7PQFmDaKARdAC+oEC+sGk0kcp4B1oAS2lgMMlYM4/KOHv0AKaQQl/hynVsyihL7SARlPCqcowYxZFPAUtoGEU8RZMqOajiJ7QAhpOEdmVYNx4yngGWkAjKONVGFbqBGX0gxbQKMo4WgxGDaWQAdACeo1C+sOgxFQKGQwtoNcpZF8cjOlKKS9AC2gcpXSBIVG/UMpwaAFNpJTNHhjRjmJegxbQVIppDSO+pZj3oAW0hGK+hAE3Us430ALaRDl/Qeg+opwD0AI6SjlzELJkP+X446EFUJSCfJcjVG9R0hXQAriakiYiRBWyKOlWaAG0oqSTpRGakRT1GLQAnqCo5xGS2FSKehlaACMoam80QtGWspZBC2AZZd2GUHxEWceioeUp+hhlzUEIyuVQWF1oeapLYZklkb++lNYNWp66UVoP5G8Lpc2ElqeZlLYB+WpIcbug5WkXxV2L/EyivArQ8lCB8l5HPhLSKa8DtDx0oLyDsQiuI20wB1oe5tAG9yC4ZbTBySRol0g6SRssRFB/yqUdHoB2iQdoh5zyCGYIbbEI2iUW0Rb9EIRnJ22RXRLaRUpm0xZbEcRNtMnj0C7yOG3yVwT2Fm2yHNpFltMmExFQVCpt8iW0i3xJm+xFQI1pkx2loF2k9E7apAECGUl7HK4J7RK1jtAewxDIFtoiuym0PDTPoS2+RwDVaY9HoeWpK+1RGXnrRVuMghbA67RFd+RtOe0w3wMtgKhFtMNS5KlYNm3wQyFoASVtoQ2yiiAvXtrg1FXQgqibRRvci7zMog2ehhZUf9pgOvIQc5jyPvVACyrqK8pLi8albqa8tIrQ8lElnfKa4FJjKO9eaPl6kPJew6V+obh/QgvB+xS3HZdIprhdRaGFoMReiquFi/WhuBbQQnInxfXBxeZT2mJoIVpOafNxsRQKy0mGFqI6uRSWgovUoLSJ0EL2FqXVwIU6U1h6aWghK59BYZ1xoakU1heaAYMpbCoutJWydsZBMyBxD2VtxQVK+imrHTRDHqAsf0mcrw1lbYBmjGcTZbXB+UZS1oPQDHqUskbifCspan8sNIMSUilqJc4Td4qiBkMz7AWKOhWHcxpR1KnS0Awrl0lRjXBOX4qaCs2EtymqL875F0XVhmbCNRT1L5yTSkmfQjNlGSWl4n9qUFQbaKbcQVE1cFZbSjocC82U2MOU1BZnDaSkd6CZ9A4lDcRZMyipNTSTWlPSDJy1noLS46CZFJdOQevxX57jFDQDmmkzKOi4B2dUoaS7oJl2FyVVwRmtKOhYAjTTEo5RUCuc8SwFzYZmwWwKehZnvElBXmgWeCnoTZyxmoIqQ7OgMgWtxhlHKOd3aJb8TjlH8IcKFPQ+NEvep6AKOK0pBfWGZklvCmqK03pQUENoljSkoB44bSLlnIqFZknsKcqZiNO+oJyV0CxaSTlf4LTdlDMKmkWjKGc3TsuinHbQLGpHOVn4j1IUdC00i+pQUCkAtSmoCDSLilJQbQDNKecgNMvSKKc5gE6UswaaZRsopxOAfpTzHjTL5lFOPwBjKGcENMtepZwxAGZTzmPQLOtGObMBfEE5zaBZdjvlfAFgG+VUg2ZZMuVsA5BOOYWhWVaSctKBRMrxe6BZFk9BiahGOSehKZBDOdXQmHIOQlMgnXIaox3l/AZNgX2U0w7dKWcrNAV+ppzuGEQ566Ap8B3lDMJLlPMVNAVWUs5LeJVylkBT4GPKeRXjKWceNAXmUc54TKWcedAUmEc5UzGDchZBU2AR5czAXMpZDk2B5ZQzFwspZxU0BVZRzkIso5wN0BTYQDnLsIJytkBTYAvlrMBaytkJTYGdlLMWP1LOPmgK7KOcH7Gdcg5DUyCNcrZjD+WchKbACcrZg1TKyYWmQC7lpOIYBcVBsyyOgo4hm4KKQrOsKAVlI5eCykGzrBwF5eI4BV0DzbKrKSgDBymoBTTLbqWgVOymoC7QLOtMQb9hGwUNhGbZAAraiu8paBw0y8ZR0AasoqB50CybS0Er8RkFrYJm2dcUtBQLKehXaJb9SkELMIeCTkGz7BQFzcY0SioBzaLilPQmJlHSVdAsuoqSxmMMJTWHZlEzShqF4ZTUGZpFD1HS8xhESa9As2gkJfVHH0paDM2iRZTUA10p6XdoFv1GSY+gM0UVh2ZJUYry4j6KuhGaJY0p6i7cQVHdoFnyJEXdimYUNQmaJRMo6npcS1FfQ7PkK4q6EiUoKh2aJWkUVQjIoKg/QbPgMoo6BGArRbWGZkFLivoewCcU9TdoFvSjqI8ATKWopdAs+IiiJgIYSlEn46GZFnOMogYA6EJZTaGZ1piyHgDQjLJGQDNtCGU1AXAFZa2FZtpXlFUNQCJl5ZaAZlLhLIryx+E/UimrHTSTbqOsAzhtA2VNgmbSa5S1FqctoKxfoJn0A2V9gNPGUVhVaKaU8VPWWJzWj8Ieg2ZKBwp7Fqd1oLDF0EyZSWH34bTGFJZTBpoJhY5TWCOcVpnSukMz4X5Kq4TTon0UthqaCQspzBeNP2yjtGrQDCuVTWHbcMZsShsEzbAnKW02zuhHaVuhGfYVpfXDGc0orh40gyr7Ka0ZzihBca9BM6g/xZXAf+2itL1R0Iz5gdJ24awPKO42aIZcS3Ef4KxBFLcUmiHvUNwgnHU75V0NzYAKWRR3O84qT3lvQTNgBOWVx//sp7jMstBCVvgwxe3HOYso7wVoIetJeYtwzouUl5oALUTROynvRZxzN23wGLQQ3Usb3I1zqtAGWzzQQvMNbVAF50mjDVpDC8kNtEEazreMNtgcDS0UX9MGy3C+UbRDV2ghaE87jML5vLRDSlFo+YrfRTt4cb4atMUr0PL1HG1RAxfYTTtkVoWWj7LHaIfduNBk2uI9aPmYTFtMxoXuoT0aQQvqGh9tcTcuVDSHtvgmClowy2iLnKK4yAraox+0IB6hPVbgYoNoj6x60AKqeZz2+Bsu1oA22ZoILYC472iT+riYJ5U2+T9oAYyhTVI8uMRM2qUNtDzd5qdNZuBSD9IuKeWg5aFcCu3yAC5V1k+7LIZ2Kc8ntIu/DPKwgbYZAe0SI2ibdcjLy7RPV2gX6UX7DEdebqR9fHdAu0BHP+1zA/ISc5T2OdEQ2nlaZtM+6THI03zaKPVyaP/T8DhtNA95e4J2+qU0tP+qdYh2egx5q0JbrSsF7Q81dtNWlRHAVtpqa2Vo//HnVNpqMwIZSnvtqQUNLTJor78hkKp+2utQQxR4HbNpL/+fENBXtFnGrSjg+vhps+UI7BHaLes+FGSeV2m7hxBYkZO0W+6QKBRYRefSdhmFEcQs2u/Tsiig6u+g/aYhmBZ0wP6bUCB1z6QDmiKYqH10gG+QBwVOsbl0wm4PghpFR3xSBgXMn3fSEcMRXG06Y19LFCTRfbPojCuRj/V0yPsVUGA0+oEOWY38PE2nHO0ehQKh5BQ/ndIV+SmdTcesrY/I5+lykI7JLI58fUjn+MYWQYSrvYIOmoP83UMn7X0sBhGs3LgcOqk18heXRkdtv9+DCFVi5Ak66t8xCMFEOmzjnYhESYPT6bDRCEVDOu7bZog0Cc+k0nF1EJKNdN7nzRFJCvX4nc5bg9B0pGk5mVTlh06xiBDlX06jG7RDaGJ20bDto1v/tVbFwvBUavrU60t2+KnA3v7FEQGufjuLrrA9CiHqQYMm18SFqgzcTAUyxlZFmGv+Md3icYQqMZWG/B15qPvqXlrn+/i+eIStis9to2sciEfIhtCIw8hbVNPZflqXNqEBwlHcvYt9dJHnELqSGTTgFAK6bh1V+PGZMggz9cYdoqscLQYDxtCIaxFQ1KMpVMG3ol8thIvYpq/vpNuMghGVsmnAmigEVuz1HKqxffTNMXC9Eh3fTaf7ZFWAIdNoRG8Ec9UyqnL4g343FoJrVWj7yoocutKbMOYqPw04XhVB3b2L6uR8N6lzTQ9cJuH6PnN207Vya8KgD2nEJwiu6FyqdeSTYa1KwiWueHDCumy62nwY1YiGTI5CcL2zqdz26d0blYaToqveNnTJIbrfX2HYChoyNw7BNf6dIo5umDPi0ZsqeWCr+Fqte41b8nM2w8OXMK41jVmWhODKrKSgU1s+HNOt5eUxEJZUt91zUz7fncuw0grGeX6kMWtLI7hCyyguZ20xCGpygOFoI8x4kAbtaYLgEhZR2slGEPWEn2HoAZgR8xsNyh1ZCEHFzqMsXxsIe9zPsPNbDEx5kobtezgKwUS/T1GPQNyjfoabJ2FO9CYat/EGBBO/ioIGwQa9GGY2RcOkFjQhpy+CKbOLYibAFu8xvLSAaYtpxrwiCKL2UQqZGwVbJP3EcLIY5iXn0Ixt1RDEbT6K2F8UNql9nOEjJxkWjKcpe2ogiKEU8QBs8yDDx3hYUeoITdlXC4HFfE8BX8FGixkujpSCJc/QnH9fjcDqZFO5nGtgoyuyGCaegTWxv9Cc/ZchsBeo3FjYaiTDwy+xsKgtTfquEAKK3UjF/l0Utiq8l2GhLSz7nCbN9yCgBj6q1Qk268hw8Dmsq5tLk0YgsNep1Newm2cb3S+3LhR4i2a1Q0BJe6jS3bBdd7rfW1ChfAZNOlQBAd1JhQ7GwnZJ6XS7jPJQYhDN+hiBzac64+CAMXS7QVAjYTfN6oaALjtGZerDAdVz6W67E6DI/TTrRE0E1J2qbIIjFtPd7ocqnm9o1toYBDSHivSFIx6mq33jgTK1M2nWMARUeDOV8JWHI8rm0sUya0Oh/jTL91cEVOMIVVgMh6ymi/WHSlGradb2wgiotZ8KtIdDBtC9VkdBqStP0qxRCGworctNgkNq07VOXgnFetGsk5chIM9MWrYFjvmVbtULqnm+pFlTEFj0TFo1HY6ZTpf60gPlqmXQpJwrEVj0TFr0NBzTk+6UUQ0CutKsOQgieiataQzHNKI7dYWIT2mSvwGCiJ5JK3yF4JjEHLrRp5BROZ0mfYpgokf4ad4mOOgHulB6ZQh5mGY1RVCtD9O0d+CgN+lCD0PMIpq0EsFVXUezesBB3eg+iyCnQhpNaoDg4ifRpOvgoNZ0nbQKENSRJk1Hfm7fRjPWJcJB19J1OkLUBzQnqzzyE9v7CA069kY9OKok3eYDyCqTSnOGIX+lJ/lowPrHk+C0E3SX1DIQdg/NSYlHCK56I4Oh2Tq2AVzgZ7rLPRA3luZ0RkiKdt/C/KTM6nIZ3OEzuspYyItZQVO+R6humrjZzwCOfTenX10PXGMa3WRFDGxQbh9NuQGhK33PP9buzeRZuRkpu76b8/LDN5SHy4yji+wrB1s0yqIZ78KoItX+0rjulZVKJsC1RtE9shrBJk/RjOzyiDzD6B5PwTbTaMZQRJ6BdI1psE/CBpqwLwYR5xm6xYYE2KjKIZrQHhHnKbrEoSqw1a25NG5LLCJNF7pD7q2w2UCa0A+R5n66w0DYzTOfxh2vjAjjpSvM98B2RbbRuHmIMF66wbYicEDyMRp3GyKLly5wLBmOaEfjdpZARPHSBdrBIa/QuM9iEEm8dN4rcEr0Mhr3BiKJl45bFg3HFPuexj2NCOKl074vBgeV20HDfLchcnjpsB3l4KjqB2jYsVsQMbx01oHqcFiddBqW1RGRwktHpdeB45qcomH+5xAhvHTSqSZwgTt9NG5iFCKClw7y3QlXeJgmLCyNSOClgx6GS/SnCSl3IwJ46Zz+cI3XaMbMEgh7XjrmNbiHZxrN2N8a4c5Lp0zzwEViFtKUxfUQ3rx0yMIYuEriSprin1ML4cxLZ6xMhMsU/5Hm+KZdjvDlpSN+LA7XqfArTfIvf7AQwpSXTvi1Alyoxn6adnRKI4QlLx2wrwZcqfpOWrB/Ts+6UQg3XtpvZzW4VIXNtCZ9yctdbiiHUJW+5empjeEoL223qQJcq+QaKnDsu/eHd7m+LAJLSm7x2OhPD/A/7oGjvLTbtyXhYknLqcyxnd998eH08cP7P+lt1bRlm3s6dHqka89nh7yx+McjPKcdHOWlzT5LgqvFL6C92sNRXtprfjxcLmY6bXUfHOWlrd6Jhut5xtNOXjjKSzu97kE4eIk26ghHeWmjoQgTfWifB+AoL23j74mw8YiPdukER3lpl5xOCCP3ZtEmD8FRXtok8y6ElZYnaI8ucJSX9si4BWGm8RHa4hE4yktbHPoLws5V22mHR+EoL+2w5QqEoWILaYPH4SgvbfBBEsKSZ5if4p6Eo7wUlzvIg3B151FK6wpHeSntSCuEsZo/UVg3OMpLYZtqIKwV+RdldYejvJQ1NwlhzjM4l5J6wlFeSsodgAhw+xEK6gVHeSnocEtEhBqbKKc3HOWlnB+rI0IUnkMxfeAoL8W8XxiR47lcCukLR3kpxNcPEeXWNMroB0d5KSPtVkSYqiso4jk4yksRX1VFxInqfZICBsBRXgo42cuDSHTlaqr3NzjKS/VWXYEIFd0/k6oNhqO8VO1U3yhErqvWUbEhcJSXiq2phYgWMzibSj0PR3mpVOaAaES6Oj9QpWFwlJcqra+NAiD2xRyq8xIc5aU62UNiUDA02ExlXoajvFTm+zooMOJf8VGRkXCUl4rkDItFQXLdNqrxdzjKSzU21UcBk/j8CarwGhzlpQpHB8Sh4Kn4Ti6tGwNHeWmd742yKJjqfUHLxsJRXlq29GoUXHf9TIvGw1FeWrS1FQq02F5ptGQiHOWlJQe7xaCgKzEmmxZMgqO8tCDr1WLQgBrzad5kOMpL8+ZVh3ZGk/U0ayoc5aVZ626A9j+eh/bSnLfhKC/N+b2TB9r5Cg3NoBnT4CgvzcgYkgjtYiUGpdC46XCUl8alDCoBLS8JT+2gUTPhKC+N2tE1AVog0fdtoDGz4agONGZ9+yhoQTVfRiMmw1GtaMTSZtDyV/99H0P2AhxVlyHzvVsXWmgun3SKIXocjirDEJ2cUA1a6MoOP8yQ1ISzfmYo0oaVhmZMUp/fmb+f4LDRzN/uXoWhGRd73xIf8zEEDmvIfOQsbBcDzaQK/bYwmH2F4bQFDGbTs+WgWfLnCWkM6CE47qpsBnJoXH1o1sW1W5jDPI2DC3RhnnI+uicOmiLl+vzIS82JghsM46U2PlMWmlL1/3GQF8jsFwV36JTOCxwcWw+aerFtF2TzrIx5V8E1/jQznWdlL2gbC01ImTu7jZz50YwJL90eD1eJbfHi+BkfzRzZ7c4y0DRN0zRN0zRNc7H/B5My2wke0lCHAAAAAElFTkSuQmCC;" vertex="1" parent="1">
          <mxGeometry x="340" y="40" width="115" height="115" as="geometry" />
        </mxCell>
        <mxCell id="pyMNxCjvLKhYikAlWu7p-11" style="edgeStyle=orthogonalEdgeStyle;rounded=0;orthogonalLoop=1;jettySize=auto;html=1;entryX=0.5;entryY=0;entryDx=0;entryDy=0;" edge="1" parent="1" source="pyMNxCjvLKhYikAlWu7p-10" target="pyMNxCjvLKhYikAlWu7p-1">
          <mxGeometry relative="1" as="geometry" />
        </mxCell>
        <mxCell id="pyMNxCjvLKhYikAlWu7p-12" value="Run deployment&lt;div&gt;Workflow&lt;/div&gt;" style="edgeLabel;html=1;align=center;verticalAlign=middle;resizable=0;points=[];" vertex="1" connectable="0" parent="pyMNxCjvLKhYikAlWu7p-11">
          <mxGeometry x="-0.1051" y="1" relative="1" as="geometry">
            <mxPoint as="offset" />
          </mxGeometry>
        </mxCell>
        <mxCell id="pyMNxCjvLKhYikAlWu7p-10" value="" style="shape=image;verticalLabelPosition=bottom;labelBackgroundColor=default;verticalAlign=top;aspect=fixed;imageAspect=0;image=data:image/png,iVBORw0KGgoAAAANSUhEUgAAA2sAAAHrCAIAAADe+JI2AAAACXBIWXMAAAsTAAALEwEAmpwYAAAgAElEQVR4nOzd2XPk15Uf+HPuvb8lNyTWAlD7zlWkRFIiZW29WJpuddvT7e6wZ8bhB497HHbb4fk/5nkmHOHwPM14Ihxjhx4kj9Rt2VZLapESJbVIqijWvlcBhT3333LvmYdEZf6AKpIAWcDvl6jvRwyKSBaAUwUk8+Dce87hU6dOEQAAAADAjqm8AwAAAACAEYMMEgAAAAB2BxkkAAAAAOwOMkgAAAAA2B1kkAAAAACwO8ggAQAAAGB3kEECAAAAwO4ggwQAAACA3UEGCQAAAAC7gwwSAAAAAHYHGSQAAAAA7A4ySAAAAADYHWSQAAAAALA7yCABAAAAYHeQQQIAAADA7iCDBAAAAIDdQQYJAAAAALuDDBIAAAAAdgcZJAAAAADsDjJIAAAAANgdZJAAAAAAsDvIIAEAAABgd5BBAgAAAMDuIIMEAAAAgN1BBgkAAAAAu4MMEgAAAAB2BxkkAAAAAOwOMkgAAAAA2B1kkAAAAACwO8ggAQAAAGB3kEECAAAAwO4ggwQAAACA3TF5BwAAMOKYWRlWhlgxKyEiVsxMxMSKRJhIxIkIkWMSESFx4lJxKYnkHT0AwCeBDBIA4OMwEylWRpfGdXlKh3XlVZRfUX5VeSXllZVXZq/EypDSrAyzJqWJNStDJOSsiO3/XWxKYsWlknRd0un/JUnbxm0XtV20kXaWbW9DbErkkF8CQGEhgwQA2E55JV2ZMeVpU57W5SlTntaVaR2MKy8kZfoVR9Z6s+IojkRkM9t7mPOJEJGQ9NNPouH/EzERMTMxE6vNCqVLnbXkUnGpS3u2u2o7K2l72XZXbGclbS+l7WVJu/v6pwAA8OGQQQLA046V0WFdhRPe2GGvftyrHzOlSRVUdVBTJhBxtHkGLSQiJNTP+VK7sw//sJC4tZ74SHWRWSlSvqJAB1WvMsP9/JKVTSPXa9ikZTsryfqdeOOWbd1Pu2u2u06ywxgAAJ4wPnXqVN4xAADsMybt67AeTJz0J856E8dNdc5UppU2/cxOyJF7mDXmj1kpYmZS/fKls7HtrKTNhWjjVrx8KVm/aaOGpFHecQLAUwQZJAA8NZhN5VAwfd6fPONPnDK1I8oLlPKISJwVcZ88X2Rm4sE/Z/8FEW35sMOKpHyKa47MrFhpInHOuqSbNu4kazej1avR8gdpZxkXKAFgryGDBIADTvkVr348mD4Xzn7Gqx/Vfo2NLzYV1z8C3kGy1U8Q++3Vm48M/50462xMNiax4hyJIxJxjsiRc0QkzMyalep3Z7NSRJqNr7RH/VYb2hbIw+PyHSWCTESsNSvj0thFjXjjTm/xvXjlcrJxy8WdnfwRAQDsFjJIADiQWJXGw6nzpcOv+JOnTOWQ8sviUnLu4zIzfvg/ZlbELM66NBYbi43EJrbXcFFD0q5Lui7pStpzNhJrSRJx/WE9/R5qIRERR0T9j0MPP6YQMytSRmnDJmATKq+sTKi8MvtjOqiy8VkHygSsPVZ68+Ns5pT0USlvP9NVmpV2cTttPYjXrnXu/iJevWq768U4kQeAAwIZJAAcJKz8Snjo+dLhV4OZZ73qIWIWJyIfN3mRFbNiZucSsqmzie2tu85K2l21vaaNW2S7Lmq7pEvkhu/V/5BM9Pgj7EfPsPtvDx6QzEcY0MorsVdWfll5JR2O6/KkLk2ZsM7aI+0pZWQzp3T0EVgxa1ZMIklzIVq+2Ln783j5Axu1Puq9AAB2BhkkABwEbILSoRfD+ZfDuZdMeYq1J84+PKd+3K9n1Z/7LeLEWRttpO1l11lJuquuu2Y7a2IjcZbIicjm5B3ibbnenhmUMIU3R1FqNoEpTajSpC5N6vKkqRzSQY2VZlYiQmLlw1NkVpqVcTZOW0u9xfd6C7+KFt93Fp03APDJIYMEgFHGyhs7UjryWuno6/7YvPZCZxNxH9JD/fBgmonSqCVRI22vxK37tnnf9jYkjVwa95NFZtUf5bjvv58P019sIyROiJT22YQ6qJuxeW9s3pSmVFBXQWV4dP74bJJZMWtPkijeuNu+/Wbv3i+T5l203QDAJ4AMEgBGkvar/syz1ZNf8WeeNaUJsamIfWwyNCg32rSX9hq2uRCvXU/bD1zUdElns0WGOTv8u+hEiIkGCaVXVuGYqcz6E8e96rwOx5QJP6owydyvSqad1ejBb9q3/jpa+sDFON0GgF1ABgkAI0ZXZqqnvlY68nm/foyV+tDTamZmQ2Jt0klbi8n67aRxN20tiu31k8XNjTKjr7/VhkSImU1oqrPe2BGvfsxUZ5UXMpsPuwbKSrPS4ly8fqtz52edmz9K20v7Hz8AjCJkkAAwKtifOFk5+dXS0S945SkS51z6uF+lWCkSkqQdbdyJV6/Ha9dc3CaXEBErfbDPbJmpn0+z8jmoBpOn/PFTZuyI9ivE9HDY0HZKGWKVdlbat37SufXX8dqN/Y4bAEYNMkgAKDrWXjB1vnrmd8O5z5hgzNlEHk2DNu84KtdrJK3FaOVSsn7b9jbIJay0EBXpUuP+ECZyzrLydDjuTxz3Js76tTkV1kjcY+9KMiulvbS30V14t33tv0bLl+SxOToAADJIACgy1l4491L19NfD2eeUCZxNHy2h9bezuDRKmou9pffTjZtpZ5WcJaVH6Wrj3ulfmnSWlDHlKTN+PDz0gleZYRPQ5iaerVgp7bm013vwfuvyX/YW30MeCQCPQgYJAEXErPxDL449881w9gWlPOeSx9TMlBFyttdMVq5EyxeTxl2xMbEiVrnEPALEkTjWvlc/Fkyd96fO6LBGpB6TIzIr7Tmb9BbebV7+Xm/xwseMnwSApwwySAAoFmblzzw7dv73wtmXlQmcjR/9Fay02DRp3I2WPohXrti4SeKIdR7xjiZnSSnt17zJs+GhZ72xo6y1uMc0s/frkd377zSv/EW09AFG/wBAHzJIACgQf/LM2LN/WJr/nPJCZ7fXHfsH1jZux+s3e/ffSRp3JI2e1muOn97mRUltQlM/Fsy+FEye1F5JHjnaZmbWno273fu/bH7wbfTZAAAhgwSAgtCV6dr5P6ie+or2a84m289MWTGrtNeIVy5GixfS1oKg6PgEiWVWpnY4nH3Bnzqvg9pjtiayUtqzvUbr+l81L3/XdlZyihUACgEZJADkjE1QPfVb1fPf9GuzYtNHCmCKlE67q9HCe73FC7a3TiTIHfeEWCLWpYlw9sXg0GdMuU7OPfrlYG3i5mLz4nfaN34oKVYjAjylkEECQG6YVTj/2bHn/m4wdZ5Itg0G7+eOtrPWfXAhWnjX9taIFHqr95wIkVPhRGn+5fDQC7o0/mjLNitDRL2l3zR+8+1o8d3HNHQDwEGHDBIA8mGqs/UX/qRy/IusjLNpdpM1syLWNtroLvy6t/CO666RUrjpuL+EnFPlydLcZ8NDL+jSmDi79VyblTZik/bNv954/1tp+0FukQJAHvTExETeMQDA04W1Vz31tanX/mlp9kUn23cSsjZp3Onc/UX76vfjpffFRcQa6eO+Y2IlaTdZvRavXROXmvKk8sJsEiniiDmcOhce/qxLOknjLib+ADw9UIMEgH3l1Y+Nf+bvlw6/QkTbc0elxdl4+XL7zltp834/ickpTMgQIRJvbL509I1g6mz/y5T996wMkXTuvL3x6/83adzNK0wA2E+oQQLAPlEmqJ79+uRrfxZMnhXZciTKrFmpeONu6+r3O7ffclGDWOPKY1EwE7OLGtHyJdte1mFdh3UmNbx4II6IgokTpcOvkdhk4zaJ/agPCACjDxkkAOwHb+zI5Gt/Vjv/+8oEWzagMLM2trvWvv7D1vUf2NYiMUqPhcSKRGx7KVq+6KKWqUwpv5K9vSrOKr9cnv+sN34sXr3h4laOwQLAXkMGCQB7jLly8itTn/9nwfQ5sXF2SHj/PLS3+F7j0nfj1WuKiRgdMwXGTKxYXLxxJ1q9xto35WnWZvg1FRFx/vjx0vwrNtpINu7kGi4A7CFkkACwh3RYH3/5f6q/8CfKL4tNBo/3xwomrcXW1b/s3XlbbI8VRjyODFZKbC9euWK7y6Y8bUpjIluKkTqslg+/ooJ6vHZNLGZGAhxAyCABYK8EM89NvfHnlaOvbVtwwso4F3fuvt269JdJ8x46ZkYTk4htP4hWrhCRV53dWox0xBzOPBPOPJc07mKBDcDBgwwSAPYAq+rZb0x9/s+86qyz8ZZ/oUzSuNO8+L3e/V+JJIyOmdHFTKzERfHq9aRx35QnTTi+rRjpVWbCI69J2ovXbmQvTQLAqEMGCQBPmAqqE5/9R/Xn/4i1l22aYdYktnP3F60rf2E7S5jyeFAwMbveSrxyhbTxqnPMepAsilhlgtLcyzoYi1YuZ28yAMBIQwYJAE+SN3Z0+vV/Vjn2xrYVJqy9tLvWvvqXnbs/F5fi2PqgYSUuiVev2c6aNzan/Mrwqy9CROH0OX/qdLx23UWNPOMEgCcEGSQAPDGlI69NvfHPg8nT2ZNrZsVK9ZZ+07j4n+L1W4zS44HFRJy2FuPVa8qveNVpJs4UI50/diSYe8m2FtPWQr6BAsCnhwwSAJ4AZjV2/puTr/5jE9ZdtudaaWej1rW/al//gSRdNFwfeMxKkk60ckls4o0dZu0N2mvEWROOhYdfdTaOV6/mGycAfErIIAHg02Ltj7/0P9af/2Nild13x8pL28uNy9+NHryHhuunCDMTJRu3bXvJ1OZ1UB2caIs4pUxp/mXSfrx8EXu0AUYXMkgA+FRUUJt67c9qZ39HxA6qTczMyotWLjcvfidt3CNl0HD91GFlOyvx+k1dmjCVKR42YgsRhYeeM6WpaOk36K0BGFHIIAHgkzOVQ1Nv/MvykVddmg5uvDErEeneebt99T+7uE04uX5qsZKkEy9fZuWZ2hxzdpW2BFOn/YlT0dJFl7RzjRIAPglkkADwCflTZ6e/+L+G0+dcmumbUdqlvebV/9y98zMSh5Prpx0zi43Xrru4bepHlfGz1yL9scPBoRfilSu2t55vmACwW8ggAeCTCGaenX79X/hjh7e0XSvjehsbF78TLV9kZvRcAxH1vw3S5n3bXvLqR5VXHl6LdNYrT4Zzn4nWrtrOaq5BAsDuIIMEgF0LZz8z/fqfm8rMllXX2ktaC43ffDvZuMXKIH2EDCZWaWclbdwztXkd1jO9NVaHY+GhF+ONm7a9lG+UALBzyCABYHfCw69Ov/HPTWkikz4yay9avty89B3bWWZl8owPiopZud56vHZDlydNeSozctyZsFaafzlp3k+b93ONEQB2ChkkAOxC6dgXZ77wT5VfzawrZFaqe/+d5uXvubhNjL4Z+HCsJO0mq9fYK3u1+eGdSHHKK5fmP5u2FpPG3XxjBICdQAYJADtVPvGlqVf/Z+WVMkMfmZXu3P15+9p/wa5C2BFmcWm8dp1N4NePDJJIEqeMH86/lLaXk43buYYIAB8PGSQA7Ej52BtTr/0T5ZWH6SMzKW7f/mn7+l+ROFx8hB1jEhev3WTl+fWjw4dFlAnC2ReS5mLaRCUSoNCQQQLAxysffW3y8/+L8iqDw2tmJpH2rTc7N37IJEgfYZeYycVrN4jIrx8dDpwXp0xYmnsxadxJm1ifDVBcyCAB4GOEcy9NfeGfbbn72E8fb/ywc+snrJQgfYRPgpkpXr9F4rzx49uSyHD2xWT9Ztp+kGuEAPChkEECwEcJpp+Z/sKfm9J4Jn1UJNS+8Ved2z8jDH2ETy1p3Cbn/IkTw+8lcdqvBDPPR8uXbRdzIgGKCBkkAHwof/LU1Bf/lalMi81WH6l988edO28RMbZdw6fGIpQ27zKRVx9WIkWcCWrhoeejpYvYWANQQMggAeDxvNr8zN/6V37t8HDuIzMRd26/2bn1ExKkj/BkMDMJJY3bxNqvHxsWIsWZcDyYOttbfNfF2J0NUCzIIAHgMXRQnXr9XwZT5zJLC5mV6tz+aefmj7GxEJ4wZmZO1m6y9v36sezGGlOZ9saOdu/9jWT2ZwJA7pBBAsB2rP2JV/9J+eirLt2y87pz72/a13/ARPIR7wzwSTFzvHGLvVIwdkQyu7P9sSM6HO/d/9VwjQ0A5A0ZJABswcz1z/yDsbNfdy6z81qZ7v1321e/T2JRfYS95JL1WyoY82pzmUqkCyZOkdK9xV/nGxwADCCDBIAtas/8wfgLfyJiB8tClDbRytXmle+JTXD3EfYYk0uTjdu6esgrTw0rkSTh9DOSdqOVK/nGBwB9yCABYKh05LXJV/4xsxqkj6xM0lpsXvyOi1tYWgj7gVlskm7cNeMndFAbVCKZ2T/0XLJxO23ezzdAACBkkAAw4NWOTL3x5zocG+wtZKXTqNm8+G3bfkCs8w0PniLMkrbT1gN/8rTywoc/z4gyfjB5prfwnoubOUcI8NRDBgkARETar0698S+CydOD2T3MyqZR69L/F6/fZDb5hgdPHVaut2F7a97kGaXMZvuWOFOaMGOHu/d+ORwyBQB5QAYJAESsxj/7jyrHXh/O7mEWkfbV/xItXUD6CPlgZTvLlPb8ydOD/i1x1h87zDrsLbyTb3QATzlkkABAtbNfrz//3w8Or4mItde5+4vunbeI1R42X4sjcSKORYiEREhExPFgXhAad4qg/9WhzFeKHn6lxO3tZkvmtPVAexV//KhkW7MnT6e9RrJ2ba8+LwB8HJQWAJ52wczz4y/9AyImetiyoL1o5Wrn5o+YSPYmORARJlFhXQdjyiuzCVlpIufSWJKe2J6Luy5puTTanF6OGeb7TfqJo4goEyqvwl6ovRKbEmuPWImzkvZs0nZRw/Uae7bikpmkdeOHujzpD65YiJBS4y/9D2njTrT0wR58UgD4eMggAZ5qOqxPfPYfKr8yGB7OSqedldbV70sa7VXztYgyfuX07/jjJ7RfU8bb+i+dpJFLui5up721tHEvad5zvYZL2iKklMY8873DROIsMSmvrINxXZv3xg6b0oTyq8ovKRNsy+Ntmri4Ea/d6Fz7b84le5HlCzGl3dbV79dLf6rD8X6lXJw1QXX85X+49KP/zUXoqgHIAU6xAZ5q4y//w8qxLwzTR1bOxs3L30s2brPas+ZrscHM+eqp39JeSCQiLvsXiZDSyoQ6rHu12WDyTHDoBX/ytKnMsNKSdMXGRHt8ePrUERJHxMoreROnS0deKx//YunY6+HMea82p4MxZXxiJc5t+2Ixk/Yrpnooad6z7ZW9+pGDlY2atrcRTJ0ZfFuKs151lpTBhUiAXCCDBHh6lY9/afyFP5HMpjhW3L75497Cu3uYPpIQ6/KxL3i1eXHpR/0ycSSORJhZh2N+/Yg/dd6ffsaUxkWsJB3qb83BXclPQxyJZe179WPlI5+vnPqt0txL/vhR7VeJiOThV+EjNlmKU9oTFyer14hkj9J6ZmU7K0TsT5waDCsVccHESdtcSBp39uKTAsBHQAYJ8JQytcPTr/9zFVSHE5u111v6oH3tv5HsbVpmwnrl1Nd2l6T2+zaU0l7JHz8WTJ/3Jk6T8iXpSNol6uctSCV3rn/N0enSRHjoM9Uzv10++vlg4rgyATGTc4MsbYcfS/nVaPmi2GhPvwpp876pzJjqoeE3rfL8ydPdhXcxIRJgnyGDBHgasQmmPv9nwfS54fRHpW13tXnxuy7p7O3uGWeD2RfD6ecoU/tU2rA2rIzSPitNrJg/rOwlIo6UNuF4MH02mDqnwrrEHRe3iRy25uyIWGI21bny8S9WTn2tNPeiDsaISZx9/B86MynFyijtKe0rpVlpZs5Wr5UJ0vZK0rzHe/clYCaxafuBP3Fa++XNHFecKY2b8lT37s9J7Md9CAB4YpBBAjyName/MXb+m8Ppj8Qkrnn1P8frN/fy/JpIhLQpH/uiqU5lykimc+8XzUvf7S1ciFYuJ417Lm4JGza+0kZpf/Mdt38oR+KUCYPxo8HMs7o8JWnXRQ0S5JEfTiwxe/Wj1ZNfrZz6mj9xQmlfnM1m8wP9lJGIxKWuuxatXO0tvte594vOnbc7d34u4vyxo5kCthFn45VLe3eQTUTE7OIW2cifPLtlQmT9qO1txKtX9+rzAsAj0IsN8NTxxo6OPfuHItnpj7p79xfRgw/2Nn0kIhId1P3afGb2JDsbNy58K87M9mPtsQ692qw/dS6YOufVj3tjh1n1OzlsNpsUcWIda780/3I4fT5audK9/zdJ4w6JYA3jFmKZlakfKx1+JZg8w14o1op95B4qM7NmpcTZpHEv3rgRL1+JVi6nrQdie9k1MPH6jdLcy/3ubSIiZ72xOR2M2d76nl6BYKV7ixe8+pHS4VcG8Yu4sWf/Tm/xvaRxb+8+NQBkIYMEeMqwqr/4p6Y8lRnfY5LGvdaNH+/LVUIxtTkVVAc9NEqb3tLlpHF3yy+yidgkWmlGK1ea9F1VGvfrJ0rzrwSzL/i1WTa+2FS2lM1EbELaK819xp8+Gy1d6t79RdpaQL820eY8cFObLx95LZg+r0zoXPpo7sisWBuXJnHzbvTgQvfOz+PGbdfb+LCPmjbuJus3/KnNixAiTgd1U5u3vbW9/e0QE0vr+o91dd6vzQ2H+1Sm6y/86fJb//tj66kA8MThFBvg6VI59Vv15/6O2IclQGaycePSd9P20h7eYBsQKR97w6vOZo+w2zd/1Ft496PeKe2lrcXewq86t34SrV4jIVWe0F6JmLedbos4VsYbm/enzuugZrurknT2Oo9kosH8bSL3cLlOfzKRo/7ilv6Uov42l/6vZ+K9zm5FRJwpTVROfLl6+re9+jEizm4e2oxfGaWMixvdO283LvzHjQv/oXvn7bT9QNLooz62S01lNpx5blDMZlZio3j50t7fImBJexI1gqnzNBzu4/z60bS1lGzc3OPPDgBEqEECPFV05VD9+T8iokHDhFKmffeXyV5ffySifqbll73aHGWWFrq011v89Q4/gotb3btvd+++7Y0dqZz4cunY617t8GYBckCcWKe9oHzsC8H0uc6dn/cW35WkR5/qNzhc0DLckSNEzKwU64C1p7RPymNlWHtMipUWZma1+V4k4qyIFZuKS8klziZkE7KROEsixPSYT/FpUkxn2QvLsy+Vjr6mS+Pi7JY/JSIiYu0RcdK42739ZvvWm9sqwR+rt/R+Lf19UuphHi+mOscmFJvs9YglViZeu9598OvKkdfc5u9LiNXYi38vWv5N2l7a088OAIQMEuCpUn/hj73anHtYW2Kl4+Zi585P9+ekV8SacEL5lcEBNLNKOg+iteu7/VBJ4+76e/++cfl75WNvVE5+LZw8RUQukyGJCNlEBWO1s78bzjzbvvWTeK0/rfBjymNMJIOCooj0S3ReWXllMqH2SsqvKr+q/Zryy+yV2fjEmpVhpYiYWD0s5TLxw0V/g63fRDIYr+isc5bEio1s1KG06+KWjVsuarqkK2nPxW2XdEUsE9HDnJKJP37Kjjhi5U+fKx//oj92REQePbNW2hOiePV66/oPOrffclFjF3/6D8Wr12xv3VSmN8uQIsqvmvJU0rxHtPeXUJk6t97y6ydNZXJwlu3X5uvP//HK2/9mzz87wFMPGSTA06I0/7nqiS8N+6+ZxaXdW3/tehuk9uM/BSJiKlPar7jMCKF49Yok3U/2AV1vo3X5Lzo3/7p05LXa2b/tT55mIZcdSSNOhLz60foLfy9aer99803bWSbWWytkwsRCQs4JCWlfmRJ7oSlNqvKUKY3rsN7f3K28UOn+Wj8REhLa/ESDAdfZUTiS+TsxEfdzVyZNtHl+rWhz7qZX4+yhtrPxZhKZdNPuhuut2e5K2lmVtCdpT9KIiUmpzbCz6b8IkdXlmfKxN0qHnidlHpnZzv21kL3Vq81Lf9m7/wsXtz/ZHz4RuaQdrVz2qrNCljavQlZ1ZSpu3N2XKe/K9dbbt3489swfDBp6nI0rJ77cvv3WR9+LAIBPDxkkwFOBTVB7/o9Y+WKH+6+79y70li9+uuPd3cSgtFeb31pC42jl005gcXGrff0HndtvVU58uXb+9/yxIyIue9tPXErMpbmXzdjxzp23osVfi036A4z6JUbSngnHTXXGVA7p0qQujatgTGlvMznbzBhFSNwjB8G7sCW9lMc9+BAr7VcpqBGzP/7wN2ETFzVsd912V9P2ctpatNE6pYm4hImJFZGw9kqznwuPve6VJpxNaWv62B+0Ga3fbl7+XufWTyTtffLfy2ZQEq1crp76Cg1u1RKZyuw+3IjYpHS09EFv8kxp7sXNOqsIa7/+/B/Fyx8MesUAYC8ggwR4KlROfjWcOpsp/qm0s965/ZOdHOw+IUKkVGmaMkfYNmrFG7efzEdPe62r3+/c+Vnt7O9WT/9tU5kWmwz7tUWcTUxYr539hj9xpnPzR7a3YSqHTG3W1Oa9ypwOqqS00ubhUbN7tONk/8igxjnErE15ypSnmbmfHaZxy7YWksZC2l5MW4s6rJdPfCWcOk3E2zJdZsXaS9tLzSvfb137Ly56Yutb0sY9F3VIm8EZvS7PEKv+lu0n9Vk+HJO4zq03vfoxE9T6X25nk2D6mdLxL7ev/de9DwDg6YUMEuDg0+Xp2vk/IKJMnYu7936edlZ4X86vqX+Jz/i6VB92TzO7pGVbC0/ws7iosXHhW+2bb44994fl41/SpuRsMvhdi1giDqfP+WOHXdpTfkV7peH5tZB7dD7ih/5+mOnhNUfacgZN9OE91oOD783bljQ4B394+fIjyOZtv/6n0MYrTXiVqXD2RZd0XdxWJlR+RZwlyo6zYWU8l3Sb13/Q/ODbaWtxp7/BnUma923cNOWpwVVIXRpXyndpb5/GKLGy7Qe9e7+snvltsv3fuBDx2DN/2Lv/K9td3ZcgAJ5GyCABDr6xZ37fH5vLDoCMG3d7C+/u32ljvzpVmlDaH9TWmJXtrtvukx8fmLYWVn/+f7ZvvFl/4VUCzgAAACAASURBVI/DQ88Pcq+HgaTKKym/LOJ2cCr9MDvsN1azYlZiU2sjZxOxCblEXCpp5PqXFG3k0ohsIi7JLAlkVpqVYe2z9kkH2gvJKyvt93u3iQ0bX5uAlem32oi4TCXy0cxSNv9nHRGx9kx5kkTk0WNr4u79dzfe/1a09MGHrYn8NGxn2UYbXmVm8yokiTKBCuuu1d2/SZxKd++/E0w/440d7v8JiEv9scO187+3/s7/s08xADx9kEECHHD+1JnKya9mu3Gds93bP3VJd98KkEREIjoYI+Vlr/ulzft79+mipQtLP75cPf3bY8/8HVOe3lqMdB+VTbFipZmViBObkLXWRq67mnRWbP+vXsPFTRu3JG65pOPijthPcuWOtcdeWfsV9irar6mwpsO6Did1edJUpnVpUumAlGbtbQbzIesHSUS2r4Rmpb2ks9T84Nutaz/4ZOHtUNpcpMlzw7eV0eFY2tqzr+xjsEva3Ts/M8/93cFD4tLq6d9p33oz2X2nPwDsBDJIgANu7Pw3dTA2nOCjTbR0MVq9yvu79E/IKa+slBnmOkzJkz5U3f5J07h56S96C++NPf/3KsdeJ360N5mIiJXifoO2iBDZ7rptLyatpaS1aJv3ktZC2lmWNBKbPNl9J2ITsRuP2fvCipSnTGDK015tztTmTXXOVA+ZyowuTWwO9xERseIet89aG3K2dfPHGxf+4x7m6A/Z1uKw2iiilGG/KiL70o69iVn3Vq4EK9eCmbP9H5ZEnA5qY+e/ufLT/2P/4gB4miCDBDjIwpnnSvOvDEdJM7u427n1Frlk39dGsw6qrLWkw43YtrO8D584adxb+em/7t37Zf2FP/XGj0gai8jmkbRSRGx7G2lnJWneT9auRStX086yRC2XfsIZQ0+AOLKRs1EcNQbrwpUp6aCmK9P+5Clv4oypzXnlaR3W+30//YNvZmbtxxt3Gxf+Q/v2T2l7YXJPpO2l7IE1K6O8yl6cmH8UZnJx586b3vhR1t5mW49NSkdeDaafiZYv7mswAE8HZJAAB1n1/O8pv5S5Aam7i++lzXv7nj4SK81eeWuziKT71uggtn3rJ9HK5fqLf1I5/iVlgrTXcL3VaPlyvHwpWr9lW4t5pow74NKuS7tJ+0HvwftExCY01Tl//Fgw/Yw/ec6UJ3U4JjZuXvtB48J/2M+lLI98EUX7pX2ucBMRsU427kYPLpSOvDosQ/qVsfO/v4QMEmAPIIMEOLBKcy+X5l4eTvBhZXvN7v1f5RGLECnWfuYOJNs0+ujNy09c2l5a/dm/6d57R5en4uWL8frNPb0guKck7SXrN5L1G+0bP2Ll+eMn/JlnbGete+cteaJH7R8fSdKVNB7M9CYi0n5/PuX+NdM8jKV775fB9DPKKz+c7BOH8y+Hsy/ufHMmAOwQMkiAg4mVqZ79hjLBsN1Y6fjB+5tLWfaZEGvF2h/UIJnY9W8W7nMg4jq339znT7rXxCXR6pVo9Upen93ZiE34cCSkKO2zUmLtfieQrNL2Uu/B+5Vjr0t/so+IMqXauf+ut/QbynHAJ8BBtD+ThAFgv5XmXg7nPjMYcMis0u5G5/6v9r0s1P/szKy2tn6z2ETcfmeQ8MSJTcSlW76r2OT34sLd+++kvcbD7eTkbBLOvhTOvpRTPAAHFjJIgINImeq5ryvjDxczKxU9uGA7y8T5POtF5OHJZj8gYhJ6XCsxjBhxJC67apyVYmbez2bszOe2nQe9Bxcys05FeUHt7NdzKL0DHGjIIAEOoGDqvD/93JYbkN1Gb+EdUnk+5bclFCKy3x27sAf6R9fbH/yY/Tp7SvUeU4Z8IZg+99HvBgC7ggwS4ACqnvlt7QWZ/YGq9+CC7a7m/ZTfklX05+nkFQo8Kcy8LYkUEcqlALkZkLLd1d7ir4c/L4koE1ZP/05uIQEcRPjPN8BB442fLM2/LJkbkC5udxffy+UGZF+/ImVtMoxBhJRmZJAHAGultzZliiVxuZYhKXpwwUatQSIrLg3nXvbGT+QYEsABg/98Axw0lZNf1UF9MNKFle4tX7Td1XwLfiKO3bA5V0hY+6S9HEOCJ4KVx2q47pyYxCX7PFHo0ZjS9nK0cmXQvCXOmtJ4+cSX84wK4GBBBglwoJjKofKxL2xZQpN0owcXnuw6vl1jImddGnGmBqlMqEyQZ1TwJCgTsAmyc5okjUlcfiXvPhc/uCBJb1iGtEnl2BumMp1vWAAHBjJIgAOlcuJLXnkqW4CMNm4lG3fzbkRlEevS7paOXa2VX8sxJngiVDjGeuucprQnzuZ4a4KIiHW8fjvZuD1oyhZxXmW6fPxLeUYFcIAggwQ4OJRfLR19PXv/TKzt3Xsn5wLkZigiaVey43uETGUmv4DgyTDlma1tNM4l7UJ02Yvr3H9HMoPEhaR87A3lV3IMCuDAQAYJcHAEM8/548fFPeyhUSZp3ksatzOz8XLDzLbXEJdppiEx1dk8Y4InQddmM/kii03SXpML8OLCSsfrN5LG/eFtSJv648eD6WfzDQzgYMj/SQ4AT0r5+Bd5y8RHiZcvuaRbgHIQESsXNcWlmQRSvLGjeYYET4KpHc7MjSJxqYsaeU7zeUiIJO3FK5eyD7LSlRN/K6+QAA4SZJAAB4QZOxIeen4wxIdYubgVLV8qQgGSNqear4lNBs00IqLLU8qv5hsYfBoqqHvlKcm20djYdtcKMqeJle4tX7JxOzPWxwbTz3tjR/INDOAAKMSTHAA+vfLRz5vyxJYempWrLmrkG9WAkLika3sbw+qUOB2M+ePHc40LPhW/fkQFY8OLtsxpd13SSIpwD5KIiKS3kaxdVdmxPpXJ0uFX8o0K4ABABglwECgTVI58Ydg0wCw2jlYu5d8SO8RELm0vDsZSijgdVE39WL5hwafhjZ/UfmX4cwsr214kcsX5rhNne0sXXRoPy5BiS8feYO3nGxnAqEMGCXAQBDPPmbEjgwySWSXtpWTjdr6LsLcRZ9PmwtaHJDz0fEFOPGHXWIWHns92+gtR2lrMtj/nj1Wyfst2lgffZuKsXz8azDyXb1wAow7/4QY4CML5l5UXDqc6s4offCBJVJhSEBERs0pbD1zcyryWp8HUOV2azDcw+GRMecqfPJv9ucVFzbT1oFg/EjBLGvWWPhhGJaK8sDT/cq5hAYy8Ij3PAeATUUEtnP/ccIgPKxs1o7VrReiH3YI57Syn7ZXMQbbosB4e/my+ccEnEx5+RYe14fxRVmln2XZWCviNF69eT6PMjy42DWdfxmBIgE8DGSTAyAtmnjOlyeGwblZJe8l2lvNdhP04LGmUdlYyhVFh1uUjn2csyB41rL3S4VeZNWU2YiftZWeLVfkm6v/osmQ7S9k7uKY6jYNsgE+jaC8wALBr4dxnlQkGL+TMHK9coULdResTpysz/sRxymymcTYJDj3vT5zKMS74BPzJM+Gh55yNhw85F0ycMpWZQuxA2oLJpfHqNeYta9nD+c/lGhXAaEMGCTDadGkynH1ucIRNzDZuJ+s3i1eAFDZh7dw3TGm4tpuIWGvbWrS9okwdgh2y0UbaWsxuxBZxpjJVO/cNNmEhthpmsYpWr9u4kxkMmZYOPadL4/nGBTC6ivYaAwC7E0ye8atzw24GpZPGPdtdLdhJohBx9eTXgonTw2SXiJWxnZXln/7rtLXwEe8MBZQ27q/+7F+n7ZXBzkDqrw2cOF09+RUiLlgSya67mjTvDwbsi7OmNh9Mns03LIDRhQwSYLSFh1/d0rggEq/fdDYpVjeDs+Gh50vzL2XnvLDSLmmvvv1v49WrOYYGn1i0cnXt5/9W4nZ275E4W5r/bHjo+WLdo2B2Nk7Wb5KTzGMczqGLC+ATQgYJMMKUV/EnTmaaYdklvWT1WkE2GW4Sa6qzlZNfJZXtulDk7Prf/N/dhXdyDQ4+le7CO2u/+r/I2cytCSGlKye+aqqzJAVKIlnpePWas1FmK5L4U2fYlHKNC2BUIYMEGGFe/ahXm83O8UnbD2y0UaTzQyFlyie/akoT2QKkUrpx6T+1bvxVjpHBE9G68cONi/9JbS1DmvJE+dRXSZnBjNL8CdneenZcpXOpV53zsRUJ4BNBBgkwwoKp89qvbBkkvnFLbFygI2xxpbmXw6mzziaDx5Tx23d/uXHhWznGBU9Q4/1vte/+UpnhnkBnk3DybGnuJaLC9GUzi43jxh3KjBbXQSWYPpdrWACjChkkwAgL5z6T3YXt0jht3i9QAVKcCifKR18nHvZVsDJJ8/76O/9OsoNgYJSJjdff+XdJcyHTVSPEXD76hgonCjTcRyTZuOvSKNORbcPZz+QbFMCIQgYJMKpM5ZBXPzqYjMPMNm6lzYXCXIIUYq4ce8OUxrNpLolde/ffp817ucYGT1javLf+zr8nsdnkTJfGy0ffyP78kC9WOm3el6TDDycViDhv/JipTOcbGMAoQgYJMKqCmWdUMDZcRUMqad53cbsQr9VEJM7Uj4WzL7pMO4XSfvvGj7q338oxLtgjnTtvtm/8SOnhWbaILc294NWPF6QMKUSSdOLm/exyGhWMBdPn8w0MYBQhgwQYVf7EaWX87CqaZO1GYRoXhNhUjn5BGX94TVPppLmw8T6uPx5Y6+9/K8lWwUWUCcpHP09KF+U7U1y6fiO7nEabwJ84nWtMACMJGSTASFIm8MZPbFlFk3Rs+0FR5og7F0ye8sdPucz8cCJufPDttL2UW1Swx2x7qXHxO9l9SM6l/sRJf/xUQcqQxJQ0H7ikNzhtdy71J06xCfKNC2DkIIMEGEkqqHn1o8NVNKxsr2GjjaIsM1Q6nP8cm+EwF6W96MFv2jd+lG9csNfaN34YPfiN0t7m2yKsvNLhV6gg13NZuahho43BTB9xzqsfVX4137gARk4xXmwAYJe88VPKKw37E5htd81F7UIsMxTrj5/wJ05s6RO38cal74iNco0M9pykUeODb7vMSCkR648f98aPF2PAOLu4abur2bnibEr++Mk8gwIYQcggAUZSMHVWKTNscRVJmneL0fEqxCqYfZG1ny1Adhd/3bv3q3wjg/3RXfhVb/HXW8qQJggPvUisCvEtKpI0FzL3MkVpz586k2dIACMIGSTA6GFWXv1Ydmy4iNjmQjEGiYspTwcTp7J3NF0St658vxDZA+wDkeaV77s0U4Z0aTB52pSnC/E9wJw07m3p7GH2x08Uon4PMDqQQQKMHlWa8MYOb7kEGTXS7noRLkGKc8HMsyqzKUcpE69c7C28m29gsJ+ixXfjlUtqMGBcRPkVf/pZcgXop2Hleus2ag5n+jhrqvO6NJFvXACjJf/XGwDYLV2a0OXpzC1DZdvLknYLUN8R5Vf8yTPbSk2tGz8qxh042CfibOv6tq4pCaZOK7+SexmSiV3StZ3lbDONqU7r0ni+gQGMFmSQAKPHq80pPVgfR9xvo8nsasuNOFObN9XZYX1U6bhxr7eIAuRTp7f4btIYzoYUZ01l1lRmcx/rI0SS9tLuxnAqJInSvqnO5RkWwKhBBgkwerz68eybztm0u5JXMFki4k+cZR7ObWGlewvv2e56jlFBLmx3rbPwq+yOTdbGnz5fhNHiQmQ7K8MqPhERefVjecUDMIqQQQKMHm/sWHaOD7nUdtY470uQTKT9SjB+jOhhkYnZJb3u3Z/lGhfkpnf35y7JlMbFefWj7JXzLpX3y/ar4tJMbOQjgwTYDWSQACOGTajLk5K5TOZsvGW+XU7EWV05pErj8vCYklkljfvx6rV8A4O8RKtX4tZ9ziyhNqUJrzoruV+KZWW7q2KTwQNCosvTCptpAHYMGSTAiDGVaR3UKJOlubgptpd3fwIRk1eb1yYcLsLWXm/xXZf28o0L8iJpFC28x5nBkMqEpjafa1D9SEjSjovbTMP6qA5qujyda1gAowQZJMCIMeVpFdQGdT5itu0VsWn+w+xYe/Xjw/ISs4u78cqlXGOCnEXLF7NLqEWcN3Y0/5ceJmet7axQpj6qgpouT+UbF8AIyftpDAC7pMtTW+p8pNLOKonNdx4ykyi/Yiozw8BY2d56vHo9x6ggd/HqNdtbH17SFaerM+yV8v55h0ls2l3JBCbaC00FGSTATiGDBBgxujwtmXkoQs5FDcm7v1XEmcq08oLBBU1mlTQX0u5qvoFBvmx3NW09GF6FJFGmZCozkvtMH3G2t5EdTikiuoRTbICdQgYJMGJMeWo4D4XZpbFLO5z3GbaImPJUdhc2sYrXUIAEilevZlqeRRlfl6dzb6ZhIhd3sqsX+ws584wJYKQggwQYKax0ZVoejsthYnKJi9u5N2Kz0qo0tW2iULKGLmygaPV69ooFs/Yq06zMR7zLfmAlacfZePDTl4gzlakirAYFGAl4qgCMEqU9U5rI1iAljSXvDJKJWPumNJGd42PjVtpezjEqKAjbWXZJN9tMo4I6Ky/n0eLMLu6QGw70IRFVmso/tQUYEcggAUYJ+3XWpexLr9jYJZ1822iEhJRW4Xj2CNv2GjbayDEqKAgXbWxrplFhnbWX980LcklbbLL1hD3UwViuQQGMDGSQAKPEq0yx9jKlG7Zxa9tytlwo7Wu/LMNGbHa9DRc1840KisBGTdtrZJtptF9l5X30e+09FpvYuL3lhF17ujyZY0wAIwQZJMAo4bDOymQbSAuRpYkov0ashoGxcnFLbJxrWFAIkvZc3KbM3BxWhv1KERZku6gx+GchIWV0OJ5jPAAjBBkkwCjRXoWVySzFJhe3Kf91NKL86tYWBEl7OMKGTW7r3Bxi1n61CN+3LukMS5BCrIzyK3lGBDA6kEECjBL2K6x15qWXnY3yDKhPhL3SlolCIg4ZJDxk48aWiiMze6X8E0giSbrZt5TS7JVziwZgpCCDBBgl2q9sm5gjcSf3V2Ih0qaU7QcXEkk6OYYEheLidvablJnZDIfP50iS3pZ7kEorv5pjPAAjBBkkwChRXnnLKzGR21JEyY/xt/SDC7mknV80UCwu6Wy79ah0kFcwQ0Iu7fKWB0h5pdziARgpyCABRgcze2XKrjQUJ64I3SqiWG97BG00MCDptrsWTMorwD1Ickl3y0ZQEYVTbICdQQYJMDJYGeWXs+PEbZqITXOfq0dCpNS2MIowYwiKQuzWThpiXYBXHyZxqbPJsHwuorwyhooD7EQBnsMAsEOs2ZQGt8eYmCURG+c7TnyT0tt2c+e++BiKQ5zb/ogU4JuWWFwqLh4mkOTYKxMySIAdQAYJMDJYKaVNtpQjNs0eaudI3Pbhfoz9wvAQa/3IY/kfYRMRiSVnOZNCsjL41gXYCTxPAEaIIs6O8iERV4hXYiZ+JBLefjMSnmZqW6MVPVKVzIfIthYfVibfLfMAowIZJMAIYdZbzteYpBAZZP/MelsgChkkbNr2fUtERLYIty9EHFE2lxVSGjVIgJ3A8wRgdDBTtrDHLOJEXAFKJvzIRbetocLT7ZGCtBSiBsnMJCRuy0hINoX4mQyg8JBBAowMZkWsaevwkUK8EhM9WgpFQysMKbO94FiQ+7vixLlMbMIaNUiAHcHzBGB0MKttp4HiaHsHSz7ExtvHtZgwv3CgWNg8svTSJblXzokeuQcpRKwLUNQHGAHIIAFGyPaj4YJ00jCRpL3sKzETa7+SY0hQKMrb8uOE9L9hCnAPkkhkWzVUmWIEBlB0yCABRlr+6SMREbHYeOuaY2YPNUjYpLzKlsKeiKQR8jSAkYYMEmCUbG9YYVWIFJLJpdGW00AmbIeDAfZKWwt7hVl6KcRbz6wZk/ABdgYZJMAIEaItL29Mqhi3/lnSiLbXIEu5hQMFo7f9OCHiCnKKrZi2PoOcswW5WwxQcEV47QGAnRG3bdm0MBXk1r9LuyKSyQlEe1UM9AEiYu2zV8o0XzORuKRbiG9dVpJNZJmpPyELAD4OMkiAkSEitHX6I5OiItQgmSXtkU2Gy+FElFfSPg6ygZRXUl5JHhb2mNkmXSrGKTYTK8Vbio7OFuZ6MUChFeC1BwB2SrZM0RNhpZi5EIduzrq4ndkv7NgrY6APEBGbkjKlYVrGLEmHxOVfgRQR2n6KXYjAAEYBMkiA0SFObLzl9hjrIjyLmVhc6tLMuaSI8stopgEiUn6Z/Ur2FNslbXG2CD/4sNJE2bsW7Gy87a4IADxW/q89ALBD4tLs7TEhIWWKsH5aSMRZF7cG5RwRp/wqB2P5BgZFoIK69ivZU2yJO+KSIjTSEGvSZjCIivv3MdCODbADyCABRodzkkbZl11WRilTgGtbTC6x0UZ2MAor5VcP5RgTFISpzm57xEYb4mwBerGFlWHlZZ5A7NKuQw0SYAeQQQKMDrGSRltOio1HyuSfQPbnDPU2nE0zD8mjqQM8hbzqbOaHHHY2td2NPAMaEGJtlDZb7mimESGDBNgBZJAAI0PEubSbrdwwa9ZFqEESM7teg1ySTXBNbT7XoKAQvNr8sNmLSVxio0Yx5piS0v62SB6ZbAoAj1eI5zAA7JCkve0rNHRYgNNAIla2tyEuHbRji4ipzrH2840L8sUm1JWZ4SXIftNVtFGIYZBEZILsW8zskm5esQCMFmSQAKPExi3JtLAKkfIrRUggichFDRu3M5mBKL+Kg+ynnFedV3512IjN7KKmjVq5BvUQk/Yr2XqjiLikGLEBFB4ySIBR4noNcWl29YvyK3kGNMTkrG0v0bAG6ZRf8apz+YYF+dK1OZVpxCZm21licYUonBORV8ne0RSbuKiRZzwAowMZJMAocVHDZVa/kJDyqwV5MRaxafsBKzV4W3uhVz+Sa1CQM79+VBt/kKUxqaSxWJiBi6z9SiaBJGcT10MGCbAjyCABRomNNihz15CIlFeQGiSRSNpednZYIhVnvcmz2I791GJl/KmzmeE47Gxsu6vFaVVRfnXwz0xMLk176znGAzBCkEECjJKHp9gDorxyUZoSWNnuqo0ag14fcTaYPKmDwuS4sL9UUPPHTwyG47BSLm6l3dUijMEnImKtvHI2nRWxqEEC7BAySIBRYnsb5NJsysjGV165ECkkK9tZc72N4WYaEu3X/PGTuYYFuQkmzyivJJlzYttdc9FGEe5dMInySkp7mYeYbOKiZn5BAYwSZJAAo8Slke2uD1+ARZQJ2KvIcOlwrsQmG3czbwprP5h+Lr+AIE/+9DPKBJSZHpA07hRkXreIKL/K2s+Ex2l3zdk4z7AARgcySICRIjbtLPGW1dieDqrZF+k8MSeNW9tuufmHnmUdfNh7wEGlvHI48+yW70yx8dqtoly6EFFBlbSfWYqt0tYilmID7BAySIARkzQXBsfEJKK8QHkVKUhrAivbXrHd9cGeD+fSYPykhwXZTx9TnfXqxwaLLlmptLtmu6tUjG00QqL9is6WSJnT9lKuQQGMkkI8kwFg59L2UnYtDZPSYb0gO+KI2MbNpHF32CohovxSOPdSrlFBDsK5l5UXDuf4sE4b91zcKsIlSCJiVioY27ojlG37QY4hAYyWgrzqAMBO2e6aTSMaHmQ7XaoTq4JMSBFn4/XrlG0YFwnnXylI5Qn2ByuvfPhz2SNsZ9N47XpRrluQECsd1oWGy3Js0ku7a7lGBTBK8N90gBHjemsubnOmmUaXJlnpYiSQxEon67ds3MnO9PEnT/oTp/MNDPaTP3XGGz/hHv4gwaxc3IzXb5EqxouOECujS5ODjJZZubjtesggAXaqGE9mANgx216WuEXZ1S/hOJuwIP0JRGR7zXj9OinTf1PEab9aOvJqvlHBfiofeVX5pWF+pnS0dsPF7XyjGmJSJlRBXbILu+Nm2l7ONSyAUYIMEmDE2LiVdlaZhjMXWXumNCFFOR9kEhctX3Y2Hh61u7R05AsqqOUbGewPHdZLh1+Vhz00xGzTKFq5RMVZhy2iSpPK+IMHmFTSWXVJJ8egAEYLMkiA0RM37gzfECFldHmqKCMhiYhVsn7TdtYG/T3inD82Vz76hXzjgv1RPvq6qc6J2/yGZFa2s2I3bhflCLtfFy9PkjKZRmxK12/lGhTAiCnK8xkAdi5Zu5Et5ShldGkqv3AeweySXrz8m0yHuDCryokvK4PBkAcc66By8ivElOnCVtHSBy7pFaUAScREXnlKbV2umDSQQQLsAjJIgNGTNO6JHc49FhFdmti2/CNfzNxbupT2GsPBkDYJps6F85/LNzDYa+Wjn/cnTg2OsJlV2l2Pli8VpxmfidiEujSZufjBziZJ416eYQGMmqI8pQFg51y0nnSWeDhz0enKNJtSYUo8/R3Zy/HKFc6UeVjp6tlvMMqQBxebUvXM17d90ePVq7a7UpwMUkiUV9LlKXp48YOVsp0V29vINzCA0VKUpzQA7FzaWbXNxcHrtIjTQU2H9eLUIPuixXdd2hv00zibhDPPlA6jKfvAKh95LZg552yy+TazSzq9hXeKc35NRCROheMqqMkwg9RJ857rruYbF8BoQQYJMILExRtb7mwxK682X6wMkjlpLXSXLjJnKlKsxp75A+VXc4wL9ogKxmrPfJOzW16U7i1dTFqLRdmF3Sfk1+azi51IKNm4U5hpBgCjARkkwEiKV686mwxLO8ymNleU7dibWJzr3f+lTbrZMmQwebp66rdyDQz2RPXM7waTpzIFSOXidvfeL0mkWDVIElOdzSS17FwSr1zJMyKAEYQMEmAkxWvXJY2Hr8tCOpxUXrlQL9TEKm0uxEvvq4fTxYlIxI2d+31v7FiOccET50+crJ39urhhgxcr3Vt8P20tFucGJBExifIrqjyZneMjaRSv38gzLIARVKAnNgDsnO1tJM17gwNiEavLE6Y8KWI/+h33m0jnzttpZ214a9NZXZkaf+nvs/LyDQ2eFNZ+/cW/b0qTgwySlbbd1e69nxfr/JpIxKnShA4nhpcgWaeNe2ijAdgtZJAAI0nSXrx6lQe1PRHtlXTlULHOsYmIbxD7tAAAIABJREFUVdpZ6dx9O/uYs3H5yGvVM7+TV1DwZFXPfr10+BVn4+yDnds/TTurBTu/JhLyqnPaC4cbF7XprVyWNMo3LoCRgwwSYFRFK1ecjYabA0X8+vGilXxo8zTzvfj/Z++94+O6rnvftfY+ZfoMegcIgE0Ui0iRoihKokRJkWTZKbbjJPbLTW4cJ7GTOM1x/FKek5vY9+XeFyd5aXZuYieOW64dW3GT1SVLVKEKewUJAkSv09s5Z+91/xgQGJCDPsAA4P4KH36gmTlnrwEw5/z2qpGe6bFsEbjlx42KjSU0TFEUzMrNga0/CtKZfIQxzYp0Z4anZS+sFhCNUPNU0Uyu+/24SoJUKBaMUpBLh/K+ZmLV3dQV6wBrrENk4/lzXzR/LeY5V1YNSHYm2f2ScNI4NSlbau6y8t0/x13B0hqnWAqau6xsz89rrkBeUJg5dipx5YfkZFbdHyIAMzyaryZ/Xo60EqqMRqFYBEpBFgYBkAAAkCa+mY4EkNe+IQAinCYic0dd+0Kk6xUkIdzw2KLsXG1XaMUK4iSGRGJwskyBSDLDp3lrrv1xriYYtyPdqauv5xdVSGGZFZtCuz6AXCVErkmQm6FdP2uWt03VXwMAQPrqa06sF5DPdGCpIBKat4YZvqkh8sjsWJ+THCmpXQrFmqTEIQYJjHmrwQyA7oXgBqq5HYJt4KuFQBMwPqHHECA5gqlBSA5T5Ar2vQzpUbKSaMUpPYbLE7MjmPAbzqDz2HXfXKfkph9VwD1ZLOVXFBmqWLukh864qrcT2AC5VEiXHmy0V2VVKSJP97+lBxrNqk10TXBIYfta7hHpSOTUV1ef61QxG4gstPOnPC0HpDOV/ohcy450pAfeRuSr89epBxqZZk5KXmQ8M3y2tCYpFGuU0ihI8jViw53SWy/dVVh7GwRb0O0DACSgG2PCBOCtIm8VVAMiwN5fJEtAckhGuuXYWZ4Zx7HT0Puyuv0obkKs0YsTQ1+IAIBIGqEN6d43SNirLSGSAEBYiSvPcW+55i6nibQ5kuQEtr5DpMfjHT8orYWKBeHb/Jh/08OUl/6ITHOSY/HOZ0nYq6qDzwREqJl6WXOeAxKllc6OXiypWQrFWmVFFaTUPFR9G9v4GFTvpoqt3ARGAAJIAjmzHkkT/xIACADGMVCPoXrWfgABZCyCwydo9Jzo+A4LX2CrMISnUCwPVviKkxjUg40kHAAgkpqvmrmCIjmyGrNvkYnkSOLys4FbfgyZNjGVmAgAy257P5GTuPRMqU1UzAv/5kfKdv4UEOV1VWTSycQvPS1TY7AKC2gAAIi7yjRvTd4wQ82Odq9On71CsfrhZWVly70GcRcGGmjvb+ChT+PW92DdbvRVAgE5AGLW+pPZTgogAQSQADBcWL4Bavfi5h/Dze9GkaV4LwrVmkGx/iFhGWUbzPL2yT58jOkyG7WiPbgKnUAAgEykxkhYRllrnpeUkDFXzQ7KJq1wZynNU8wD/+Z3hHa9HxHznXlAlLz8fHbk7GqVj0AkXDU7XBUb4ZrZjGupvjdSPa+X1jCFYo2yvAqSmAYtD8LeX4O7/xTrd4PuAaZPVaEUbZmJE6JmgKcM2x6k2juF5kZuYqKvqCspFKsPRG/zXVNuFc6JnOzoRSBabYHsSZzEIDJuhPLG0hAhclftTiCyxjtUUsoqBXlo+3tD29+LME0+ImCq59VU31EAXKV/dUTINW/zAc1bDnllNNEz/+HEB0pqmUKxVllGBSmZjvd+Gvd/DKu3gMQ52t0UCwIgYMFa3n4Imh+kTBhHzyz/qgpFySAn6268gxvea6qLmObOjnWQnVql93JEBLCiPUz36sH6aSnPiO6a7UxzZ0cuwGobrnPTg5q77Lb/K7D1MZoWvEZEnhp4O3nlh6t50wJA3FPuaTowORsJGXeSI7Fzj5OTKa1lCsUaZVkUpNS91PYYHvoUth0mQlj5GwEBCQDdBU33QuU2CHdienTFjVAoVgJy0kZ5u1nWOhnI5rpbpMbsWN9qrGaYguxIN9O9ur9uyicEgACuqi16sMka65B2qoT2KfLRfHUV+z/s23AXSSfPQ4zIWKr/WPLycwhyFctHABKu6u3u6m1T+R7cSPe/lex6qbR2KRRrl2VQkNW30Y/8Hdv5s+irXbwTgeVaMl77WnSuJONYsRE2vQdEGpNDYMUXa5BCsXphzHDX754qnUEGyDIj50pq1JwgkLQjXUz36oG6/CeIpBFqdtVsdxIjTmKwVPYpJvE07Cu/88Ouio35jXsAERmm+o8lLj8HJFZj5dYUBKj5NhziruC17QqSFLEL37WjPSU2TaFYsxRVQeo+uu2X4J5PYqhlotP2fEAABsgANUAOqAEyoGQEM1GwU2Alwc6A6UEdkAHyhXtVCIBr2Hov1e7FxCBEuxb6thSKVY7IRjxNB7jhmepkyk07fEVa8dXthkQkaUW6AHUj0IA4tVkkKbgr5G7ci5phjXfmT8xTrCTM8Aa2v69s189wM0B5bcNzdVqpnqOpKy/iapePACQ1f62n6Q5kfOIzwriTGo2e+hpNn+WtUCjmT9GK5shTBXf/MbQ/iji//CUEZEASwEpBrFv0HxUDxzhZzE6gzDIrDiSuJdUg6T7gpmSm5CarupXV7aWyTeAqQ84I5lGXQ0A2YO1OePAz4uVPs4vfWN1XO4ViYchMLDN4wr/pYXKyAEAkuekzyjY48cHVfmcHROkkO58jO+lrvQcZnwwyknSQ6aFt73ZV3hI5883syBlVXrOiIHPX7Qrc+m6zfCNJMb3vIyfhJLpezPS9mZvAVUIz5wWBEWrhhjevkbiW6T8usyoqpVAsnuIoSGo+DIf/HDwVIPMzmgqDHIADCYDwVeh4HM9+FbIRLi1+w+0Bp3/DchNgup8EpiPXIdQKOz8EjQfRXzGR+Djr/YVsQDPEHvh/oeU+eOY352pBqVCsJVL9xzwb7kXGJ2QWSbNyS7r/bZLOKvcPESABpXpeE9mYr+1+bgamxApJKaSrZltVeWui88XExe87yeGSGnuzoPnrg1vf5Wm5i3HjuomFyDQnE012PpsduUCwTEPBiguh7jIqt05rJO6k0wPHSmqVQrHmKUIU2wm04/3/g5U1wDwkGWogx7uo6wW89H189U+x6xmwkwsuuiQJ0obUCFz5AQ69Rek4SAKzDA19Dn8kASBioBmYScPHUdqzvlqhWDOITNjTtF9zhSb3cFz3OPF+kR5f3YFsgIluMOAkhpxYr+at4u6yfHcjSYFMc1dvcdffjsid+ICKPC4fmrvMv/VdZbt/3l2zjUhOuoQBAACR61akO3b+O3akC5CtCf0IUprlbd6GPVPlP1yzo73R099Q9f4KxVJYqoKk1kfZ/Z9mFW1zePRy/kPh0Ct/zo79HZz5Mg6+AVZiKUtPkBjA3pfg6ovY+xJwD1RumsPhQoBMo5o9VLObup5GqW5FinWBFJq73FVz61SpqWZIYdnjV3I7p2KsQUCT3v7c7VhOPAiEiEtbBRGZzMas8cuAXPfXTvlTAQCIpOCG11W3y1W/G4A5ySGlI4sLd5UFNj9SvufnPY37GNdpeu4pMg4gU71vJC49LTNRQL7KfdvXIETmabpTDzTkfzQSl5/JDJ0qrWUKxVpnSQqS2h7FQ3+GwfrZNnIMkAHE+unkv8Lzv8t6X4D0WNF3rmgnId4L3c9R9wtolkFwA+pstqA2Y7yyGfytdPUllGp6jWI9QHbS03Qncj0n7wiAGf7M6AUS2aXe7ImABDJd85TrgQajvM1Vudms3GSENnBvFTO8yHUgKZ0MTiQvL3Y5ZCRsK3xFpMOat0oz/ZT/MSYCkpor5K7f7a7bw3SPyESklVzSW7vpQWR6qCmw5bHQrg94m+9E3U3SmZYShMi4bieGE5eeTve/CVKsfq92PtwM+doOwWQbSGQym4ic+KrMRktrmEKx1sHW1tbFHekE2thj/8zKW2bzPjIAKwWdT+OrfwKZyOIWWgR063+Bbe+Fiu0AsyVHMhPE5ZfZ0x8pjjdUoSg1lXf/trfxjsmWK8h44vJzyZ7XcEmD5giZblbf4q7axr1V3PRSXoctBAQAYadEOiKSI9nxTjvaK3NtsxavMwikYK6Qp+lOd91OxnR5Qy02cg2Z5iRGUgPHUt1H7HCndNRWcGEww2dWbvG0HHTX7OCuIEmHrv85I2OacNLpgROp3qNkxQF5aWxdLCQdb9MBX/vhybfGNCN59ejoK58prWEKxTpgkT5IaryX3fdnrHzTLN5H5ACJYXjuY3jqn2BlOwPjyAnofl7EelnzoVma3JIADDZDaCN0v6DC2Yr1AJGn8Y7JVEhEjtzIjl7AOQvcZgABkOv+zY94Ww5q7hAyjaQAkpNfRJJIItO4GdD9tWblFrNyMzOD5KTJSgDJRelIBGQkMtb4ZSc5xAy/5g4ismm12CRJOszwuCo2epoPuKq3czMo7ZSqrp0TZLpZucW/6aHgjp/2b3rYLGsBxknY11VB5hrfZMOdiUvPZAaOgbTXnHwEIKa5/G2HmBnIe3cYPf11O6YG3ioUS2UxCpJc5fCuL2NZ84zyEQE5UGIYf/BLOPDa3OXZywDaCTZyAgGgbh/y2SLaWN2Okaughh8q1j4iE3U37OGT9TQkmem34/0iObpIjyBJb9NBb+NeEoJo1i6vJHMvYLrbCDUZlVuYu0xkopSNLzaujYAokmPZ0QsiG2euEDcDeN2AASKSAoDpvmpX7XZv052umh3cFSAgmY2V5MqzakHD56ra4m29L7jjp/ybH/HU7mSmD0iQFNPbJCEyDZHZ8cHklRdS3UdEemztZD1OR0qzot3TsHdqajzT7Ghv7Ox/qCRahWLpLFxB6l6491NQv3PGymsEIAldz9NTv47hi0u2cGkMvA7Rq1B7O7q9M5ZpE0D5Fup/E9OqUYhibUPC4u6gu2YbyWu3TK4hM6zRC4s7H3eX+Tc9hEy7QTvizLqQgCRyzQg0uCo3IzdFcoQca5ESFhmStGN92bEOshNoBrjpQ8TrekMSSSDJuKH7a9x1uz2Nd3ga92qhJmQ6kCRh3ZxVt8zw6YF6d/3tga3vCm77Mf/GH/HU7eTuICKT04YT5shpR7Tjg8nuI8muF+1oL9BSshFKDaKv7X7NWzm5l2CMxy89lR44UVq7FIr1wcLyIIkAdn8ED/wWES/sjEBABPnG37Ljfw+rZly9rD+Ahz6NM6dsogaUGIQffASHjq+saQpFkdF8dTWH/4ibgQm/CyIIO3L663a0Z8FRSOm46nb5Nz96rTJnAsb1CccV58g4EJB0SBbwUCIyYNyO9iY6n7ejVwHZElxZBFIwM2BUbnHXbtd8NYxxeb3/bGpdZDyXwWKnwyLWb0V6rMgVa/yKSI9LJw1yPQpKROQG0716sNEoa9VDG3R/re6vY7obiAjkDe7GqQMZ49Kx7Vh/ZvhUdrSD7BQyvgZahc8CCT3YHNr+k8C13LtGZCITG3ruj1VXUYWiKCxQQVZuh8f+FbxlUPDym3NJvP4ZOPYPuNp2/GWb4MD/Da33zSQimQ6i6wh76sOqqkax1im//Rf8mx6erCxhXE/1vxXveGqh6o2k427Y59/4IOS1YgYpEp3PW6MdwDlqbm76NF+9Ud7KvdWc6wSSxA1VL0wTVirV/VJm4BgALm2wDIEUqLuN8o2u6m1GsAk1E4AK6tdrJjNkGiCQcEg6TnrcjvWJ+ICdGHDiwyI1aqdG16qgRMbNgOat4t4qzVet++t0f53mq0HNjVxD5FQgSJ1/OCJyABB20g5fyQ6ds6Jd5FiwpLqr1QP5Nz7iadg92RGdaWa84wfjb32htGYpFOuGBVwpyPDDvZ+aRT4iCnrzH+Dtv12N+9ZwBz3/cYK/YK33FBSR0gZsPAg7PwRv/uWKG6dQFJNE10ue5ruY5sq5IUkKo2Iz731LpBaWDYmIlI0iSZqMGhMh07inIjP6bZEOX3sZY7pHCza5G/a563YZwQaSMr+ql6TDdJev/QHuCiW7XwJhLyEwisA0ElZm6LQ1ekHzVhlV21zlrcxTgagBXNcBO2eynEp6Y1z31Rj+ulztiLQz5GSlk3KSIyIx5KRGnNSYSMfITohsQtpJWh313UxzM9PLDB/TPWgGdE8F91RyT6Xmq2KGD7nJNJPpromsUJJERMKhmTKNEBFZrnGSE+/LjF/KjlwU6XGQAhhbJ/KRpOarMio2Tlbx55r4JLteKq1dCsV6YgE+SNH6GHv0bwrLx1zl9aUn4fnfWUDZtaeaKm8FdwVKB5IDNHwSnfR8j10cVTvokX8CX1XhnEgEsDPw9XdgrGt5zVAolpmquz/madw71daHa6me1xOXn1uYdCNCrod2vk8PNOUrQqbpVrQvfOyLmcGT1x3BXSFP035f+0NGsJGkQ9NqWZBxnh48Hb/0NDmZImTXEQEQEXHTr/trzcrNeqCRuYKM67kK8bnmaONEY9rcbBXE3CPCSks7RU5a2mlppZx0hKxodvRiqu+NlRzMzXSPb9MjelkrNzzc8KDmZpoLdQ/TXQAAJIGIiHId3Wmir/usICIyZExaGScTscavWOFLTmJY2mlkEyNj1w9Evo0Pehr3TnrEmWYkrr4+9opyECgURWO+lTQEDA99Cv31hSNFHCA2Qs/+JqZH5nM2WXsH7vwg7fwgbP853PootD0MTQ9Q3R3gq6doNzrL1iI4NQxWHDY8OOMLOAM7jX2vLJcBCsWKIO2Up2n/ZNgaAbi7zBq/LO3ULP2trgcRpC0ycbNyI2P6ZJiYpNTcIU/DXs1TaY1fJjHlqCMnY41fTve+LoRtlG3guitfRBJJI1DPXSE73AW05IHdiDlVRNISqbHsWEd25IId6xNWHJnOuIFcYxMetZnUVU6Bydz4PpKCpAOMMc1kpl/zlOv+GnflJtA9ya6XRGpsSdYuEJI2093+TQ+5K9rR8DHdi1yfjMWTFDTRUIlmfneQ6wbOmE4kpZNxYv3pgePp3tdTPa9aYx0yGwUiXFJy6qqEpOat8rcfxsldCiJJETnxZScxVFLLFIp1xfwUJNPgwB/i5kdIFrrQIEA6Ck/+Ehs/N+eZiOl01yfZXR+Hxv0YqAPUQABIAMPNKlqg/i5sfwzsJIYvLVft5OhZMENYd1vhqy5DCG7A4ZOQUN3CFGsYkR4zKjYbgXqa+BwR193Scexw58Kcf8hkZpykbZS1IbIpEUkSGHdXbTGrton06HU3ZnKy2eEz2bEOPdSie6vyI8tEQvPVoOmzwp1IskjaBSEXlpW2kxyxw93Z4bNWuNNJjUs7RciY7kbGkXFEhjCfNXOykpDx1OCpsVf/2o5eLYadC8OJD2SHzxhlbZq7jIQ9q1KcIOdlZEzLzRonYdnxgezYxczA8VT3y5mBY3akW6SjQBIYW8NF1nMgPU13muVt+WMMM4OnY+f+UzV4UiiKyLwUJDXfj3d9nFArcAVjAHaanv4oG3h17tXc5XLPR9nu/wrcBAnTQskEkLubuP3QeD+UbyY7jbEemLEHzyJBABw7SzV3sLLaAhqVgPm80naw96Wbs/2HYp1AkkTW3bg3Xy5xV8Aa76QFuSEBANGJD5KwjVAzMi0/WkrS0bzlnoY7AMAav3Td7VmkRtP9b3N3mVnWMn04odT9tagZ1ngnFtn7lcvwQ5BCZuN25Gp2/HJ29Hx27KKTGJJWAoRNRMgNzg1giLn49UzlyZqW6H51/I3PrbD3MR+RiaQHj+v+OiPYSIXVz0T7RsY4IMsNB7ITA9nh8+m+N1NXX80MnrBGL9iJQRIWAOWk9sL+ANYWJLmn0td2OK8FFZIU0ZNftWO9JbZNoVhfzENBai7a9SusfnvBAhTkgB3fg7NfQmnPfhoiott+he//CDiz7qUJABlWbYT2d4KrjMYvolXsIRN2CjLj0HQPaq4bLSEC9DdC5w8wGy7yugrFCiKSI0bFZiNQd015EDe8RI61UDckIAA4sT6RieqBRqa7pilFksg0V+0O7i7Pjpyj6dcBcjLpgWOA3FW1ZZpmITICDeRYdqx3WdRMLsDNOAKBtGU27sT6s6MXs6MXrLGL1liHFelx0mGy00SCaeZ1NiAyRBa/+ETk2L+VfO422al0/zFm+MyKthu7cpK07VhvNnwlO3w23fdWuv/tdP9bmYETVviKSI3RxKRydi1UvX6F4xTS03zArGifckByPTN0OnruW8oBqVAUl3koSF8d3PunJAt0kkMOFOnBZz6K2XnMvC7fDHd+As3APEIxOX8kQs0ubDkMdgrHzs7jmAWA0SuQjkLz4QKXVAI0XIAaXn2uuIsqFCsKCXIy7oa9+fKIe8qz4StkJReo2xAQRWLQifdrvkrNnbtoTH6SCYBcFe2avyE7fDo/LTJnRnb4DCI3q7ddN/tEDzY68UGRGlvOcCpOdKlFhsiQpLTTMhNx4oN2+Epm8JSTGjWrtjI+leWZi/9GzvxH7PTXaa6N8cpA0s4MnkCmuapvyReRiEzaqdjZxzMDJ5x4n0iNSjsF5ExIxvXtaywISc1X629/AJFP/KByGZAnv2pHlQNSoSgycytI2vmL2HxgpuJlOvMV7Hp6Xks1H2K3/uTCIsME6A1Bw73oWJAcKG6nRhw7Q033g6+m8LPBNuh6EjLKDalYwzjJIVflLYa/bjIbkukuRGaNX16MOwqZzEbtsctExN0VTDPznTokhRlq0gINmcHjJK4XXpmRc0x3u6pvycuJJMYN7q2yxi6RtFbOPYYTSZMAwJjub39Q99fS1IUJGePRs9+MnfvWSlZezw1RduQcai531RaaMoyY7kHNZY1fAkRAvtgBkusDAmTe1kNGqCnPAWlkR85ETn99PlmkCoViQcyhICUz8PBfgO4t+OlDKejpj86rdFp3w97fxLLWBac1SgCuQeM90HSQJOHoqQUeP+u5rQTf+mhBUYuGAWYFdD5RxOUUipWGSGZjnqb9eb4o0twVTqxPZMKL8fwhA2lb4St2rJe5Q5q7PP/GTCSMUBP3VGUGjt+QRkzZkfPcV22Wb5icuAgkNVcAmGaNd5ZA95Bw1Wz3NN6RrxSZZsQvPx85+dXVGPEkyo6c13y1ZtmGPMlL3F3uJIeX2ZW7FiBplLX4Ntwz9QgiSWf82L868cHSmaVQrFvmUJCichfb9jMFe8yiBvLoX7PeF+e1t3NXwl1/NGMDczb3OdBfCc33kadBjp1nVmzuFecBy4xDzT4M1t6oa5GBlCjO/W82UwNMhWIt4CSG9VCzWbZh0iuDmgGaOzt6EYgWFeVEQJDZqDV6Ebmp++vytR+RNMtaUHdnBk9e/6kmYY1eNCq36t6qyaIQAtK8VU5yRCQX1u18yRDTPb6NP8Jd/qmhyVzPjl0ef+NztGomsl4PiexYh6tmu+YppzyzmeHLjnXgKlS9KwYRMs238UHNVw3XtihMM1M9r8fOfbu0pikU65U5FCTe9iFs2HujvEMGFOnB1/8c5xnnNYO450OFZaK0IRNHV65N7sxnkACIrPpWtu09ADqMngVpzfzq+eGkyLGg5YGCty7U3SzcgZFLS11FoSgpTmrc07Qf2bVUZpKap1wkR53kMC5StCEgAxJWuBNB6sGmfCVKJM2KjWRnsmMd1x1GTsaJ9rjr9zLNNflpZ1xnrmB29GIROkTOG5LCXbvDXbd7KqqOSMIOv/XPVika98wfctIiE52W3kpSc4WcxJCdWPQvdM1DJIzqrd6m/ZPyEZFJOx1++wsiPV5a2xSK9cpsCpJcFbD7wxioKeCi04EuPYUdj89312sEYOcvFG4GNN4Bz/42ODb46tHwzOGMJABuQuMBqtwhiVi0c4k9dyg1AvV3sWCh92jomBjEvldWVzqUQrFARHpc89a4KjdNuSGZxl3B7FgHyKWINgQCO9ZHwjFCGzBPRCKgUbXZjnTf2MBZpMeBMXfdrinpRlJzhUhYVqR7ZQQQAgA3/G2HuSsw5YDUzGT3y7EL31sBA5aISAzqoSazrCXvF8qR69bIhcX6ldc6xHWvf9Oj3PRNXq6Zpie7Xkxcfra0likU65jZrtfYdDdW3VJAoSGABBbtRDnD3NWFgMhx7DS+9If4yqfIyaI21x2NACSwDXezBz8DBz9JqC9p9fQoZMIzrUjVe8hduZTzKxSrgdjF7znp8Uk3JElHD9S76/dMOmwWCSIApfteT/a8mu/IJ5Jc94R2fYC7C2xQE5eeyYxeQJ73ySXpabzDKGuFG6ZaLwdEQg80af76qVGNyEQ2Fu9YG3nPRDJ24bsiO1VQTySMYLPmryt6A921gZTuhj16oCZfUjupsfjFtfELVSjWKLMpSOlrQrNAF3FkQOM9cOWp4lmhAwB0/Cd848ecE18BEMjn0JG55pR068/AO75Ajfcs2o+CiKzvZbKpQFcfB7BmOwXbFndmhWL14MT64hefmObhk9Jdt4f7qpdcMoIAmOo+kh48hXwq0VkK2yzbENz+vhsPkHYqevqb4GTzBJBkutvXdj9z+VdEA6G7ZhvjUx3KGNeSPUetcPfyL10crLHOdP9bbFKFEzHNNCu33IzxEpLcX+Oq2523HUJEjF14wo71l9IwhWK9M6OClITSVTFD5iJA5/cgeqXYxhCGL2ov/yE893sQ6QaiWfXthDMSW+6iR/+Z9n+cyjYtctlzX4PkUGEJaujSU7jdj0Kxtkhcfi4zdnlScxBJ7vJ7m+4CnEch2xwgECWvPG+Fr2Je1Z1wsr4NB71Nd954QGbwRPzKiyzPDUnS0QN1vvYHkRnL3HiFuCuoBRvzMiCZtFKp7iPLuWjRodTVI9JO56twvayVGZ6bLOuGgHFf813c8OWVFmmZscvJTtXQV6FYXmbUaOipZNU7CoawKZvEM19aPpvw4jfp+x/CVz4NybE5Y9QkAJmGt/8yvvPzctcvgxlc8Hp2EsbOFPZhEgjuWfAJFYrVh7QSsfPflsKZ0hzCMas2u6ogtKhBAAAgAElEQVS3FiF2jCitZKLzOZGNT3k6iQA1/y0/wV0FPpWxc49b4a5pIlI4rqqt3rZDuf9bqkkzQFLogUbNDEx2VUTGrMjV7OiFZVpxmcgMnbWivYjXMhNIcndQD9Svxj5Ey4cUrqptRsXm/IooKezYucelnSqpZQrF+mdmBekKYai9wLUIAWLdkFje6ABGLsGpf6bv/hydfXxi0VkhAeBvwIO/Bz/yd07F9oUuJy5+p/ASEnjLIeDmQk+oUKxCMn1vpnvfYNy49gAhck/z3dxTXgTZgdyJ9aWuvpo/PY+kY5a3+DY/cuPLRTocPv5lYaeQ5SVQSump3+NtPQSAyyMiCRk3ylqQ8cnzI/JU3xtLrMlbeUja6b63pjIHiLjm0gNNN1ElDUnuKfc0H8Q8PzrjRqrvaLrv7dKaplDcDMwcJ9bd6A0WSIIEoJETK9N0g42fhec+hi9+AqwUM+fKjBQAEqDxLv7ub8CBPwDNtYCVZojIEwGr2DKRpqlQrHGIZPTct0R6fNJNSCR0b6Wn6UBxZAfy9MDx7FgHy0uIJOH42x7QQ803vjwzdCp25hvXRjZfs4jI23Snf+MDyPSii0gERG7ywFQIG5GJbDw7en3joTVBdvRcvtOXSBjBJuTGzRLIRvQ23aV7yyf7q+cKaGJnHlcTaBSKFWBmBelrLPwkA+fqkRX7fCJIOP+/4YXfc85+C6zknJmRJAE0g3b+Atz7afLVz3MVLjKF5SkBuMpvoj29Yr1jR3uiF74HeW4/KR1Xza1GeTstvbUCIpCT7HlFWEnMy8/jrqB/UwE3JADELj4V73yeafqUiCQiKd31t/u3vJObAShGw4dJiKTmqdBMH01ewRh3kiN2ZM3U0ORjRa6K5CiwvEC2p4wZ3pthriFJx6zY6KrZJqf9hWDs/HfsmBqBrVCsBDMqMqrZM1NNJNrzGGNYVLDze/jUb9Gzvw2JYZirTDvXexy2/Tgc/JOC03QKkI1RYrTAaQnA8JKvblFWKxSrkWTHU9nB01Ox7Nwwj9ZD3B0sws4QuRPrTw+enJQ1AEDC9jTeYZQXamtAInL8S8mrrzPNyH+UpHBVbwnu+Em9YhOSLFZuH0mHe6uAaZNeOkS0Yr0kskU5/wpDdtqO9k514iRAZuj+2psgFVJyd8i74VD+r5JpZnrolGoAqVCsGDP79Mo3F46EIHBRggxlxhjrfhq+9R46/q9gp9GYVUcSkA3Q9gDs/vB8To5OGsKXCzczRsTAhkWZrFCsRqSwwqe+5mSiee0hhear9rbcm+vvuNQFkKX73xTJsbzoquSm39f+YGF77PT4m/8r1fsG49NSVUg4mqcydOtP+DY/qnmrgASQXJx5CAAkSTrM8BuhFsxTt0Bgj11exDlXCdnxS/mTyZHrzF1JS2zzudohQO5tuVfzVU1rAJmORE9+jcSSZ5UpFIr5MbOC9NTMdK1momRDYzHRx175E3zmo7L7NXAs5LO+GEFufo8w5lGd7aQw2l34h4EAIdUSUrGusMY74x1PsGluQuGq2e6q2VGMnt4o0rHUwPFpow6F7Wm43Qi1FDxAWomxo/+Q7HmVcX2aiJQCkLnrdod2/rS//SHdVwPASDrzkpJEQBKkA0DAdD3U7G0/HNr1flf1VhJTcU8CsqNrMoSdw4pMm8GIiJqnnPHip5CuIqR01exw19xKYupvFRmPdzxhhYveY06hUMzIzEHeQFOBSxACpaLopJfTpHnQ/Sz2vwqN99L+j2PFBpohUYokoLsSG++CzrkmE0gHMmMzOjV171KMVShWIfGOJ901O1w1t0on57MhBOZtPujE+p3kMMy+OZsLZCwzfMZde5vmLc95iXLZkO7mg9YMGYfSSo4f/azIRP0bH8pFsSeeICKyUXd7mvaZNdvtWJ8VvuzEBkRqTE54m6ZyGq99hBEAkBvcXcY95bq/wQg1c3cZagbIvDMDADKZjYt0ZClvtrTITMTJxpnuygVziSQzfcANFNb6lJBScG+1t/ngxGw0AABgmpEZPB2/+GRpTVMobjZmVpC6q6CChGwCZOnDBGin4MoPKHaVHvprKGsHKrTlJkCXB8q3zK0gASA1jFj4HYO/sQgWKxSrCbLT4RNfqbrnd7npvybyBHcHva33xc7/JwhnafoDZTaeGTrlb7+fYEKxkRTepjsSHU+IdLjgMdLJhI990Y72BHf8pOYKSScvN5FICgc1w6zcaFZuFNmktJMiHRHpcWklyM4QSURErqPmYoaPuYLcFeK6m+luZBpJQUT5rscJKxlzsrE13ThQ2imZiXLDM1GPTMR0L3JdiuzKdMxYSRAAddPXfpi7A5O/TWTcyUTCJ75CJXdtKBQ3GTMryJluIMiowAjA0oBjZ+Gb76XtP0vb3o/+2gKlPxzI8M/L2mx0pmcI+Sp5vwpFEbHGL8fOfLNs989NNl8k4ZgVGz1NB5NdLwDAUiQIIsuMnHU37OaGPzcsJJdt6W64PXHpmRkPI5G4/IwVvhLc+TPu6m0AMK1C/JoK5LqbGx7dW53zNuZbOeGQpNy3REQk7IIGMq4BMityVViJRb/NkiPttLTiiA05pU5EaHgmGvqstyYSBACe5rvN8ra8zQASUfTUN6xwZwktUyhuTmbvjrMWsKKy47uYHi9YB4MI843HzeZyWZ/hIIUi0flsqndaHTSR8DTcblZtpSXW8yKT6Uh27BLkfTIRmaf+dihcszaFNX557OX/OX7sX+zEEOMG3tBRgUiSFCQdEg4JW+Z9kXBIOCQdkoIKpUsi40wzgWR66OzY0X8Iv/35YqR+lg5hSSuZJxaJcRP5OmxhSySNqm3u+j2U1/udaUa657XkFTXAUKEoATP7IJdpJERx4Sbt+21sewQCTQWzIUnMt/cQmQFc/e9XoSgqJEXk1Nf00AY9UDfhqyNCxn2t94vkmJMcWlJCJII1ct5Tf/vkA1LYZuVWs7w9OzZHB2/pZBMdT6V73/BuuM/TctAMNgAiSUGLUnuIDJEDQyCy44Pp4bPpq69mxy6ug7pdIknTA9aIiNy1Fi7fC4GE7qv1td2HjE/ubZDrVrQncurf13vtuUKxSplZQVrJAhUkBOCuRM29rDbNCzMgK3bBvt9gDXsQZhhIhkDZLIQ75hPLQW9twSsuAWBkDTf7UChmx0kMR058qfLAR5FpE+Fmktwd8m58MHb2W+SkFx2pQORWfNCK9BihpolgNBEzPL72B+dUkDlEOhw7961k53Ou2h3upjvNslbuKUdkRAKIgCgvZj25au4fBEREBGQA6GRiIj1qjXWmB45Z45dnSsRco0gni9MD1tOba659SDLd62t/kLvy0h+RkZ2JHP+SkxwprXUKxU3LzAoycgWqt1+/jyVAUydulja/hvzNcOjTrOkumkk7AgAAMpDJIXHl2TkjOsR0cFfO5IMkYa+zfCKFIp90/9vRc4+Htr8PiK4lRNqusg2y7XC84wcg5eIy6giAnExm+LQRbJh6UNjuxn1m1wvZ4XPzPI/IRpPdLyevHtG81XpZq1mx0Shr17yVTDOR6cA4sokxA7noNkhHSoecjJMataM9drjLivbYsT5yStaGbHlxLLquee88JymsCYiAcW/bYbOsRU6ltCIgRs99Kz1wvJS2KRQ3NzNeaDAbASw8XrWECpIAoO1R3P0RqL11piY+0xjv0ObR/xw1F/kbC8/gIYC4mpGlWOfEz39XD7b4Wu6arICWwnHXbBeZcKr7FQBYXFUNY5o1dtFpuF3zVk219dE9wVt+fGTs8sKCyEROYshJDKV7XkNEZviYp4KbQW74mOYiZABEwiaREdmEzESc9Dg5mZthQjTdELDO7/S5xiEA8jQdcNfcKvNK6ZlmJLpejl34XgktUygUMypIivcW9jsQSGaWpACHfA1w359D3R7QXXPKR9RAxobYy380m5dyEt0NwQ2FKwcIYOTEIqxVKNYQJJ3oiS8bgXoj1DLZZ5EAfM0HZCqcHj5zYznLvE4LQNlkuv+4f9NDkw9KYbtqtvs2PhRfrAIgIpGNi2y8YJX1TUeBgqF1EjUhKVy1O73Nd1JewzamGdnxK9GTX1nbJVAKxdpnZinYd2TGJwNNy2PMzJRtcrb8JL3z37DlLuCuOTQhAuoA0T544fcgOTif00vNh4HawqnndgqzsUWYrFCsLZzUaPjtLziZyNTQPyJAzbvxIaOsBeR8fP4FQMbTw6ft6ECeBiUgCmz7CbNqWxHsViCuG8k4DekYZRv8bYcR+dQcc8adVDj89hec1FhprVMoFDMqSIx1k1PAKUcSePPdK9ZpTBLR5vfQw5/VH/lzDG0gZ64SQwYgbTrxFfrBR1jPD+e7ihGY8WypYVrsvVOhWFtkRs5HTnxZSjH5ASeS3PD6N79D89fOy51/AwRAdjp59WWSdv5pNcNbfvt/5d6qoll/83Lj1Xjtx+5JaL4a/6Z3MMM71VgKkaQIn/hSdvRCSY1TKBQAs/kg7TSkwgWeJ4DQpuU0KY/yLfjYF/C+P8PyVpmZ66qIwHTAWD8+8SF8+ZM4emr+67DGgwVPjggQ60apYmWKm4Vk10vxC99Bpk3qEpKO5i73b3qEuYKwqCaRyLgVvpIZOs3yQuFS2EaoqXzvLzLTXxzTb1bWvlq8AZLMFQpseYfmKcvbwCMyLXru26nuI6W0TaFQXGNmBWnFKd5X2NXob0QztGwmAQCA7oOGA/TAX2LbfcTMOX0fqANIIftO0Au/Bz0/XKizhFXdOsMT4HS/tG5LOBWKQsTOPJ7seplpUz0MSDp6sMG/8RGme6BwxdnsIAAlu49Y8aH8fErpWO66nRX7fpm5ZggCKG5GJNM9/k2PaIH6/PgP04xk10vxc4+X0DKFQpHPjAqS0mM0cgZuLOkjQN2kW392+WySNXvo8F/Qo/8MlVvJntv1iDpA75vw0v9D33k/9i18e6q5qeLWwosgsMwYrrfhYArFbJC0w8e/mB46zTRz6kHhmJUbfe0PITcW5fZCkY0lLj9NdgrzZtKQY3sa91bs/1XNW1kM229GCsSw13AFOjFu+jb9iFnRTtOKr83U4MnwsS+qnCKFYvUwcx4kCUwNFx4/xpDaHyNvXdGtId0H+36HPfx3uOkh0FxzODsQkAOkw/Ta/09P/iqe+ypz0otZtf1d4K8vsBYC2cQtla+tuOmQ2Xj46D9mxzuR5w08FLar9lZf24OIHBcuIhG5HemKd75A0xtMSsfy1N1WdffHjPK24livWJsgEKLmbX/QVb0tf5o544Y13hk++jm5lieYKxTrj9na8rBYJ6WdG3e4JAErN0Lbw0WygUBkgWnUchje+13a+6vgq5nT9YgagLRp8DQ8/l58868wvcixBARAbY+gUaB9GnKA/jdg7PzizqxQrGns5PDYG/8oUiMsb8gyCdtdt9PX/gAgW4SIBOSZwRPJntcQWL7vTDpZI9RSdffHvBsOzTk1W3EdBVO4V9yKpYJAgMzTdthdu2O6fNSd5PDo0c85qdESmqdQKG5k1ot17xEaPlVgLi4BcqTqPVSc8YaMmu537vokPvS3EGoGOXcSI3KA3jfhhd+Hb70bo1eWsjaFNkFww4zOzt4joC5bipsVO3xl7OjnnEwU+VTyIknprt/tabufABcezkZElrp6JNHzGiJO80QKm7uC5Xt/sWL/R3R/fZHewc0BrYNabCJg3tb7vQ2784dcI9dEJjr6+mftSFfpbFMoFIWZVUFmxmHsXMGMGukAq9uH/iU3hpRAvjp44C+12z5Ac4atAYABGgAXvw9P/jJe/A+c11yaWc9XvR1CTQUKTBlQJouxriWeX6FY02SGToff/hdppaaaRAKRFN6Gfd7W+wEW7IkkAARIdf0w0f0KEE3LiZQCEfwb7qm67w8Ct/wEdwWL9z7WM3jDPNa1lgdJAMzXesjTuJekmJS/yLjMJsff/Hx25Gxp7VMoFAXhZWVlszwtpMDWR/M9EBMQoMsL8X4YfGte6+heuvXnCsenNAO4BnMWTzNADWj4vHz+99npz4MVn9e6s+OuhAOfwECBeYbIgKI9dPQvUCwqt1KhWC/YsV6RCbtrdyHjec4tMoKNyF12pAsnZOECQAQ72k2OZYSakOv5swdJCm543LU7XPW3M90jMuPSShbv3dxoydoL+F6Hu263WbmJrg1oQWTZ0YsiObwm8gEQCJH52g97GvdR3lYekUtphY99IdXzagnNUygUszCHgoTkMN76AdA9hZ5DqNkHF76O9tzXdwKC2r0YalxUEScgA0iHoeP77JlfZ+PnoUgNGkX9AXbHrxT0YyIHGDzBzn+tKAspFGsaO3JVWglX7U5kLF/tGcEG1N125CpML46ZJ06s30mMaoF6bvqmDbAmIhLc5XfXbnc37teDTYCMnFSx+mpx06eHms2aW31tDzJXaK1HSF31u10VG9ekgiRCrnnbH/A07CGSeYNnGJAYP/bF5JUXS2ugQqGYhTlm3TKRho7/hN2/UCA3kQB1U255Hx772zmXQTsJl78PTXcu2EAGCEDnvoGXvk09LxVzFg7jsOPnZwqDUzqFb/5l0dZSKNY4icvPAONlOz+AjFPuckBEJD31e5BpiUvPkLAWKFkQEK3xi9FTo77We83KLYCc8iYdkxQEQnMF/e2HfRvucVIjduRqZvi8HbnipMalnZR2eu4O50xjupvpXm76dX+tFmjUgi26r4qZfs0VZJoRPvmNhf8wVheFLoprIYpNErnh2/iQu3Znfo8eRC6FEzn55WTncyW0TqFQzMkcChIA6MwXYdOPgrfyxlAvIeCO/wL9r8DQ23OeR159AUY6WPWm+eYuIgADGLkgjn6G9x8BO1XEeBMRwM5fYi0HC0fPOcBb/wQjC5hqo1CsexIdTyKy0M6fQWTXAo5EUrjrbmPcjF96UlqpBfu9kIt0OHruO66ay57GA7q3kkjmRzOJJDlZANS8NbqvztO0n6QQ6YiTHhfZGGXjIhuXdhpENqdCkGnIddTczPAywzfxryuouQITzcyJCAiklE4WgGhNiK1ZKSQgV/2bIskMr6/9IVfNtMY9iAxARE9+NdHxVAmtUygU82FuBQnRbufM1/SDv0bZG56SgMFKueODOHxyzqIWluilnhewbl4KEnNNi098Gd/4DGbCcx+wULa9H+78WOHCHQYYG4AL3yz+ogrFGid+8QkCKt/1gTwRCSRss+oW1Mz4xSdFZhwKtG+YFWQAlBk4ZYW73bW3uWp3cncQSOb7IwGIpDMpi7grqHnKJ9QqEYEEgmuON7z2HwNEIElSAkmSRNIqtPiaz4Ok2QsiVyEkuKvMv/lRs7xVXi8fZeT4l+JKPioUa4G5FSQi8ugltB1CrcB23QFsuotq9+LAa3Oeip36vBPYwDc/RLPkMSIAgOz8IQ4dx5OfJys252kXCuk+an2Y6UgFbiiAGsj+ozwzuup38QpFCUhc/AFIWbbr/cj1SZFH0jbKWgPbfix+8Qk7PpA/unB+IDAurUSy+6XM0GlX7Q6zaqvmrQACmO6SnFiOJInZ4tcL+PAWaIWz1kB2nSNyNVcHkXT0QH1g06Oav3aafGSchB0+9qVE5zMlNE+hUMyfuSppAAAAE/3gqsLqQsOjCVB3QeU2HL8Iif45TmQnse9V9DZC5SbAaxc9vPbFABiAsPHY5+jIn7LeH4K40e25ZBBh3+/i5neBKLBxRwaUjuIbfw3hjuIvrVCsC6zxyzIdMau3M82YykQkyV1Bo2yDkxqV6XAuzXGBJ0ZAIJGxwl3WWIeTGCZEprmZ7kbGEIrfJxsZz453ZAZPFvm8K4u7bo9Z2T6ZSojIsiMXnNTIqqukIQKSRnlbcOu7NG/ltNxHrkk7E377X5JXni+hgQqFYkHMS0GCsKjvFWg+jN7KArt7AgxUUc1+6HoG53IZopOmrmcg3AnMTdyN3IRcdaeThsQwXHmWnv0t7Pw+Lod2BAAA2fIQHvxDYDME2hDg1Jfw3FfWRiq6QlEirEiXkxpxVW9jmitfRDLDY1ZsFHZapoYRYOGiD3Ndx8mxnMSgNXo+O94pkiMkLGA6YxyZzri+oB48iAwZQ6YxpuXi2lNPMc0au5QZPLFAI1cX7obbzYppCjIzcl6kRleVgkQgRHDV7vRvfpSbvvwUBcY0kY2Pv/VPqauvlNBChUKxUOYbbEInRSf+Fz30FwWfJRuwvJnu+W/wwu9Ceo5B0igt6HgcOh4nM4StD4O3BqQFY+dh6Bhko8safqHqXXjoT1FjhcfeMIDEiHjzb7Q5p+IoFDc9qauvSCtZse+XNE/5ZDiSpEDNFdj8cMpTnrp6BIS9SB2DCMgJQCRH0snh9MBxpru4p0rzVnNPOXcFmeFnpo9xAxCxYDFJbhMoHMdOkJ2UVlKkI9wdNCo2TavgXgdbxQJyepW9K5LANU/z3Z7GfYBsmnzkupMaG3vjH9e6J1ihuAlZSLrSpe9A8/249Z0FS2HIAWy9j7J/iC/9Adip+ZyPZSNw/t8XYMDSoNBGOPxX6KsurA8RQAg8+j81pxi9yhXzBokRzjmMSLEayQyeGH3lr8ru+GUz2CSda3EDkgDobT7AXaHEpaellZjR5T8frglQaaWl1WWNdyLjqBnAdMZ15Abqbqa5kWnAOAISAYKQwiZhkZOWdoakIGmDsKWTcdVsNys3T6tUXvuVNAXSBVZVLbYUzPT5Nj3kqryFpMiX70wzspHu8aOfs8Y7S2igQqFYHAtQkEgOnPkCtNwLZqBgFTNJwC0/CiMn4dQXimZgsXCV4YFPQGXLTEU8yAGGzlDn99f8/WSNMZkMu5rueYp5kx3rGH3p/6u448Ou6q3Ssa79HolIuGu2cXcofukpJ9Z3Y7XHgkEE4Mg5AIBwSNjCmlhr4gWTf0FT6+C1AwEIkPFCdeKrKNS77iAgqQcbfRsf0gP1+V17AJFxIz18duz1fxDJ4dJZqFAoFs/88iCvQfEBYgZrPjDz7R6p4SBlwhi+CHKpQ6uLBVXfBu/4PNTthhksQg0oFacXf59F1VZ4hclVSCj5uIaRViIzeJx7q8xQU357RSLJXUFX5SZyLCcxBABFrYVBwNwXm/kr557Da3460jyVrqqtebNPtOz45czAseJZVQI8jfvM8tZpeZDDZ0V6rNR5kASArvrdgc2Pau7y/LoZQGSMJ66+Nv7GZ2V6vHQWKhSKJbEwBYmIOHZOuGtY9S0ziUhkDJvvB18djV/AbLQ4Zi4BajiI9/93LGudafQ2IlB6FF74BOtRE7RWHlQKch1ATibdf4yYZlZsmjb5kCRywyxvZ4bXjvXBgufWFNlM3VdlTleQVvhKun/ugQirGU/D3kIKcryUP2oSqLt9rfd7Ww4yplNe5hAyjkCxC9+LHPs3msdEXIVCsWpZ+CXGirPX/gclxmc8lAAQcNu74eHPQv3+pZm3JBAQbv81eOivoLxtxtoYBGAgX/wT7Hp6RY1T5JjoxrfkEKei1JDIxk5+Nfz2F6SdZlyfepwkIbgbbg9ue4/mbyApSvibpusSBBFpPfSDXEU7MAQgKbRAQ3Dbuz2NtwNAfjtPxnVhp8ff/kLkxNdo2RpuKBSKlWFhPsgc6CTh6gtQvgWDDTOGsyUwfyW1PAwgMHxpWTo7zgwBytAm2v9x2PWLqHtmLa0WePJf2OnPr5htinwQOAAp9bheICt8xY52G+UbNVco3/MEJDVPmatyMyA48SEgUYq216R5KlzVt0z6IBnXrHDnmvdBNt5hlG2Y1g+yVD5Iksg0T9O+wKaHNV8liWlpQ0wz7NjA+BufTfW8vtKGKRSKZWAxChIAMDMGwyeh9VH0eArPBgQACaCZ2HoPle3AgaNgrWCN844P4qOfZTXbQc5WocFMoK5X8cgfg5NZOdsUeSAwpSDXGU5iKDN4QvNV64EGAMirdJHIdaO8TfNWiuSQtJIrLnFIc1e4qrflK8jseHe6/82VNaPIeBr3Xa8gh86suIIkkELzVvg3PeJp2IuMTxtKiQy5luo/Nvb636mya4Vi3bBIBQkAmBmjcCfU3wmGd7Y6WgFY1ky1d5DmpvAlLDSatogIfwve+buw6xeAGzNK2xwcqP9teOmPMdG3rCYpZuFaJTapVMj1hLQSqd43kXFXxUbkWl4DFwKSmq/KKG+XjiWSI0ByBZ2RxD3l1ylIK9KV7lvrCvJ6H2Rm+IxIh1dOQZIAZK6aHf7N79BDDSSd/I07cg1Jxs5/J3LsX0Sm9JnxCoWiWCx0fO002NVn5bMOe8ffE3fPItdIANZuh4ptcNsH6dS/4tmvFt8fqbnAVSEP/AFr2IueSiKYTT7mbliRPnjqN5R8XAUQACHlEtKUN3KdQCIbOfFVK9xVtuv9mqdSCivvKYeboeCWRzMV7anuI3ZiCJAvZMrM4rluDSrw2BoE8boGkNeney4bRAQkdF+Np+Wgq3IzACsQuU6MhU98Kd3zmurYpVCsMxbvg8yBsW4aOAFN96HPPVOxMwCABGCIph+a7qbmBwX3gLcSpQ1LL9au2ilb7qc9H4UDv8+qt4LmmT1ynWtLh2e+As/+JqaGlrq6YmlMdOqbqKih9XA7V+RhR3vSgyd1X6URaCCAvE8mAaDhrzEqNgKRSI2BXOz0mgVAmrvcVXPrVC0216xwV7rvjWVed3nxNu03Qs2TUWNElhk8LTORZf95kmDccNfv8W962Ag2kZTTNu7IkGuZ/rdHX/97a+Ts8lqiUChKwZJ8kDmw/wg9+1u06+eh6f7ZOkPTxHUbKzdphz6BDGjgPF19AccvOt0/ZFaUzaZA805DJDUvr9sLwSaq2IZtD7NAOThAAuYeRogAVoxe/xu8+O9oJRbwJhXLRU4+qpk06xYn1jty5K8CW97p3/IYNzxyqq00SWFzw+ff+KBZsTHZ84od6QGAZdU9+XXBuf8vddPE5YCW3dtHEgCMULOn6S6jbAMATOsWnqu5tlLR89+OX3yCxE6iXfMAACAASURBVPJmLikUilJRBAUJANj3EoycEDs+yO/6dXJmjSADgASSQABYvRVrtlImi9EekJYkm413QPgijHdANoKxq5SbjuitAU81+Bso0AqVt4CvFtAgbw2YfjQ5OQDzq/NGDuAI+ezH8cqTxUy9YhyATd2HECC3F5frdLg2IgFDxgFxwmlIACSAJNCihOA1+UiokiHXJySs6NlvZkcvlN32AaO8XQp78k8lJ+mM8jYeqMsMns70viEyYWTaMv0hXK8gAVYmer7MTBfBy1mZhgAkHe4uczfsc9VuZ5qbpk+OQGTI9ez45cjxL2WGletRoVjPFEdBAgBYMX7870l3446fBt03tzsQYGK+tmbyqo0T17yaXSQBpACkqVI+ZIiMgAHDXAya59yZBDTPzS0CcqDIALzy31jXU0uUj6S50VMFho+8tVB/J5RvBV89+BumXpHoh9hVGL8IYxcwfAGsBCX6Uc4wTnHVQ0ToqQQzBLqHKm6Buv3gb6CydtB9E6+QNka7KNKJ4cswcgoS/ZSNQnJwPvfmyQSuddCVTzE7meEzQy/+98AtP+5rO8x197TMSOkwbvia7jArNqZ7j2aGToOTBeTFl0JEN8yMXgd/eTfq7WVQ4LmNoma66nZ5GvfrnnIpnevkI+OGdNLxjieiZ78tV7L5hkKhKAXFU5AAILLw6qdo4Cje8Tusbou05ncdoxuiz4wDAGhTtl1TGfOIU98AakBWFt7+PFz+Ho4tbU/ceI+s2gnlW7BmJ/ka0OAgJ7TsNEKtWNYKGw4BgrQkJvtk31GMd2H0KnY9CWsopmMGofVh6W9k9fsh2IreSuRQ6C2bVL0da7ZPZDWmEhDtEr1HuBWFgaM4NFuzvakSAJUDeRMgs/HI8X/LDBwP7XifWbHx/7D35vF1XeW58POuvc+oo3m2JkuWbCuWPMdOnMmOM5GENIQMhV46QXtbbr7blhYKLaW3LYX2lpbbtBRuCxS4hUIJhMwTTuI4HuLEs+NZsmVLtjVLlnTmvd/vj+WzWDqDdDTYluP9/KHf0Tl7r2nvtdaz3tG2rV/IrZltK2b6CnKb7vKUNgc734kOtINj6TJZzwCp79j7QAaZooiffU8atiFMd1Gjv+p6d0ENAHu82hokhGFE+o4NHfivcPfBWa7dgQMHcxKzyiClSqjj5xg8bjfeh0WPorAWE7tFT4AZroEECMCGdfRFeu8/6Nz2aW8UtiuXF9wn6u9E+Qojv4AtwAIYnFmqqBZwMgTl1xhFNWTADsX57GPo2GQf/i8jPnfTeTGzlb9AXPfLVLkKZStMLzie0FFnepR6OmRPgCpaXNUtAOzBbu7cZh97ijrfEpM8AHIo5DWCcPeB3sGTgYX35i68y3AH7LgujLQAuAtqXXnzYoMng507o8NnwPas8chUavX+NJyYvV6xBRLuglpf9Rp3YT0JM0nuCECY7nhk7MLhl0ePPW9F5+7K5sCBg9kF1dfXX6qyvUW85o/QcBf5ikDTER9OE1JnHY0j2EP7/g2HfzjtjDjszseSX0Hrb8KbT26DremyYb1hcRvBAez7Bp14DsGeGRR3ScB5dXTTF7hyFTx5JMDWjDYjMgACR8MYaKOtf46B40mBnAy2bWKGYBAcO8hrDJ6SRfktD3vLlwBIigIjhVpWPBLpPxrq2m2Nnmdm0MyOGWy58msKl/2KsoYUpmfs9Pa+bf9n+mXOAZSs+4Oc2hvs+MVVjkgM7P2P+IXOmdJutojICFT6qlZ6ihcZpse2k5cDMkwA4fMHhw4+Ge0/NqPqHDhwcLVhptF8JkI8RB2b+PSbiI4iUEX+3Mtx3BcAmNpeoYPfwbYv0tkd06SuOWV2w71Y93mx5CGYPpDAzLjURdgAETx+qr2VF9zH5MFoJ8XmhFc4l7bazR+hDf8bpYsgPNMXHo8rVAZyMhEow6JHUb4MsSCG2hQLELCZOOGK9D5QKDqYAqxgf7DzbSvYbwYqTX8hjzePYLZJGK7ceZ6Shaa/2IqOcXTsotZ7mm8KG548X8VSVQsJM3ahK3hmx8z7cgWRU7vOlV+tRfOh0Pl9dmRkmm7miadg5s7LmX9rYP4tnvwaEHHSQkpCmK7ohbND+380fOCH1ticOww7cODgUuNSMkgAAIX6qGsrnd/FoQsobiavK/HDLNYBCBCBXMDAaWz/Eu3+J/TspXhomgXmVPCtXxKrf4sCFZdEdCqXaG+uUX8T59RS1zZMu6mzhdr1dMdXRdMdIM8sEMdUyEBOhTU0/y6KjqBnr/yaYIPA0kOKpXe3g2sJthUdPBnuegcgV3614faxnRRwxxaGaebN85YtFr4iOzZmR0dhW9OSR7LhyfVVLNMZZHzkbPD09tnpyxVCTt06V16VziDD5/dPi0EybBtCmHnzcubfmttwmyu/mkhwiuhRmG47Fhw5/srgrm9Geg9fRgWTAwcO5hBm2Q4yI3r2Ue9+Pvpf8dw6o+W/oXQpvAXkMkCAPfX1h0DSzFHeHgli+DR377GOPWWMdtHYuZm01C5ppVv+FypXcPwS20jZsGNAw53sLbTf+Jwx3HYpK8sIBmHJx3D971FOYba+7dOuKw4YLtzwx+wrxa4nhBVhIlaqa7IdAnltIh4aHNz7/4Kdb+ctvt9bsVwYbtuKqenHzLBiEKavstVTsjAy2B45fzA6dApWFMKYCo9Mzt3yvgVP1TGNYVsw3O7iBd6KFndhg3B52LaSojwCJAyXbcXGOt++cPi5aP/x2WyzAwcOrjZcLgYJgJmG2s2hdpx5HYFKrr6Z6+5gTz5y5lFedca7FFlEgjJa4GiUQ4P26DmyImL4FB36PvoOYsadYWaqu502fhW+vOyim2vQT/vZy/CkMLJqtfil/8SWz/PpN8kKT7HiGYFdubj+97HsN6CCK2UJXQA0pQDGNmB4xJrf5YIG7HrCHniPCcRM18jW7iAzIn3H+rY94S1vyV10v7fsOiKy7fgvOB8zW3FhmP6y6zxFjfGRc+HuA5H+Njs6cjHKVxaqbU5+U6XX8gSJEK4KTFehwyxTNAhPrqdogbe81cytNEw32/E0ZqmGyczBnvdGjjwb6T6Y6k/jwIGDaw2XkUHqGD1HR36MIz9mBtVt4Dv/mVy+9Gt4ZISjIxg7D2YaOY0LpxEdQbAPF85w32FhhWbTdu66j/BNfwJXICv6KDQ5aBwcGkQ8BgCmm3IKIC7yqon8lxUswF/Cd30N+7+Dt/8Wl21pduXw+i9T471ZUUAC6GJOSBAQsTjUf/EnTx75vBdLkC7bE5fG4Bio8W6uWGm98VnqfI0uml45ZpDXOtiOh87tDfcc8teszV14r7ugFoJ0NsPMbMVICHdBrbugNj7aG+k/Huk9HA/2sx0jMiZcEJiSnUvocmRwucRItlAEIMQknWJmtki4TH+xp7TZU9xkBkplUclheqS7DHNk8NTIsReCZ952csw4cOBA4goxyAQEgS+cIjsG+FJ/JRfiO75hdrxy0YE3PAg7hgTRMDFrrhfs8mP1p2jJL8Ptn0SlLvlTLIL+k1bnNj73jrDDFB2l2OhFqkgmu3LYzLHNHOTPNxfczcXNZJppwkaOawFABpb9Bph5x5cvgzkgly6ltZ8WdTdN7m0txatjfRg6GTv+rBHspvgYxcYQC0I+AcMDV8Aycywzx6xaQ3XrEZhHNEmGGraAQKmx/svW5s+hYxOBAWa8/1LMOZgy2IqOndoS7NqVU3NDoPFOd0EdEY1jNszMcQBmoMTMLfNVrYgOno70HYkNnrRjIYATZ53xxTILTy7GW9vakeHL0aVLCTtyYdz/RMKdm+FEJg+1RC6fp7DeU7LYXVgrXH6wnVamKAwXg6MDHaPtr46d3s6xK22u7cCBg7mEK8wgAYDMCYRPbMcxdOkNBFc8Tit+kxkTSR8J5AJHbbS/ym9/RYx2Glb6mOmUCEYJAAe/SUWLecUnqX4jPAbHJgqpCBK8/BOIjWLXEzPu0oTwl9Etf4mqpRMbPpIATODCAB/4dxz4DllRl5ZZJ+mZGYABcPuz2OZB4wd52W9RWSMwUdRMWKBAmXHbl/HCx9F3YCYdcvD+A8eCo+2vBc/s8NfcGFhwu6eoAYBtjTNPZtsCLDLc3rJFnuIF8dBAtP9EdOBkbPQcrIgUmxOIwWAmIndxk/7msh2PDpy8An2bVUQHTo7nf+QpXhDpOQS2iQSk7l6qBoTHlVfpLqp3FzeaviIyzHTGjpA6awCRgfbRtteCZ7bbMsGsAwcOHGi45L7Yk8NXjMWPwvSk/kKA8BbQ8Z9dUsUuz7sBN3wGRgY1umyJAVg2zmyhA9+ht79C4b5s3X/YQrAbJ56lUJ8dHIG/Qni9E+i1yQDyqtC9j8bOT7kn2YFBWPk4Gu+bWL1OLvBIL9pepZ1foWM/JTuWTdprAojj1H8IJ19BNMqxkCism6Q13hx4CrljE9lxR5HtIAlsx6KDJ4NndsQunBWePNNfJEx3mkxQbANkuHM8RXXu4kWeonpyBYgItg0wCdPw5Pqr1/gql6n7iIQVGRna/0O+yumRHR3x164TpjcxJmz6ixng8AWASQgyfWag3FO6JLd+va96tbe4QZg+AKkzmkgI0wW2I33Hhw7+ePjAjyL9x/iqzcjqwIGDS4pLGVE8O3BhEx58Ep4M0SI5Tk89hN5LlSaLCxbg7q9TSWNGPxIZBrxrF+35Bp97h6IXMlyXRV3MPG+tWPenXN6KzMaC5IJ99qB46TcR7Jt2XRPAXvgI3f43EyWiFoANHPg2nXiWu/dmk946Y12uXNH8YV79KXgnsi4VLlg7v2bs/DtHi+1gApDh9pZdl1O/3lPeYnpy2Y4lh/65eB0l7B05PtZvx4JEJDy5hjef2VauOcL0DB96Zmj/9y9fBy4ZCld8LG/R/SqoOIiIhBUasiIXAAiX38gpIRCk0WQ6rzUiQYbLioyEuw+OnXwj3HPIsXd04MDBxJjTMkgAZAr2FFHb85eiZjZ9WPd5qr0hE30kAVhx7Ps23vgcDR6l6ea2uVgaEY128clXYPq5qFm4jfRSQBsir4xzqqnrrWln08mI8hVY/0V4Ahn5qwkMneHNfyIOfgdj52dCHwGQHUX3Xjq/m/PqReG8TJUyg0qXI9SPgSPZSDodXKNgKz56PnhmR6TnEFtx01douHNIGGnSQMssnMyGJ8fwFhjefGG6dbopDFfsQtfgnu+8P/Sz8ZHzvnkrTG8ea3nGhdtneAsNb4Fw+yFTkKeZXCQMFwnDCg+OnnpreN8PRo69EB8974R4dODAwaSY8wySAG+RfWqTiAzOftVNH6Ib/kdGQz0Bio1g51dp1z/S7OlxKB5Cx2sc6qOyZsooeQWVNrGvAqd+PpteNa6AfdP/EvNakIkxG+C+4/Tap6jrrdl0UB3t4hPP2rnzKb+ORAbTW9Og6nU8cIKGTsxavQ7ep7BCA+Fze4JndsSDvTA8rkCxMNxAOu8tZsUm1XdkuDga7H/nX6ODV70RpIQdG4sH+3yVK8l0QyORqX1XIGEKwwQ43HfswtHnh/Z9P3h6mxUauKztduDAwdWMuc4gwSCPj8ig06/Pcr2uHLrjH9mVn/ZHEuCxPvu1P6HjP511z2giEn0HcXY35q2FryBj8YEq6tmLkTOzVS/P30grPw47PYcjF6zjPxdb/gz9h2arxl8UznE6+SpZMa5YSYYrzRUMcrvgKqBTr8Cxu3KQBTgeig60BTt3hM8fgB0Xbr/hyZOsKOOcIiFMVzw0OPDuN8Pndl/W5l5ixEfOxkd7PKXXGZ4czijIp4uWjqD4WM/YmR1D+34wcvjZaN9Rx8/agQMHU8WcZ5AABJBTje49NHp2Nutd9TgvuDO9HplAxGh7Rez7l0sXWIeC53msmxrvRlrjPwZ5PQgNoXN2xIHkLeBbvoj8qvRdFkAkRDv/nrrfmXld6RsAm8/v5sJFVLEwvU2kDeRV4+QrFHRy7DrIGrZlBftCZ3cHO3dGB0+xbQl3nuH2CcMFaToCIiGEYQrDxbFI8OzuwXf/LdJ7+Eq3e/YRu9AZ7j1k+ArMnBLh8hIJXOw+EQlhuAHEoxdCZ/deOPL08MGfBE9vtcZ6HYW1AwcOpoergUFKMWTl9dy5hcKzpMuu28g3foYMTwZuZuPdr9H2v55KeplpYfC4HQlR7U3pM9gyULzY7topxmaBOvONn6cFd6SnbgI80i1efZw6N8+8oglAYD69mcuuF4WZiCyhuJUP/WCG9pcOrkFwPBwbPhPq2hnu3GmNddtWlO24HY/DjsZDQ7HBjrEzOy8cenLk6PNWeOhKN/ZSwQ4NBk/viPafsKOjthVhtmHH7chYfKwn2n98tG3T8L4fjJ18PTZ0muOO0NGBAwczwhyIB5kF2AYVzsfqP8Crj888ijiTyfPvMnLy7HRuKmTCPv5z2vt/p5jmbzogIuPEz7jmNpp/cxpBAIO8Psy/Hb27Yc9ITmB5S8WC+zMmDmTQzn/A2W0zqSJLCCvIO7/CJd+CO503DwNFC1G5Fud3XobGOHgfgjk21hM7/jJO/Fy4vCRcIGI7zvHIteJczHa4+0C4+wCZHjI9RCbYZjtmx8KOuNGBAweziKsmeArboKa77Rv+JI3f5VSRV43KNWlDTJIBHuqkXU9Q/HJ5aIb6adtf8Nhg2kiIHIdY9DDMNAl7pgRacA/c/rQCVzJBx5+h4z+ZYRVTaMz5d/DOV5PTy0kwyO2mxQ9ftsY4eN+CLTs6ZoWHrNCgHRm5VuijBo5H7PAFKzRghYfs6JhDHx04cDC7uBq02AokqHyVbcdE954ZmAYS164XrY+l1+eyjd1fp5MvTbfwNLALF9qFTXZeHXuLRexCGjeR8KAdC4mGDekVux4/QoPUPX2rfxZuWvX/UWlDmi4LYLiTtnwBodmLPekKWEXNdn6jHaiCy0vhdN6dgyfswiWipC61yyRA7nw6/y4ca0gHDhw4cOBgruLq0GJfhA0Axi2fZiba+y/TLMT00LLfzuRAg2jIfu8/0krHpgde+nFa+xnhdgEAg4+/jDc+TbHRpMvEmc0ci0CkscskAi9+lPd/c9rKe6q5heetSRvBR7hhndmG/iOzZnfoK8VtXzIWbJT/cTTM275M7/2/5CbFRkXPbiy4NbUAtiCKq+x566jXyXPowIEDBw4czFFcNVpsBY4Cqx7ntX+M/PnTuN32FKBoYdpgFySAjteMWTQwX/QI3/DHMFwcB8fBFmjR3Vjzh2mqDp7n/f+RSbHLptc2/NNuhZ1fL3L8qcp/InBwjM5umzX6aPrtm/4cjRsv9jcOcnmx9o9Rsz7Nxcd+yt0n0naZAdudPwvmCg4cOHDgwIGDS4Orj0GCAZeXVv13vv//oW4Dp6ddGWH5KiDS9ZrA0TDtfmJ2ImkLk9d8Grf9JQlTL4/jQPNHUH1zSrOi4vB/cn9bam+YQb5iUZtGXJcNGGR5S9OTMQE+f4DaX5heyckV5dXx/d+jpnv1CO1sgfx+XvE78JUkXU8jnfTev7OVrmVxiOq1lFM2Kw1z4MCBAwcOHMw6rkIGCYDBFpBXxfd801r353btepjeLG91Nd2X1meFDNid23n03Cw0T7jsG/+MVv8up2qlGeRx83UfTXPXcDs63kjbNrh9VLRoem0hf6lZsy6t0SdbzG0vIq1L0RTBhY1899eoemWqeQDHQdVruGxpmruOPInRs6ldZgbyF8CTPti7AwcOHDhw4OCK4+pkkBI2ADJX/Df6wLex8atY+nErr96eTCTJBQvS6mzJAHdtoxknyWXTx2s/I5Z/jK0M0kwCjPRuQ3x2J4dCyc+EQSY4r3a67fEjrzat1p4ty+54bXrF6rALFuD2vxdl16XPD8mAAIk0eWjIjvHpzWlCYdogfx78FTNvmwMHDhw4cODgUmBue9KwfVHjnFmxzDGAgIV3c/3dtOTXEL3AVoTO7kD/exg7D2ZoMi62YyhsyETsjHiyg8tUQULw6j+glR/PGDeDAAs4uyPtj/b53SIyJDy+5AbaoMIFyKvFWPeUm+TJgz83bWhLIjZjw1MtMBmBKrrzn6h8cab04mSAB8/ShY60v1pntoql6SSyAKrWouutmTbPgQMHDhw4cHAJMHcZJJngrr3oO8TNv0ymOVF2GAZHAYIorJZ0kStWwLbTEE9mCDONQI5gj4YoMz9jbxF58sEWQv2IjWW6zG7+b7TyExmlj7KiodN09Mn0P0ZHiONptLpxoLQVj72KjOluJwCl9cIGAQPHEU8fJI8hKHcehAtWmEfOZnK1YZcft/3tBPQRAIhx8mX0H0n7o4hmzA7CuTVOXhoHDhw4cOBgbmLuMkgAECbveoKGT2Htp8jtnyQgLo+PmJs2T2AGSkICGO7AUHua3wLz7EWP8ry1In8+rAgNHsbeb+L8ruTKhYnrfhVrfo/TEddf1M42tn85U25GYUcoI0ckGGkUwZMjQ2PIAJ/dkSY4JYB56+wFHxDzbiBXgCND3LmVdv8TIinSyrxarP0satZNQB/JBPe22Xv+NZNtgYgH02cFt4GCxozlOnDgwIEDBw6uKOY2gwQMw8UHvs3hAV75SRQ1ApcmVbUAIoNIJXaefF77x8aSD7IFtkEASmu5bBm/+ilx7heaaBYuvv6PxKrfYs7cPAMcDopd/0inN2VqBRFxsJcK6tL/POvBbUbOpBbKJa3Y+PdmYTnHwQzKK6fKRZxXw298VkR+MT6cPx93/CNVtk6Q+pEMoPe4eOOPKZRZ+R6LcCgE05fqcoSC+ul0yoEDBw4cOHBw6THXPWkYBICO/4ye+jD2fZdDQ2RkFCVOG0TgsR6kBPrmRQ+LJR+0o+A4YINtcASUW4E7/wmVa1iKOYWJ6/9ArP4ttjPTRwFERsW+f8W+f5vE93lWnMGzgQANHE36jgGs/xvKL7cjYAuwwRY4Alp4J9321whcdG3h3Brc8QRVtnJsQoHr4Cl+/TPcs3eiZlgxhIfTP1DXTHM5OnDgwIEDBw4uEeY6g/wFoiO07S/4+d/k09tAs08iwRbGR01kZttbCiSTJI6Dcor5vm9j6SfgzrWv/yNa9Tscz8ylZObAVx7Hridmu9Ezg5WsfrbMALvz00TkiQKN9/B937NLl3JuLe76J6pomcj2UYDaX8Izv0K9+yZuAjFlHDgnoLgDBw4cOHAwVzHXtdhJMHr34ue/x6sep+W/BgYzwLNANRggkTwUzGzDSB+L2wa5/Fj5P7hiNdXdPpGBJgHMtOdfcObNbFoyW9lhJgeDTXdybeRi5vTjaQHFjWLD3yEyjIqlEyivYQDD57H1rzA2uTyVZ+X5OXDgwIEDBw4uL64eGaRCuJ+2f8n+wb3W5r+ggROwY+QCmSAxA8EkA94iuMZlDhRCCMQyxZdkG+zJpQV3pHfZuVgEYMWx7Us4+pNsW+IrmX3xalowkJ9saCjssDCMjA2wwMVNqFo9ke2jC9x3gl793WzoIwAyXOQpSM8h7Yk9pxw4cODAgQMHVwxXmQzyIuyYGDyCwSN477uov5uv+6ht+kVuFXzF5HGBABsXJZRp7k33JYN9RcJXzOMjihu9+3hsFEYgPcVJ8v5OAoFiIez9N+z/VpbdYgA5FRkJ5LTZfibrzJTE4sIKcec2LHlogqImEhgK2P2nxZYvoGcS5bUCu3zk8yNVIU6g/sNZFuLAgQMHDhw4uMy4OhmkBjr5Mk6+DHKhtAV5tZxThvx65NXAWwRvMWi8mR0z+UtSU2mzDeTVcV4dLpwZ9337S/brfnHnVwCamq5VAAx+5wna93+zv4mFJ1WZfhG2hfAFWNGp6bmZYbjhK0wTGdMGKlazcNH4gD685fNseMV193L6SJEZQSZ4uJte+ST6D2V/l+32GekGlgR49KwTD9KBAwcOHDiYm7jqGaSEwTH07EHPHgAgwZ58cvnh8ieJIYnAd/4zFTclyw5tiJwcDlQnFUtE4vhPLcNt3PIXMN3ZkkgBXDiLnV+ltqen1AvbDAgISqmFTHDXftr+V4iNpResZgAROL8ed38jXWVAUTOZfkTHBXoUVtja/FkLcWPRA5ME4BxXE9D+Or3z1SnRRwCWKz+9mQAB59+dUlEOHDhw4MCBg8uG9wmDHAe2KXwxuGOqEItGulDclOYmwHLnpbIZIjKP/sjy5JkbPsfRLJLCCHDcElu+gNNTTjltNmzknPJUjkgCPHAU3XsxdVNPioU4MgJPbhr6K8y4K8+MJocKN+Kj9hufs/PnGzVL7XAWVbjBp3fhzT/F2PkpNo5cix7MpGSn7uSw7Q4cOHDgwIGDOYKr0JNmZrD7j2bw2wCKFrLhSXuX0f6ctePfOBqcmMGRAGJBsffr06CPADivDq40nJ5joKmSMwUrYg+dTP+cBaGsNe1NwgqJd/4+fuyNyV8QA9x7kt79xynTR4CJUNiU5mkQeHSIojNNU+7AgQMHDhw4uES45hikdXJTWjkix2E0foB8JelvGz1HO75kv/VFTBDPXIAB7P43vPMP02lZbjVqbqXU8IgEjkd4+NR0ygTssT777LtpPcrJFEbzoxnvPLOFXv2f3PaqSE+qAQACNDZAmz6Frrem07j6DyCvJlUGSQIY6UR0ZDplOnDgwIEDBw4uPa45BmmMdWX8ze3jFb+T6UciEkf+0/r552DFkULIyAXEY9j2N7Tnn6fTLBJo/XUqX5IaKIcICA9ZZ7ZMp1hAEBvh3rQRh9gGKlaibmPGe+Oj/PofWYeeE+7UBkO4gf7jeOm3MVnY8PTIq8Wqx8lMw23JhH12pz2WOReiAwdXFThhmyI/EBFlcInjKVk6O3DgwMGVwzXHIEV4ED370vabbaDxQdubQQwJEJFx5If2tr8mK6RzMjJgdx+ht/6c9v3rhAF+MoILF/HS30x/KwHBHiM8MI1iJYyBI/bIaJou2xCBgDX/HmQKegkYsRG88bn4iTcoSbtOsI68RK//Ibp3T6NJzLCbP0rli9J2mS0WJnv59gAAIABJREFUo11T9H534GDuQhFHZk5ik0kf9M+SZTqc0oEDB3MT1xyDhBWm/d8ipFNGM+Dx4rqPTnA3EYmD37E3/SnHw2QCAuQGn9vPL/4ODv9w+q1qfjRTYHJmYN83M0kssgGf24HObWnLt2Ogmpu5aOEEt4v4GP389+1DT5EJMkAGyAS/+3W8+jh6D06zTbnzUHNrWvpIJri3TXS8Os2SHTiYexBCGIYh/xKRbduWZUmOKKH+FWLcRJW/OiTSgQMHcxDvR1/sSTFwxB7pFrlpvZ4NWvxhnHoZA0cz3U1EdOJnPNzGCz5AhYtx/m06+lMj2Dv99gTmUeMD6b28CTw2IM68Mf3CAcQj6N7D9XeCUuR6NkRBOVp/HZv/ZALpqYhd4C1/io5NPH8jDC8d/5noeC1zpPLJQbW3Ufni9LltGOjZyyOd0y7cgYO5Bma2bRuaQFGeCeVf27b1I2KSGHImp0cHDhw4uHS4FhkkD3fg7NvU8gBHUn6yQEU19vJP0mu/P7EWlXoPoPcAiDKkvsm6MYaX1/25CBQiHZ0iF6zDP6LoyEz3kLbnsepxuHPSNCAGND+C029S+/MTFEDxMNpfoPYXZtgQAFzQhLWfRQaVvR2N8qEfZVSrO3BwFULKHRUjFEJImqjIoi56VEJHySwdMaQDBw7mJq49LTZAdoxOv8bhsbRne45BNH6AWn8tq7JmSB9JYOlv0PzbMlpAhkdF15aZiyBotJM638z0tAnA2s9w8XUzricL5JTjlr+AL118SoAINHhcTM81x4GDuQohhBIlys/KJlJSQyGEJJHMrD4DsG1bUs8r1XIHDhw4yIRrkUECoPaXePe3M/3KwsQNn+YbP3/J29H8y7Tqd2Gkz3ZDJvjw06J7z6xUxVv/is7uTnaIkT/ZoIIa+sA3uPrWWakrIzwFvO7PqOaGTApwtm3a8SVKr9524OBqRSpNlEptJEwkLcuSppDye0kxTdOU1pOOItuBAwdzENcog4QdpT3/Yp97N/0AMNj08dLf5JWPQ7guSQNcOfF5N2PV77E7kJZOkQF78Czv/zasFF37tEBj53nn33NwOKMfekE1bv0iV1w/K9WlqcJfHr/uY1hwL3NKzEvZQjf40I/57NuXqAEOHFwpKL4IwLIsqZ6W1FBpt3XZpBQ9ImEo6cggHThwMAdxrTJIAFbE3vmEyGQIaoMAWvcpXvbbs181Gbj+D82Hvoec0vTmgAAEROcWceHkLFbLnVvtU5spAyXmGJBfjXu/zUWLZ7HSi4XnlOOB/zTX/QE4vQcOCXA4JE6+QJMnjnTg4CqD0lZLdqgoo/zXsixl7yiEUJ7aSn/tMEgHDhzMQVzDDBIwBw5Yh15Iq9iV4Diw8r9j5eNs+merUtvw8vV/iOZH2EovigMAA9y2Ge/+42xVKiGEEAe/y4PnMkUOgg14crDx/9g162exXi5qxoavoHB+Ru00ga0o3vkqnXtnFut14GCOQFdG69JHy7IAmKYZj8ej0Wg8Hlf6bsMwFINMCvHjwIEDB3MBRmFh4RVugq8Yix+FmZw7jwQw2k1tz1/C7HZWBBdOofpW8udlDE1juqn6BlRcTwPHONQ3kzDXzED5Umz8Ki18IJPtIwAygf4T9PqncQki2lDwPCBQe0vmVoICxai/gzyF6N0/Ux266UXzo7jtb1G2eIKRIxN470fina+wPYcsIJV8yLKseDwej8djsVg8Hpf/Sl2k8pa9PO1BQq3p4KqGYpBE5Ha7fT5fIBDweDwejyc3N9fr9Xo8HtM0r3HRo5yAsVjMiWp0SSEF5M7wOpgGrsVoPjqo/xBv/xJv+Ae4velJpA0mQtUa/tBP+fAP+eSr4tyOqfIqNv2oXGtXrhYtv0reHNiZpY8CPDbIW79Iw7Opvx6Hg9+hgkZueTSTAp0twMzhFZ9Aw3184Nt0dgf1vTflWvLrreLraOFDVL8BQEZlPUAG+MxObP8ymDMnHc8W0pUVWiSU1G1YD8Kn7MzUZcqnwTRNn8/n8/m8Xq/b7TYMQ0qSFKeMxWKRSGRsbCwYDCIhW5Iho1NrVMv0VCOz2LYtRVMul4uZ4/G4bElSLdnvAXKIkrYNfRxUrJkswcxyTPRvkHAHcbvdqV2edngaIpIjjxQyLV1PlLhueqN9iaCHgdSH2rbturq6tWvXlpSUALBt2zRN27YNw+jv73/ttdf6+vri8TiumZND0nvo9/sLCgqCweDY2FgsFntfDoLeZd1JP+ntTRs6dGIkFaLPSnU8li+bYRiRSEQuX0iccObCxHEwx3GtM0gA1P6S5SkWt/0VKAOxk54fJMSyj/J1H0X7C3x6s9X+ioiOCJrIaI+ZLX+52XAnqm6mprsNAscn4lIgwIrz1r8WnW/OsFMTgOw43v4b219iLLg9o1qZAQvIrTTW/6k91IOjT9mn3+DufcIKTbx+2TBQ2krVN6HpAbOyiWOTZHkkF+zuo3j9j0R8jGdMH6EtmpJpIRGKL+3SrBSLUpoohHC5XB6PR3KRvLy88vLyysrK0tLS/Px8v9/v9XpdLlc4HA6Hw8Fg8MKFC319fV1dXWfOnJEqSMksU8kcaensdO1kxmHRmirlUi6XKz8/Px6PDw8PR6PRWCyme1ogs4RSv0AvNpUs6l4dWYollI7V7XabpplEx+W/kUhE+ZFMg/Wm8l2v15uTk4Px+Vrkh3A4rLozpxhkascBCCHGxsYaGho++clP1tXVJd3S29t76NChgYEBdSi6diD5TX5+fmNj46pVq86cOXPgwIGOjo60x7OrFKxlJILma6UTPn3VUl78apZlM3coYTih1hx99fN6vXI2eb3egYEBubCEQiGHQTrIEg6DBABx6D/g8mHtZ2CaE2Ra4RhAwOJ7Mf8uWvoJ2FEO9dO5Heg7hKF2yLQ0/lLkz0f5Sq5YBW8BmTmcX0dug+OZ5Y4SBBCw9S/p+FOz27s0iAyJNz4N+jtqyEwiATDsCJBThuv/OxY9grEecAxDJ7hrO4baxXAbx8IAULgA+fWYt5aLr4Phha+E8soA2OFJWkEmeLADr/9PMXIGEADNJM+NhORnAKQsRzm9XqwxcfgGIKWJaj0Nh8M+n6+mpmb16tUtLS0NDQ2VlZVer1dGVFFkVJavLNgsy4pGoxcuXOjo6Dhy5Mi77767ffv2UChkmqbb7QYgpWWSlRqGwczRaHTS+CyKhEUikbVr1z744IOrVq3y+/2xWKyjo+MnP/nJW2+9dfbsWbfb7fF4ZGPUoq9vPPF43OVyyf1DSS+krwYlnDZkq6TYVQkhkIXQS45qNBqtqKi4+eab169fj8RGKDtLRKdPn/7a177W29srhbiqa5ZluVwu2YCJx0Eye3ml7NFtt9322GOP6crNeDzu9XrPnTv33e9+t7OzUxauLA3mOP1Sg5804LpM99qBMgyNRCILFy78lV/5lXXr1nV2dv7oRz86efKkfK+udBtnAXL2yecOwLIsKT6XWnv5wqtFANoxWL7M2RyNiMjlcukaFSSOLpIpzps377HHHtuwYUNVVVU0Gg2Hw2+88cbzzz+/b98+OSvn/txxcMXhMEhAbpb7v8nCpLW/D+GeyBuYwVHAMI3SJimz5JpbYVuADXkbCUDAMEgABIPBNjg2WQsEiJmPPk3HfjIZ05wdUHgQm/7ANv6vqL2BJ9Cq42LPKKdIBIpAQHkrGh+UytVEWQZIwBAkQPL6LPY+MsChEX73Ceo/DBgAiMEzli8kGSbKtVit1EmBnePxeCQScblcTU1Ny5Yta25urqqqqqmpqaysLCkpmdLqWVdXt2jRopUrV27YsOHgwYO7d+8+fvy4x+ORG55slWQJ2WyBUnPt8/k2bNjwwAMPrF+/vqCgQP5UXV1dUFDg8/leffXVvr4+nYHp0jhKqNT1bUaZ38m9gYh0L2AkWKP8MptGyjL9fv+CBQs2btyoYtAgoVM+evToN77xDVmd3pIshUmyEJ30R6PR6urqO++8MxQKqf7G4/FAIHDs2LGnnnpKdko+u6ti/1P6RLnHK8iX9lqTAymBnGVZTU1Nd9xxR05OTklJyaFDhzweT1qqfTUiScavpoNclJImMhIviVw9JMnORgCZpKZQHyzLWrx48T333PPggw8uXLhQ3VJYWJifn2/b9vHjx8PhcNIL6cBBKpxXRMOer3N4CDd+Br6CiXTNAHg8SRIGyNB/Tb5gQpABDg7i3Sdw/GnEQlNt9fQRHcHLv4tb/hcW/hLEZOI/WyOZRIABM9FlTlyQpQCRQAb49Hba/y2c/vnF72Zpo1RrbpL0MVUxJAVXFRUV9fX1a9euvfvuu5csWZJa2sXmJdZxy7Lkcq/EY/KnnJychoaGhoaG22677cCBAzU1Na+//vqZM2fGxsaUsZHcNqRwNBtmkJub+8gjj2zYsMHr9eqyvaVLl46Ojg4ODr744otSWa8rtvRNSAn5dFadRBOVkE/+Klmg6uPEQy2vFEJ4PB6v15t6TX5+vvyghIhI0PpsBkF1R8/v5/V6hRBSkZ00XHLPk/xbhVecWMzpYE5BydFLS0sXLFigzBXq6upqa2s7Ozuj0ej7Qwyp1iIAihcqJYBOIvV8mNAWpUnL1yeybltimuaaNWs++tGP1tTUQFszy8vL77vvvr6+vv7+/tOnT7vdbmfuOJgYDoP8BYgIR37I4X6s+SMqaeIMkQvTY3oEiAAB9B3lLX9B53Zc/pO1iA1jy+cx0oXWXyevfxJhZBKm12UDsMHv/RQ7/zeCPSAiFrNFHwEomZ9cPSV7c7lc0g1F2inKa2KxWFNT04c//OEPf/jDRUVFktPojFOpfXXupZRBaS2T5GWtra1Llix54IEH/u7v/m7btm2Dg4Mej0eJmpCF/MAwDI/HM2/evNbWVq/XK+vSKdeKFSs6OjpeeuklVaBSe8n2KKGdapikYgCkXl7e6PF4FN1UV+p72MRQ5cuS9UJkH8PhsBocRWeVIhuTiQllyTrvV9aWqhxViGyDZLRJFzi4WiBfXcMwbr755sbGRvV9WVnZunXrnnvuuXA4/P5gkGqS6occ5Uolpa16T6U5SjweV0epSbXYSSJMJOZmIBBobGysqalR52o55gBycnLuv//+TZs2tbe3Z6mLcHAt4yrQ8lxm0KlX8fRj9vGXEB4gY+bOwZmqAblAHKbjL+CFj4tzOy5NNVkgNkbv/gM/92v2wCnEoxNEx5whSIBMINhP2/6K3vwsBXvk1wkLyCkR9okgmZZynZZqTenpIoQwTTMYDObm5n7iE5/4whe+8Oijj5aWlsqTus63KBG0T9f86ud4XfmbKucTQixYsODP/uzPHnroobKyMmaW5k1SfjZpF2KxmNfrrampkYI9ncJK+Hy+iooKfYdQtlNSh6skcJRQZ8vLotHo6OhoKBRavHjxxo0bq6qqJLvVu5al8ldWIbc0pfBKUs+5XC6MZ3KcMPzKsiIpdpVWYtK0MelXvRDFpxX1d7bAqw7yKd9www3XXXed+nLevHnr1693uVzRaPQKtm124XK55MTUbZFl96VHSyQSaWhouOOOO5qbm10ul7TcyP6t1kWYIgGXy1VTUyN9/9U0UUufYRh1dXXSgNKZOw4mhSODTAOKDNGrn7QKmsSaP8T8jRDGLJsmCsAGd2zHe99H2/NXfqKyLXp22f95u930S8aqT1JxU/Yq+CxBBhAa5rYXef+3aKjtF9/PtoRIX2HlIqjkbUjoN1taWm6//faHHnqoublZvxGatjppmU7lOjqrS6JN6paampqCggIVeiYbyYFqjJJDZOqjkuFRigON/F4JHmzblgS6oKCgsrKypqZm/vz5y5cvB/DjH/+4r69Pl6ciO+mjQqq1gD4OesOUMk6NTzZ16fJd3aQV2iNIqpQ0B+0sB9zBHIG0By0rK2tubpYsRyIQCDQ3N5eVlXV3d6fOtasUScdRSR/D4XBBQUF9fX1tbW11dfWyZctycnKefPJJ6SLmdrt19cjEUMbHahLJf3Vthi7Fl9DXQGfuOJgYDoPMCGPoOL/2KSz/Lbr+9yBwMZvzTCYUJUwAQ0Ha83Uc/B6iI5gzS6Eg4MTT6DuIW/6S5t+IeKLLM4HqcvcR2vG3dGZzSm8nNcCcGpTqR2o/pSRSmSECqKqqeuSRRz7ykY8oEz11I8ZLraRfpIwirssgZWlSqSS9oVPXXwCxWOzkyZPvvfdeb2+v3++XanQZhWdSX2zDMMLhcFdX18jISGlpKTSmJVf2kZGRzs5OvUZ9q1A6KSmPNAzD5/Pl5eUtWrRozZo169atW7lyJYDOzs4XX3yREqE9VBVZ7k9yNPS+JFnuy6egS2qFlpcF2dFHKeYEIOXHurpcbwYlHBGg+S05+99VB8uyCgoKVqxYMW/ePCTeGfm3qKioubn53Llz/f397wMnD7kaUCJEgwolVlFR0djYuGbNmltuuWXp0qUul2tgYODZZ58FIFcz3dVm4iooocgmIhVN07bts2fP9vT0qGaoa+Qxr6OjIxKJJDnhOXCQFlf9PLykoHgQu/+Z21/i+XdS/T0oaCCvV8acydZkkC46Z4PB0RgNn7KP/Bc63qDhtsnvvSIYasMrn+SSFiz8EObdiEAFuUhqmLMilJToMgEWEB7h87vtwz+g7j0I9WW4RxfvzQKbVFIxyfbkv/JDSUnJZz/72VtvvVXRR2Uxqa5XdLC3t/e99947dOhQR0fHwMDA4OCgdIvJzc3Nzc0tLi5esGBBa2trS0tLcXFxajOi0ejTTz995MgR5TiChE520i5IBtnR0XHw4MHy8vKcnJwkmeiBAwfeeecdRftUgB5KuJ4o+SuA2traW2+99eGHH66urpbxieSeIV3ROWE3qXurZLlF6fdCk2SoYXS5XLI61R47EXsomyqSxC1S7Jrkfp40Mir6Oo2PYeTgqkA8Hi8pKbnjjjvkDNUlZIZh3Hjjje3t7T09PfI8doXbOgNQwjwGiZfctu2KiopbbrnlkUcemT9/vgw9K41AYrGY/jnJ22YCKN2LnCbSABpAd3f3oUOHTp06VVtbq5Yjec3w8PBzzz3X09PzPuDoDi4DnLdkMtgWDRylgaPY/c+Yt5Zbfp19xewpEvm15DLJSPCqhKsy4aJdHwmwDY5E7aFzHOwxwgM49hSfeuUqsDyNDFPXVnRthelF80e4bqPt8lOgivyl5EoEbWSo5YtIkzVGwZFRa6iDoiNi+ATv+zZdOHU5N/AkFYyiF6Ojo0uWLPmN3/iNm2++WWXyVPuTEowRUXd39+7du/fs2dPR0dHf3z84ODg8PCyjiEt24na7XS6X1+vdt2/f5s2by8rKpDf38uXLc3NzVUu6u7vffPPNc+fOKVtAVcWkS7/kPeFw+Hvf+14wGLzvvvv0knfv3v3kk09u27ZNd69RxbIWgJqIQqFQWVnZ2rVrFy9eLFuiQynBpY850nGyTNBHT++RrmTkhCuM5OhKmjglVqcGTQU0SapIOciTZrc6JYsxB3MEzFxaWrpu3bpAIIDxBwyXy3XjjTe++eabb775ptfrvap1rElKZCKKRqNFRUVr165dsmRJUliDJGn6lA5FShgvD3IyGK3b7X7nnXe++c1vfuxjH1u0aJG6sqen58UXX/zZz342MDDg8STnGXbgIBUOg5wKzr5NZ99mGMirRfkyeAs4t4pza+Arga8Epg8Ax0MI9SHYi5FODvZQsMfuO4yB46CZxzq87IiHceDf6cC/w/CjdAkKGthbgPx6BCrJWwh/GQCAEBniYC+F+nj4JIcGaOwczu2mcH/2idh49hyWdCKFhPQiFovV1tbeddddDz/8sN/vh7aC6yRjZGTkxIkTO3bs2LJly549e3p7e5W2mjTHGpnMcGRkpLu7W9o4FhcXt7W1nTp1aunSpQ0NDbm5uUNDQzt37jx16lQoFPL5fIrRpjXhSrsXSnHd9u3bJQtsbm6WwcN7e3tfeeWV119/vaurKy8vD1pcRvVZdxiPx+N+v7+8vDzt01Dhb5QjTlJLdHlkkiZdjV7aHqkrdTcj/aFQ1orsTB8UdHGmMq/UOzVxFaylvdFLSPuwssT0+A2nGHTqJ6Is64XGOeYagebx1rpJkFqCxsbGqqoq+Y0e7kAIUVVVVVdXpxQISS/nTJ7XVDHx883m3dafERFZluX3+ysqKlKFf0knolRbkUzt0YdaViHNiL1eb2dn5/PPP+/3+1euXFleXs7M4XD43Xfffe21144cOWKaph6BfOJeqFpm/hRS+5j9PGLNmDttG/TZnQ0Ln0ZH9JVkessIjzdJT2r8XJvOcBjkNCBg4cJJXDgp/yVXAG4/zBwWJgCy44iNcWwMsTH5tA1cMofuywXDCuL8Ozj/DgAIA+48GF7yBC6+5PEwYqOIBWFFtC5n1eeLgluaNVclpT+VntdILBYPPvjgY4895vf71VRUV8pJPjY29uabb379618/evSojKYr+VkqlKezXIuZORgMPvfccy+//PLy5ct/+7d/e8OGDUeOHHnuuedisZjMTJO0oOjbnipKXx2UV7XX63377bfffffdkpKSwsLCUCjU09MjVc96QES1OHIiSk5SUSoLYmpfWIvlQQntfypxTN0kKCG8TOU9SVXI0VaBvqdErUiLdaJqT6pI3+1Ua3XhKGvyyKQ1XS330stKD66pj+rEjdSpQCpJymYLycQUdS4ycSHqXjE+hH7Sc7yy4ERQfT35p2pYPB5fsmTJmjVrUm9R/zY1NbW2tu7fvx+a1QRpIWCzaQOy2IwnYCGpTE5/JylxuEqiQUn1Jr0hSfOUE/YhSTbWqnD9VzsRsV9/6KoEvTHKXMflcg0PD3/9618vLCwsKipyu92dnZ2hUIiIZHAGJF6kiUdJhh/SFwf5DcZbWGJ8rgf90esDKDtimqYeVGHS91Zn2LLN8XhctSrtqmVrQXDVa6M/8WmwYdV3ydT1FFx6sUnjwJrKiDVdUNrQcg6DfD8iNorYKMazxDn3nGcRtoXwIACM/aKb0+/vrCSi0aDcNeRki8ViPp+vtbV1/fr1DQ0NSMxh5Vsjr+zt7f3Wt771zDPPDAwMSEujLCtShn1ut9uyrP3793/xi1/csmXL8PDwgQMHgsGgXLLt8dGzdQdqte4rnqSul/fKNXFwcHB0dDQWi4XDYZkPkBPGhUqOSIlcgrILaq1EgvWm9kJ6uki9fCrtAKAnBlSroW7CNZOHlQ1mpQo12kmMSvVXjpiU8tpa5PMsG6DCxSet9fpLkk03k56RdKK3bVt64Oo0JbUEtXfKPVil35QXqxDrkw/WpYScfTIquNpx7QSi0WhLS8vatWt1SpS06S5atOj666+XmfdUd/S4BJjskWXD5hUpQeI0ImeHHlZWrTNJVEk1hhPnQ51K6rRPVSenvP6SkCZQl1DzPenMyYnwWEhMc/WqsOboxuNPTeqb4eFhuUxJTq+miTpQTTxWkjBxQkuO8coQfZbpDVAPlLW8DPZ4/z/5jVrKJmiDKkEZyciJrBqgaKhKdqrnxFIvmIzaoR6lmkHZbAfyLpfLpZi6rfnz0fijb+q9qlKPxyPztaoS5DXKB3/SllxmOAzSwfsK6uQnF0HLsoqLiz/ykY+0trYixchPTuwzZ858//vff+aZZ9ra2nw+XyaypaBYlNpjVDjJcDjc1tYWDodt2x4cHESKbCnp9Kmv6eoCaFugWtps25bFSn9MnXqqe23NhUiNhk5VMX4dV83QL9D3PJHiZ61bGWb5RC4Dy5y0AarZSsqYtOunEvokcjBpFfKDrfmbq+U+mxHQnyA0AiF36CTpWhJ70B+cYmZJ7/BcoI9InI7Uu8Qa4TYMo6ysbOHChZWVlTq7Spoj9fX1y5cv9/l8Y2NjrEmVOIP6bxrQaU3SZ3XKSqImql7SYvvr7Ul9Xnp1SeuSfo3eO5HI1anzkqTHKt8WjH+j9Jdcf8fkwiIjTkjNNScCymZPVtRpVrVQRWBIal7S4qb/m3b1U/qQbJqhCLoaZLVQqw/6SYPGCyPVZ30uZ187tLVUb4ksPMnwIGn+YryqR4z3MuTx8oW5hqvAr8PB+xqzTC/UWgDAtu28vLwlS5bcfffdynZKrSby366urpdeeum73/3uyZMnA4FANvmaWWOQyk1Ebi1utzsnJ6e3t7e3txeA1KTowgy1KKjTrb4J6dIF2UL9TMwJDaC+1kiWrPqr9mZVoBIJ6Aur/FVfRhX7VBUpEqM2Qv0CvZwrzhEnhj74umQC2gjIDzo/mBLf0skiaTJaNbxTLUeCEkLlJAEVUqi/YgZK+qiriZF1IvJLDdJcnaBl3ZRzZ/ny5fPnz4dmKasTC/kOu93uhoaGmpoalXNPXaNPpZkgiQqosU2iv9Cmlb7Z61QPKekGKOX0opef9Iz07sgLRDpjZTFe3akf9vRvkMJWRQKkKYLlIVwkPL4nhooXpj+LpHwBlIC+bshv9AVK73tSYyZGEhdUfVGdVaOnlms1ZeQHNbCq2WrQskyApDqufyl7qqSz+qqSug6T5tGoV6q+n5sk0pFBOriyYJANnrWTjB4v0LKslpaW+++/X/dB1gV18Xh806ZNTzzxhMwBg+zMxXRVi75CyXWTEjlU1MbP4wUM9ngtp9p1WJNwQLO2TGI5ch1Uv6qFUi2CeggPPXScvqspJG1aalVVSTLs8fY3qYfppA9zELooSGn81feqj9JmIMkAgMbLdDNBDYgiGYpw6L9OAL15ClI4hISuUO+LKlloBgb6s1Pvlb6bTmXYLgn0ZugCoXg8HggE1q9fX1tbixTDLzWt5P6an5+/Zs2avr6+8+fPqzmoc7gZcmXVJEVi5GRXUjqke+F1Oojxp5SkC3QqqSZ10vQnjTpTIti4bIYu7VPLi/pSxeoiTS/MKYZ08kEk9VEVIoWI2VhfILGgyaxRshCVelQVpXNc1S/1uqrjtBpb9TIj66cpB1A2gzXpY5JAVHFNObOU0SElzHOR0Gt4JAMKAAAgAElEQVTLw1j2s0ak6GdkdbFYTBk7qYNcUqfU3qFWDyTC+orxgucsG3PZ4DBIB1cWrKwoZ8UkUl8lhRCLFy/esGGDdGexxzvnEtEzzzzz9NNPy7zVijOJyaxe1NFWZbC1E+ZuGL9YJx1qk1aNJIYhjavUksrjnW90KYVlWSrTt05G9U1FNSwajSoiAm0Ll8u99CuPRqNJS7a+08iVVOdGupH4TB/YJYZ6WPJfyQzkOOuyVWaW8ZwVZc+e/CFB1lW4Sv25yxdj0pdKh3qU0uDVTqRTj0ajMreQfAS6eFK924ZhyLc9te9zAbIjumxeMadAILBmzZqKigpookqMt6iTw5Kfn79+/fq33367q6uLtCNf9m/jBMOiSIxaKCS7CoVCisBxIgC4XAHkFCMil8vldruFpliQj0newgmDRfk+yOmpUtXLHIa6qMnW7I9t245EIrINrLnfJS01Kv8nJ1LVq2OSnhlLVUEJE0C1dAgh9Pdn0pHUzW1VG2Rr5USzE84xaoWMx+OyMYryylHSx9bj8ch7s+FwcuWUA6tOXPpSrwZEf5RyfGRctlgsJtdANbPk6pp98HZohqqcsLmUq430juKE+axcUeUgJ01nOUTqCSpGrj+yuQaHQTq44mCAZyvYkTroG4bR2NjY0tKih7yBtobKsDj79u2T5s/Zq/nUHqMOjmpDkvuErr4R47VdukAria7l5eXl5eVJb3EF/XYlkgTQ3d194cIF/Ru9ivz8/NzcXLfbLdev2tpav9+f2ju3211VVdXU1DQyMiI9gXTiqLjU6OjoyMiI9NPUW5467HMQ+tMBYBhGRUWF3+9XrvpIyI+Hh4eHhobUA8VUPGkAlJWV5ebm6qICuYcNDw/39WWKpX+x9ol/isfj0Wg0Nze3tLS0uLi4tLQ0NzfX5/NJHmZZVjQajUQio6Ojw8PDAwMD3d3dwWAQQNIZYy5AvVRKAGnbdiwWy8/PX7x4cXV1NWmSOQCjo6Pt7e3V1dVFRUVIDEhOTs7y5cvLy8v1SKsYf/KZCdQLo0hMUVGRnFMFBQU+n8/n83k8HrfbLdlSNBoNBoOhUGhkZKS/v7+vr294eFimdUk6kEATv8l5mpOTI88tY2Nj9fX1gUBAX0nkLYZhVFdXL1q0aHBwUIn3VDlqkRkdHb1w4YLMna3WFtu2vV6vXFjUkUZXjOiCdiFEKBQ6e/bslN58NexKosnMZWVlMnxEbm6u7KMS6clEBmNjY7LBcsTGxsaU46BqFU2mEZLVlZeXS/t1OeBjY2P9/f0qdJFSGcnmlZSUlJeXFxcX5+Tk+Hw+r9cr10l5PAuHw3LC9vX1DQ4OxuNxlbs8y6GAtgdJgmiaZlVVVUlJSX5+fiAQkC+PItNyKEZGRkZGRgYHB3t7e8PhsGSZupZp7kzhJDgM0sEVBxPbF+Owz7ws7aB/6623trS0YLzrHwAiGh4efvnllw8dOhQMBv1+v0ovlo2sSF8g1PqiZHiUENEl2R5B2z4pRX4AoK6uTtqBhUIhuRTqwWWgsU+32/3MM8/s3LlTxd1QTZIbhox4UlFRIY/m9fX1FRUVanVTBebm5q5bt66uri4SiUjll1q+lZ7XMIz33ntv7969p06dkouaFInp5czZ1U09DjV0Lpfrpptuuu6664LBoHrWUhT09ttvv/766zI8k6KASrw3cS22bS9fvlzmoNN/8ng8u3bt+vnPfy79K7McKFWdjP/s9/t9Pt/8+fOXLl26evXqFStWVFZWJgV8llku29raDh48uHPnzjNnzoyMjEjJkxhva3tlId9nyXrlc5HveXV19fr162WnFIkMh8Pt7e3PPvvsBz/4waKiIv19Kykpqa+vP3jwoCT9SYexSTubtNMn3aJ+9fv9brc7EAgsXbq0paVl4cKFNTU1FRUVhYWFSY+SmXt7e0+cOLFr166DBw+2tbX19PRYlhWJRKQSU3VKGiTE43Gv1yuPuBUVFdFolIjmz58/b948aclAmubX5/PdcMMNtbW18mCgKKBS18ryjx49unfv3ra2NqVzl2MYCASWLVvW2toqBXtJvES96vF43OfzdXR0/PCHP5SXZanCVs/Utm2Px5OXlyfzUq5cuXLx4sU1NTXFxcWpJKyvr6+zs1Pmfd2zZ8+JEyfC4bA8VzCzijgxsVJIdmH58uXNzc1+v1+ufufPn9++fXt7e/vo6Kg6rrjd7qKiIhn/8qabbmptba2qqiooKEgqsKen58SJE/v379+1a9d7773X19enmjTpUNB4vb+cesXFxTU1NWvWrFmyZMmCBQsaGhqSsukC6O3tbW9vP3Xq1LFjx3bt2tXV1SWTnymJptKtz5FZrMNhkDNGhniQFBu70i27JBDCcPnzDJfX5bsYD9KKheOh0Xg0aMUi0yuTQQJMYHvGimxO+LXEYrG1a9c2NzfrP6l1f2Bg4Ec/+lF3d7cUQKr4ONlUoQpRWcJ01YkkbYogqlsMLdCg3iS5GZim2dDQcNddd61duzYcDqclZ0oq6ff7Dx8+vGPHDj1PtFSoMbPL5Vq0aNG9997b0tISjUalytvr9YrxLn4AcnNz169fr+8TpNkJIWHZ8+KLL3Z3d7e1tSkhwZxVqWSCSvPo9XrXr19/3333jYyM6BdIVf5rr72mNlf5vb6RZ4Kk1KtWrXrkkUe8Xq+u/g4EAm63+7XXXpvgdv2h2FoaaGaWHrI33njjY489JqXphmEoAYaOQCDQ1NQ0f/78W2+99eMf//ixY8c2bdr00ksvdXR0SJ1gEum/UpA8g5ml2bH8HI1Gq6urb7/9dskg1TyVVGDr1q0333wzxs9fACtXrjx27Nj27dv1mTW9DqrHLV94qXbMy8u75ZZb7rjjjlWrVgUCAY/HI01H0g4jERUVFa1cubK1tdWyrIGBgcOHD2/ZsuWtt946ceKEfPGUdQoS70xjY+O99967bNmyUCgk1eJut5sSFtXqxfP7/evWrbM1H+okuZRs0qZNm/r6+trb25XpoXyF8vLyVq1a9aEPfaigoCAajWI8F9Ffv9zc3O3btz/55JPBYDBLK0BFcSzL8vl869atu//++9esWRMIBEzTlO9qWhmeFOsuWrRo48aNwWCwvb1906ZNL7zwgjyp6nZHE9QuL7j++us/8IEPFBUVSTrb29tbW1v71a9+dXBw0O/3h8PhSCTS2tr6oQ996J577ikrK5NK6rStKi4uzs/PX7Zs2cMPP3z06NHnn3/+hRdekFE1JpZEqnFQYnVmvueeex544IHVq1fn5OTIiGlpc0UWFxfn5eW1tLRIm6Le3t6DBw++9dZb27dv7+/vtxMRNyd+EFcKDoOcMmwYnFcrypeRtwBZ5KSx+g5j4LhBc+70kD2E219YsyS/osGdU5BXXu8vrPTkFHrzL+akiQaHwsO94ZG+kZ6TkZGB4OC5nvbd0ZH+7F56klrsWRFAInFAd7vd8+bNq66uFlr6E4VgMCjlBDJyODT792w2IaUA0g0Z1R6mFndliKPKVBfLhU8GJ1Pfu93u3Nxcj8eTTT4xKSrTmZxqPzP7/f6ioqKJi5JkVA9Lngly+dMlH4qtTnrvLGIaR3CdsqtHJvND6lkiAXi9XjlWthadLvvq5JgXFham5XYTv1FJjVRvi2maLS0t995777p165qbm1OflL73S+GWaZo+nw9Afn5+WVnZ0qVL33zzzc2bN585c0YmCZwL0DWksrPFxcUNDQ3ShwaJyWgYRldX19atW9va2rq7u5Eyi6+//vq9e/du3rzZ5/NlKXpU0MVv+mmBmUdHR6urq2+88cYbb7yxubm5vr5eJUGdGHL8JTMuKCgoLS2dP3/+TTfdtH///q1bt7a3tweDQRUvUC4OHo8nPz8/aZ7qS5ASEGbz+PLy8pTdAjQXMSlGLSoqkpa+ExeSm5urZkqWgrexsTEp27vzzjtXr169YMECaXKQhKSlVY6Ay+Xy+Xx5eXklJSUlJSVLlix54403Nm/eLEmbigqeqXb5UyAQKC4ulm8+gNra2ptuuukHP/jB+fPnpQD4oYceuvvuu1evXl1TU5OpHNbsVj0eT05OTn5+fnFxcX19/fe///3Tp09LffSkAyItH2pqah555JGbbrqpubk5KTNFktYIiQCW6tGUl5dXVlZKKcBTTz21detWKQhAyhSYC5gLDHLODUpGzFvLLb8OXzE8RcivhcskI8F/9LzYRbUyLzZscCRKI+c42IPwAB97CqdeuXp6C8PlbbzlI5WtG11ev7+wypdf6vIABLbBDE6wl0BxKdU1EUEYiEUQHRu90NMRC42MnD9xeNO3x3pPTVgJAQwi8OzE9ZEihPz8/OXLlyslhU7viOjEiRM7d+6Ux3EJXeyUDdTFdiLigxItQNNW6+I6RS7VxUYiiq+8QNripNaiVl59+ZDFqtC7atNFIgCQ8urQN+xU1VtSmWnlK1Iko++4WTppSqSKTDAVOpjEvzEVoqCXIBJJKSVrTxqQUCgkBcnqeDBViixNmmTOTL1ea7KsHupijGeQfr//rrvuWrVqVXFxsV7gxN2UH9xud1NTU1NTU319vd/v37RpU09Pj/5ypj6RywOR8I+RcjIAtm03NzfrugI5aIZhnD59eu/evSMjIx0dHefOnausrNQ7W11d3djYmJubqzbXGR5pmNk0zUWLFt1yyy0f/OAHb7jhhokv1nle0jySB5UlS5YsWbJEGor84Ac/OHr0qDSKUG4lUpuv7tLHJ22NenWptUuHOeXwq89QWZEysZBGO8prWy9HCs8mtnxQt0hhW3Fx8dKlSx988MEPfvCD+vuf6S69R6ovpmkuXLhw4cKF9fX1OTk5mzdvPn/+vPStRrrlS2+e7J1KHgtg3rx5LS0tp0+fDofDa9as+dVf/dV169api2m8b7gaTHu8G7XL5ZJa+GAw+Mwzz5w4cSJ1yqgZpxZP27br6+vvvffeT3ziE5I7TmmiqTNVcXHxihUrTpw4IRPbpl3A5wLmAIO0Y0hLHhhwBWB60/x0OSEMLmjk+XdS/T0oaCCvlwiwwTbYAqfsDgzATnwAYLhFUR1K6sBA3e0YPGEf+THOvCWGT1zWXkwF7pz8wtqW+Ws+VL7oRn9hhekmALYFtjGpmpoILn+gdMESItjX3VC35pe6j+1o3/ZfAyf3hUfS+BMQQwYltWl2fLGlTVtubu7y5f8/e+8dHtd13YuufaYXlEHvHSAKSRAgCZAgKVEiqUK1iFa1JFtRbD9fJ471Yl/nxUmcl/vivNw4yueb67gkLrJliYpsyZIoiValRLF3NKKQIHqvA0yfOWffP5bO8p4zA2AAghRke338+A1mztl9r/3bq25AsY2IwHAformSJuhJ7GcqUy0F8SSgegk1ggBJRZaEH4hncSHwRyR0wxKkCI/UyMZAxHkmAlx6fT4tDD08n8KIqQHJUNcP6j07RnamE7KPEDLTCekfFniXMDcKVMhLMZZ6xfaLBUZ+CeGROGlJLLWWqKfLUoneio+P3717N61MsYXiw3S0iAuAfqqurs7Ly6usrPz2t7/tdDrpwiML+YdAGJZrTSJooH1UX19fXV0tdkqn03k8np6enqGhIZvN1tnZ2dbWhghSPErz8vLWrl3b2tqKbitSzOGTxJGknWgwGLKysp588smbb75ZNFYT20x/ctVFgwshx0EV7dOLAJCcnPzoo4+iJHV8fJwq1YBO4gmaOeWCVYlmyugmAOHshRpAniuaZRM1pgx+Fi2hqQFUL60fEGI+7Nmz57HHHtu4cSMIjGi+66g4qhCxy2RZrqmpKSsrczgcr776and3t5ggkUIpwTybWiznpptu6u3tnZ6e/su//Eu8nyhCJkMadh5+pac7OT1js9m+8pWvBAKBZ599dmpqihTKYgfplsgYs9vt+/bt+9M//VPit5ptK3JsHn5vFNcS59zj8fT29o6Pj+NBtgrhI6wKBDnXB0rwI2WmQFwBsGWASWvrej2J662w4fNs81cYA84BOPDQ4m+FFwFcBsAFpjNAaoWU8U3u9cD570PLzyEwt8jr153iM4o3Pvw/cqu3hgLAOXAOocDibxHhKMnq7ddojcur3VNYv2fiSvuFl/7ncOsHC727QhsELXJKS0tRrxHJJfv6+trb2yXVkVlRUzYji1x0oypq/DMQzjNS7EpCCAlQ4SZefCm0B6jXdzJCR0Ym6phE9k2MjwtyJvwsMnos2WKxGI1G1KaR2kUMe0blRJ4iUclisdBhid/Q8bmoJJKrQTRQf0cHvCZK3HyEjZSF5I08WqqPTzSJHREPYBpk8SSOXMz0jRLhsI//OxyOPXv2WCyWp556qqury263izFWlPAoAdcaStK1iibRaDRWV1eXlJSAoL9mjLW0tHR3d5MvV1tb280336wZhNzc3K1bt7a1tVEm0lgAcSTQx2Ffu3btX/zFX1RXVyN8pJ0V+bxmFnTh8Z81n30+36lTpxobGycnJ2kfYaQbTEAAApASJ5r2OHGSqLNPX6KTr16vRy8lnZoWD803Rd6y1NsRqPARVxfKTQOBgN1uf/jhh/ft20cXALH9YmtlWfZ4PJg+EW11IncurQqbzfa5z31OkqRf/epXw8PDGOCGVg6oUI/eEqEYdtlkMtXV1fn9/unp6bKyMhS+Rlo0RQ67eCsAQSR89913u93uH//4x5Rxm1gT7VMc9k996lO7d+/GGheQKzMVr4t/MiGDTigU6ujoGBkZwd2KI3Ddbnqx08ePIJkiQ8DNrcnaHzgwqxXMMdmgXAuSE0uluq9CwS7OPxIrXi0hBlUAjFa++auQ3QCtz0LX66vkFFQ4FNTds3bvlxJzSgPelSmTc+AyKDIk5Zc3/Ml3+s4ebH/3x3MjXStT+ryVcpvNVlRUFGldxDmfnZ0dHh6enZ1NSEggBi2yoVjKF9kHwVAQ3KWl8HQUZP+kRHiFY5mKokxNTXV1dSUkJPj9fvxVr9dnZmaiYihq2yIFcsjf29vbDx48mJeXhxbuGRkZxcXFiYmJOjUVOD7pcrna29snJyfxABavv4oa4ZJzfvr06bGxMRK4LmmsGGNoHk6hvEmKSSLJ+da/CJcJVwWDwdXsmbgMoj5G/iQKn3p7e69cuTI0NOR2uwEA7xtxcXEpKSkZGRmZmZkaQ0m6ewBAamrqnj17enp6Xn311c7OTpQlawbw+nhHifcfvOlVVFSQBSQIR+mZM2cuX76MJ3F/f/+VK1dEUR9SVlZWXV3d/v37Z2dnIWZ1oSLEr8GlHgwGGxoaHnrooe3bt0fFoDhWY2NjQ0NDg4ODTqcTI/ggAjabzWiKhxOhMbHt6+t7/vnnL126FAwGTSYTXVM555cuXXrzzTeLi4sRUKalpZWUlJA1LQ2Fx+O5ePHi1NQU+cGIa4bQTGNj48jIiC48I7Ner/f7/YODg83NzXh5AABZlpOTk9PT0xcdLiU81g99gw46tbW1+/btq6mpQQdzcXawAbhoBwYGJiYmPB4PatgtFktiYmJGRkZBQUFxcTHedcW3GGNJSUkI2p555hkxSUQkRfIBbGpSUlJDQ4PH4xHLn5yc7OvrGxwcnJycdLlcAIBRmRwOR3Z2dkFBAVlwakZmzZo1DQ0N77777uDgIPIuSY1eKaLPxMTEm266iUwyIts2MjLS0dExOjrqcrncbrfBYLDZbHFxcWlpaXl5eZmZmSQeDgaDTU1N4+PjixqDfrz08SNIAODuMUjMi/IDA1lniTUW0wq2x5TIb/hHKaeOWZK4El3HflWkADBg+VshqwaK98LxfwTX0ErXsQRiTEoqrKn/7LdtSVlGi1EOrnwVchBM9oSymx7Krd3T+sb3Ot9/hstLFefGSnq9Pj4+PjMzk6AhqKeLoiiXLl2amJigO6IoiYwdFYGgzJLUiCQUFFejyCZhD90mIwtRFKWnp+e99967dOkSPoZZOh566CE0oo88HemAwT/xKoznzenTpzs6OjDtWzAY3LFjx4MPPoievOJbMzMzr7zyytmzZzEepHhCY3fQUnNubg6ZHVeDP5MMYAH0g2QwGJKSklwuF8YvpF6QtdaiZoKivJNzTtmDIILLf6KJLhui2AnDwTidzt7e3hMnTrz//vuNjY0ulwsH3GQyZWVlYUSYDRs2VFZWpqWlkXSHh6chsdvtjzzyCKqG6Usxtkuk/u4aES2AQCCQnp5+8803k6EnNczn8zU2Nvb39+Oqc7vdw8PDvb29OTk5YrwkDFyVmZmJCvoYLRwIWuEukyQpJydn3759+/btI0EXD1dGu93u7u5uDPJy/vz5gYEBjLfC1fDX6enpGEJr3bp1ZWVlaWlp6Js1OTl5/PjxQ4cOkRsNLntc0hjFBg34AoFAXV3dI488kpCQQDc9HI3Z2dkDBw6cO3duZmaGom5BhOXM3NwcoiIcNNI4O53Oc+fOzc3Nmc1mbLPf79+xY8ctt9yyaKRD0fhEp+atMRgMsiyXl5d/6lOfqq6uxiYpgqs4APj9/vb29kOHDr3//vttbW0TExOItpma7qWkpGT79u27d++urKxMSUnRCdnqsa6ysrJ77rnn9OnTnZ2d6KtOQkSN3HG+xqemptIM+ny+0dHR06dPHzt27Pz58z09PSKizc3Nra2t3blz55YtW9LT08UYarQYioqKtm7devDgwcnJSbExOjWmus1mKykpKS0tFaePWuv3+3t7e48ePfrOO+80NzePj4+jfbnNZsvKyqqqqqqrq6utrS0sLHQ4HHq9PhgMXrhwYXx8nAZt4c5+XLQqECS4BhlsirL1OfCEQmDSb702rj3xgj1Q9zUppRTlZ9esGuBBAGaG0r3MUax8+PfS8IlrVtlCpDfZKm79b2t2PW6yWhUZrgV8RFJkABnMcck19/9tYk5V46//2Tc7tuK1cM7tdntiYqKos6BzRVGU3t5ep9NpNBqJo8lC7r4lSdfQmVpRHR5JW62ogSGRt2JYbzFNgqJmduFCwML+/n6M5Yuv+3y+5OTkW2+9FSU0GsUTNlVMUEFN4py7XC6Md6goisfjWbNmDWZcADXfK6G3kZGRgYEBl8tlMpnwGUnNcssFopGhc0K0IoX5QaTJZLrlllumpqYoXhKdi0viiQg08ejCGJ+Lnh+fFOKqYi7yJ51Od/z48Zdffvn9999H4ChJEgYMwmWDcY/PnDmDVv/79u3bu3cv2fAhSMLPiqKkpaXt3Lmzu7v7ww8/JMNB/JVMOK5DZ7kQ5Nlut99444140tPtIhQK9fb29vf3u1wum82Gdwan03ny5MnU1FTR3RgAbDbbxo0bJycnh4aGKPfjwquCasG96XA4vvzlL+/atQuEW5lYwvT09E9/+tO33367u7ubICZG3qECnU7n2bNnz549azKZ0tLStm3bdu+991ZXV3/wwQdPP/00xogW9yxX08zgT5Ikzc3NZWdne71emgVKXipJ0vT09ODgIGbPQj8YKSLOQyQ3wD07MzNz9uzZc+fO0a53u90Wi2X37t2LIki87iKHpA2rKEpCQkJDQ8O+ffuIzdKdHNvwi1/84sUXX+zu7sbAanFxcWQygW3u7+//r//6r7feeuuuu+66//77UW4nXp8AoKCg4Itf/OK3v/3tzs5OcrUWJ5E+0yDQZ5E/OJ3OgwcPPvfcc/39/R6PR1FdnXDE9Hr9yMjI66+/fvjw4RtuuOHxxx+vra3FknFUsWspKSk7duw4evQoJggglo51BQKBjIyM+vp60XRKbMOhQ4d+/vOfnzt3DmN/YjBzbO34+PiRI0eOHDmSlJS0devWz3zmMzU1NX6//8KFCxMTE3iyLGpX+nHRqkCQysAxXfk9kd9zGfTFt0DLjyHouQ7N4JxDxcOw9etgSVwydhRnNnaZJQeQAVLWsFv/HU5/h196hQVml1jxVZHBkrDp4f+3oP4eAFiaTJD9tsccltBlRQbGoHTHPltSVtvb/zHc8v5Sal2cOOfx8fFJSUkaoR1t6dHR0enpaeILPEIDsmgVuJMVNc8pOSaLp6OIrqSIPDSRz4AqlSFRqM/nwzB+4ovizVjU/zI1sy1peCkHA+ZFIH2oyKCxC+hETGCRwlBzVYAq3oDJGDFGtO1wOB566CE880T4GNmjBUgR/I0AQExP8jtDkcOCkqe33noLRRG40nAQaBbQQgAHtqmpaXp6uqOj4+GHHy4pKRE1oaDeQGpra10uV2Nj4+joqHjWxnhrWsGeIgopLCwsLCzUhGF3Op2nTp3CeC6givBHR0dPnTq1Z88ejUjeYrHs3Lmzubm5u7sbgzUu2gA69YPBIOo66+vrRXkVrXwAaGxsfPrppzHOM4b6F4WITJCnIh6dnp6enZ11uVyXLl1av379hQsXent7AUCnhk/HKujWSp8piCwtAIJ3KCulZIAEwiQhDSCE29thIZRlCrP26dTQ+jMzM3iFWHSsRO8TpoY85Jzfc889u3bt0mj8sUlzc3P79+8/cOBAR0cHBgYnhikOrKIogUBgZGTklVdekWX5vvvuW7dunciaJElKTEzEUFaYqUVkOKReV1SCaNdsznlLS8sLL7xw5MiRoaEhl8slqckVMeAlDXswGPT5fIcOHcLkUqWlpVgI3fMTExNra2vRRIEGRBFs361Wa0FBAfF22l+yLA8PDx85cuTUqVMUaJOphAsAOX8gEDh8+PDw8HBdXV1ycvLMzAx1RDS7X1W0KhAkTF6MHtJHAe5Yw6zp4Oy+Hs2o+W+s/kmQjIvDRwzWw1RHGUX+yD0bAJgEIIFO99sHFtODcxnA4oAdfwdpNXDkryG4QkaIi5HBErf9i9/PqtqihGDRlSnpgEkAAFwBJcS5oshKCPsl6XTAJJ1OknTA8YEFu8w5hIKQWbnFkVtx7oV/6D7x4sr16SME6XA4oiJIRVHGx8cxmrTIf3UxxM6NJEV1cKZTR3NNJAcawmcEpOhXrooGmSqz5KrCHcUtmt6Jt1vCefQ/SaeoVbqIbKgZdvMAACAASURBVI3in3SwUTtJkiqyY9EegIXH3I4sU2ytyWQqLi5e6sAuSjxCp/9JJ3Eekdxu9xtvvHH8+HG3222z2SQhQQ6tAUkNUSRJks/na2pqGhkZURTlgQceqKqq0qB8zrnFYtm4ceOGDRtOnDjhdDpxgcUO5a+eqOWhUKikpASDdWs67nQ6jx496nK5UGqFa29qaurixYtzc3PJyclip4xG48aNG3Nzc3F8NC5fCxMm/Lzrrruys7Mh2qK6cOHCCy+88PLLL6NRB4qXKB8jBWlnqlSewuig4WZzczPltRO3LfEBLmSpESGmOFb0FtUlSh8Jyoj3AeJ19L1Op0N9Cz6P+RhjGSWsiJQnnHO9Xo+ZCET3eVCZoc/nO3PmzPPPP4/SR41NhdhBunv39fUdPHjQaDQWFBQgPqMLOWMMxXJ9fX1NTU1k1y6uWM3qFccKnVGef/75V155ZXh4OD4+nsTGILBQfB5FfWNjYwgiEUHSDsLGpKWlZWRkdHV1iXF8FTV5t8lkSk5OjowZKctyR0dHZ2fnzMwMhdsUB0SnZmrgnI+Ojg4NDXV1deXk5Ph8PtFyfXXSqkCQupAH5FD0xuj1UHInnP3f17QBnHOo/jxs/gsu6RdxmmHADMB9IXmymykB5p1kwydg4iLMXAHPOABwWzpLyIe0Gp6xEcyJit4mJeQzo46HFsSRCnAmQfkf8bFz0PosW3nTSy2Z7I4tn/129totoXmCKRFJOtDpYW5iyusc43JwduTyWMdx58iVubEuOeADgISsNfbU3LTSekdOJTOYLfEp9uQ0YIsoxOUQWBIS1t355an+Vudg+4p0Crclhqil+7GI6hRFmZiY8Hq9pL8m/ihqWBatBT+IDnd0WRej01EQWqxLEiJlgIAARECmOUKifg9qvkFkOiTPwAaIjBXC+SyEJ9IlXBh5dJHMEuWRGC0ZZZk0CPTKfCOGbSM/ymXwQSxBtJEiMwDpuhjtXQeKnC9CAHjVMZvNlHyIUD4Lj2mHMnWdTjczM/Of//mf6HtbWlqqmXfGmMViufvuu0dHR8+ePYu2HCA4gV5rIQcTpG7l5eXbtm0jmwqqempq6sKFCyjwIzs8zNc8NDSUm5urC09Ck5iYWFhYmJqa6nQ6Y5Sr4Qez2VxeXr579260rKULEjbG6XQ+88wzv/rVr9BpieC7phyRvUiSREp2nU6HrjaE1bgQvYt4BX5GrCxOK612EISmmk0t7gKUU3I14D+ogisK24SDiTEQcEjJCnbR+cKGYVEJCQnr168vLS0lybE4dxcuXHj++ed7enr8fr/oNkTYlxYAjZvdbu/u7n7rrbf27NlTXV2NihcqnHN+ww03NDc3nz59mmTMXPDlR05INwdkvzgC3d3dBw4c2L9/v6IoSUlJyI1x7YkNo/XAGDObzR0dHUePHv3sZz+L8FdkdKFQqLCwsKOjY3BwENSgSCJrwsRFIGxq/DA5OYniWBCOJK5afOKwYMMMBoPVap2enh4dHRWvQ5G3+lVCqwJBgmeU9x9nBTsiY+UwBkrxPXD2exJcO5tEUCoflRq+AbCIzzUzAA8CtL8BfR/wK2+xwBxj2hfYbB/M9kH/hwz3vDWdFe3h2dtZ6a3AYCEcid9v+yYPeNill666TwuR0ZZQ95lv5268ORRYCD4yCQwmmB0d6znx68GW9yd6GpWAN5LjTPU2TfU29Z15HQA40yXnr8uo2Faw+e7UktKgH5T5leOhAMRn5jU88Z3D3/+8e6J/RbrGVe9IzZfUbLfbjS6NsizjCUpK3hgRiV6v93q9qI8ghohcjHOO2iIWHmcH38KsVuJ5owjm56JMAj9rOCl+oNdJ3Uy3ebpVizxRPOFAVaBjg8WRoQMSjXsoijjd2kWcSufiwpZzdGCIbRbPSFgMVjI1G6SiRrdRwn3efzdAJJF48DA1zQypL3VqtnTxEKJxwLFFUcovf/lLnU735JNPUr4WWt42m+3GG2987bXX0E8fBKuM69NB2holJSUoxxJVkB6Pp6ura3x8nCT0eMrq9Xqfz3f+/PmcnBzRdxupsrJyw4YNhw8f1oC8+Qhr3LBhw+bNm4lX0JWPMYahW86cOUORz+lFRCcEv2gWeHgIGPoShIwDtHeY6lCCvilirBYRmFJ3aJvj3hTVJqKFifgNqHFbQdCJUy1YQizbh+69jDG/32+xWG6++WZR6U/o0O/3nzhx4u2330YohuPJBBK9qsXRM5lM09PTv/jFLxwOR2lpqXjnZIwVFhZWVFQ4HA7cBaACR+oLqvg13WSMNTY2vvXWW8jZsCUUF0wRohxIquV3IBBA1/WxsbG2traKigoEkcTJ9Xp9RkaG3W6XZdlms6HqmRwEFUUhM1ZFMFtkjKWnp9vtds45YXpJksxmM6ZNRxcrXBg6nQ7tUkS4SStq0cm6/rQ6EGTQAx0vQvYWkAyRUSGZPZPn3QR971yjynnRbVLDXwObHz4yAAYgK0rj89D9Nhs+wWS/HmDRZDqMMb13DFqfhY5f87YXlMxN0trPgNkG8yl5OYBOz7b9teKdkAYOX1WvFmiVTr/h3r/Krbk5NH94cCaBpIO5seGO934y1nFiur/1o+8X4ziMy1M9F6Z6LvSffcORV1lQvy+n+ibgMN/xFApAUl7Zls98+/3vfU72uZbZJYEQA5EoggkCHvwsZh8hZooPx7hFPR7Ppk2bduzYEZndRCyBkBl+6O/vb25u7u3tJd00C9cwijCL+qI51+kZzUWWPot4kX4VC+eC8otEI+I4kHwUhGOMhwcaFMUhC5NmwYgwPUbwRwBI/PN3DDhCOHak+RLHmYwuxAtG1KMFPQNOnDjxwQcf7Nq1i7zsaU7j4+PLy8vz8vLGxsbofFIEs9prR9gFTJlD5g1ivV1dXc3NzSRwVdSw1djIs2fP1tbW5uXlaa58a9eurampOXToEI9Bh8BUG5Lq6uqamhrxJxpPlIoNDAxobDQhQloszpG4QUDYROIWo59E1M4FdYTYfg1X0Wx2GgSNNFRzd2WqxSQIMuwlXRioAYqiJCQkbNu2TYx6Q20+f/58U1PT7OwsJQOj16OyJmqewWBwu91Hjhy57777yABRpLy8vIqKiosXL5J3kSjF1JRMb83Ozo6Pj4srX7xag7C/RMkl59zlcnV1dRUUFKDeXIMFExISRIE0FRsMBp1OZ6QvF/qVp6Wl4W0BVFkpFitCYR4eP0Gc9Ngn6zrT6kCQAKz7Td5/Nyu+mWtUnxyYxQLrHuODR5jsW/F6eXIlbP0GM5vnDRUuAQPOB0+z4/8IE61sWe7ZLOSB/kNS3yHoeZNv/RuWuSkygvpHpACzOWDb38Bv/q9rZP1ZdtPjxTc8sEA/dHoIet3th/e3Hvz3gNu5vFrmxrrnxroHm94t3LKv6o4nbUkpihy9y3IIMqvqavb91dnn/5Zf3VbBvUdKDSKRL6NlkigmlMLtwRclr9dbW1v7ta99ze/3i6oQRY3fK55/eElVFOXw4cNzc3NdXV2RhjIi+OPhqi4x20HkWzo1WQtTjWlAAJcQbqApDoWGQ1F12GDi+DA//4qRqYmjSvBI06RYChEHh6kktvOTS5obiDhT4kqgNYa6PAoCoDmVQRXD9/T0vP7665s2bSJxkUiVlZWVlZUYPjCyGVdPbB6RiaIosixbrdYdO3ZERZDt7e3nz58XhXa0swCgpaUFFYg09XgY5+TklJeX2+128npeuHmIQsrLyzGSOajdx9HAsC/d3d1er9disWhghwjXNDdGYgWawaRX6E8NwhNXuGar0mdCfjohuJXYsMiFxAS9JyVNYMLFcuFRgoh5tFgsmZmZRUVFkdYCnPMjR46g0zQXDC3E/S7eA8WbLWMMvWr6+vo8Hk9kasT09PSqqqqOjg6/3086X+rLfKY7KLpmgnkPMQ1qGLYBS9OpOWkCgQBmRBRLQ0pKSkJpIvpiiwV6vd7+/n5KU0lvSZKUmZlZWVmZn58/OjpKkXEp7hstb66qs6gv4n1j0cn6WGi1IEiQ/WzgKM+7ESBiacoAuTt43X9np/8FQivqZWJK4Bu+JCXmzAsfGUDABef/A5p+AiHPVc4hYwBjTfy1z8DGP2frHuNGW1SpJw8BJJfwhm+yw38F7pGrq1NLyQU15bv+mAEo83APSYKpvs4LL/3TcOv7V1+dHPBdPvzc+JXzNfu+kVm1bT6WJQehuOFT7vHeSx/8PBRY/j2B7uWE0kTUwlTZA3FhOhKIu5H34sKE5eMNVTzX8d1IuQWZqYHADjQfiP2JMtEFGqO5sIryDBYufohauPiw5mjUtEEEphBxsC08ULIsY/ALsrmkU5CFy28W6KYGENvtdk3Q5t8BIsAE4QJX8djDqxEJOSK9RmheDAbD5OTkmTNnBgYGkpOTSVhCTxYUFBQWFlLVXAh/eDUkqYa5GHdJUZ0MaDWSFq++vl50saIHLl++3NLSgjFrNCgEz/XBwUEeHvEAW56dnb127dqLFy+6XC4yKUGYIqbewcHU6/UpKSloUqkZOgC4cuXKu+++y1VTDRpzBBlk9KLBK9QeTWmaByAc5EWOQORbIgcTJWpRYbq4T8UvCXeCsK5im9WPSJbl7OxsUUYo7s1QKNTU1NTX1yfGuxU7ommPZhx0aiKidevWoW2D+ExycnJ+fj7ZQIMQziLqRNCf802NOIag7jiSRAaDwYGBAcSCGnYnWjoSBkX719nZ2XPnzt17770pKSmykNEbH9i1a9fMzMwPf/hDOmLEltBIknRTkiRS+kdC5NVDqwZBAsg977EN/02yp2iDP3IAAKnmj0NtL+hnOlawxlDSOkPlXmX+rH1MD/zkD+H8v68g/pdkH5x+CvQWVvtZzueRRMrAim8Ez1fgg79auZpBUZSSmz6bkJUZmCc4kqSDgNt97CdPrpRrC5JzoO3kz76266v7E7MLouZI5Bx0JuO6e74yPdg2cvHDq6+RCx4YIOxA2pwiKIkRyogkvosFLvr88i6Rq/bqGSONjo5+4xvfmJqaQlmOeC8XA5EsQDxCLHfvvfc+9thjUY/q3z1aUgfFm5KiKC6Xq62tLTs7Oy0tTVznkiTl5uZmZWWhRd0KHk60j8QoBCQj55yHQiGLxVJUVIQpoxTBDhiDngwODmIGI838Elrq6em5ePFiVVUVfk8AIjk5ub6+/sqVKxh2WxQcitcnagOa1oGQ+Ieor68P4/ZhEFOUFXFBbrciaPuTRThBKSkpBQUF4pWSqzK8oaGh6enpQCCAFpAQvhoXLpnYI6YOp+/pmeTk5MLCQrQARhAfFShraKlcnR7GNApo7CQ2Q5Ikk8mkC4+TRYPgdDpRRp6fn0+CRnqyoKDg3nvvNRgML730UldXF91kmCpGBRUQo9w9FApRqAT2h4jisZA028PGGyFuV9RfOYCu7v+Gd/5sIdeMJZHOJNX9+byFYRTzY//KGv9jZaoTictw+l9CPe9Ku/+V2VOi+wgpoOTsgPhCaXbFdNmZFduy1944n/mj3gjO4YHjT391ZeEjktc5+s5TDxdtf7D6nic/inAUTkoITFZLTs3ekbajVxlAHj0PNDsfPzDGjEajxlKb+F3sVUSySM3Vdr5Xlkqr8NK5JHK5XMePHx8cHLTZbGg8QGewxkAzKomiRwTrgUBg3bp1ML+e9HeMYu+jBirpdDpMjLZu3bq0tDQqDQGT1WpNS0uLGhL1KlsrzikTZOF4CgaDwYyMjIaGBspDQxQKhVBoysKVuSAc0nq9vru7u7m5GRGkuN2SkpLQQ2hoaIiF+7FRq/B7TEhdXl4eHx8PEbvV7/cPDQ1NTEzYbDYWLjInN97fk7UnEt7JU1JS8vLyxPsz/ur1eru7u91uN31J0ugYQQ/OzsjICCFIsWqz2ZyVlSV6f0PMCHWphBPtcrnkiHRZjDHMPB5ZLy6VmZmZd999NzU1lSS1tAh1Ol1paem+ffsSEhLOnDnT2dnZ1dWFUTnJQRDCLycaQenqpFWEIBljcOwfeHYD6C1RflaAldzCnf8dTv7/KzCckpHXfEnK3BQdqzBgIS+07Gfnvnv1VUWnoFs/dISf+Q5r+H+4wR6pzuYySI4svv4JOP4PIM/v8xIzWRMz1t39VUtCQtQgO0wHc+MDp5/7m4nLp6++rqjkc452vf/zxKyygrq9UYWvwQCUbLu//8yrox3Hl10LYwwzPURV10qSZLFYDAaD3++n5zWvL1qFRqShOTKX3fJPLi1wmjLGEhMTMTutKMshEL/wSSxqdhhjBoPB5/Npgrr9fo55JDHVkhU/oB65tbV1cnISwkUm+CEhIcHhcGCqm0jQtjwioMYFkoRgJbIsZ2Zm3nzzzWjrJpog+/3+U6dODQ4OanTuYpmSJPX19bW2topOJCiUslqt1dXVGRkZPT094qKK7BTn3GQyFRQUYCZxDR7q6+sbGRmRVGdnUlgzQYP8+wYfkRRFwfzRGnAPAD6fD/MEEtyhnRtj4QsgSCwwLi4uPj5+dnaWUCmtLrjqGdGIGzBtT9TGUyhN8XaEH1Bi/eqrr2ZkZKB9rQYOMsby8/OfeOKJm2666eDBg++88w7myMFg5iAk+mKqPT1blRF8RFpdjeNzA8rF55nWigx/A+AAlfdBwZ4VqKjoNlb7xHy/MiUEJ77Njv/D1Ve0CLU9z89+H+RAVLduHgJWcY+SXhPlt6VTzQN/m1ZWGxU+ShLMjfZ/8N0vjly8Vg7gSH73zPlf/n8jF09E3xQcJL20Yd83mLTMiw0yAr/f7/V+ZC+rsWpnjMXHx6P6jE44WKJaignpIlhEMMXfT5qPg2OgCr/fHxmMDWnhYlFiBKrZE4bPEMHQH0aeCK0CmGDSyjkfHBycnZ2lbyQhCozRaExNTY0xsnSMJDoU83B3CkUNypOZmVlfX4+5GUXdnNfrPXfu3OjoKMW+FoEC7dORkZHLly9jAmimKsfJyG/Dhg05OTno5SCKHkG1VyZ4nZSURBGqRert7cVkxNR+MSO8aIr3yaJlz7IoxLVarehHAuE80+fzDQ8Pi4HMyMMvxirw4ZmZGYyBSvXSM5IkORwOvBfRwlhej+brIwjXCVSUUy30PwFWqp3WGHZ8ZGTk7bfffuWVV/BXcanQW3l5eY8//viPfvSjb33rW5iGlG5N4tWLVnWMbk8fC60iGSQAMC5LHb/kxbew+OxIZ2GuALM4+M5vKe8Gpf73l10Llww872bJbFOiifaYAZSLB1nzz67D0cS4wpt+ylM3SKV7onjzcACzXcnewYZOXGVjbEk5GRU3zKscZtD08j/PDFy8ukpiIu/M6Jn9f7fnL39ltMRFbgquQHxWqSO/eqr77PLKZ4x5vV7Sp2hABufc4XBgyNZIhxWRiSxAer3+ypUrR48e9Xq94ikly7Ldbi8qKkpJSYl0pvn9JDJ7Z4xRPl8cK4hhqJngCUQiB9GB8Q8IkkiUiNCBh/nr6AFR3mYwGDDVDUSLG7U8IuAoXquoYYqilJWVrV+/PtKzx+PxdHR0TExMBAIBFE8SCBbLR/eCsbGxlpaWmpoaypXMVA+2hoaG1tbWzs5OTDqseZ2grSRJycnJ5AknthbTEorQlswtmKAcv/qxuv7Ely5m1jBGs9mMglsqEL8PBoPT09OiRalGPrdow7jqzkzLNZIsFguGphJZwYoYCGo4v9hm8RICEZsIBG8e2nctLS379+9njO3evZvk3OLg63Q6q9VqtVobGhpycnJ27tzZ2tp64sSJ5uZmp9NpsVg0hrywik1vVxeCBAA21Q6NP+Hb/zZqvBsuA7OmwJ7/BW9+EQaXqetkCfk8q14bNgh/0gFM9UsXvjePh8vKE5N97NjfQ+YmsDii9DcIUsWDrPEHEJi7mlpyN91hNFuj9klvgkuHftl//jdXU/6SaHbkUuNL/7Tl8W9FetVwDkaLsXTHgyeXiyABwO12O50fBSHScBbGWFpams1mw3DiEG7RGGP5JpOpra3tpz/9KYoluKrh8vl8WVlZ999/f0JCwu8bgpyPg4u+n2IgkuVxfPFKECPc//0hGhxROhIIBMghQDNWOp0OYdYKtkGUoGgaAwB+v7+6unrz5s3UYPoJA+hQsmZxP4qPMcb0er3L5Tpz5kxxcTEGjhF7tGHDhqKiItFhWSNbYmpYaRRoQQRIdbvdXq9XXGZi3HVNsJVPFl09zDIajVarNbIcWZY9Hg/B66UCO5ojCp4PwtwRgzWbzWjHQs/HiFCXREpEAF1NU+lX8bZGbTYYDDMzM2fOnMFFuG3bNgynJXItrgpx7XY7xtWqra0tKCjIzc3t7Ozs7e2dm5tjQi5sdr1SRi2DVh2CBADe8w4vf1BKLYsas5DLwMxxsOsp5fDfSz1vLqeCpHIpLj3qXHBF5u0vSlMr6fG9OLmG+OVXWfVno/SXA7Ml8dydrOvAsovXGUwpRTU6AwtFgGZJB3Pjox2HnubKNUz5E0mDLR9MXGlPLiiXo3kyJRVssCXnuCcHllGyJElOp3NyclI8M4jj6HS6rKysuLg4MTsChNssL7pLzWbz0NBQX1+fJqTI3NxcSUnJzp07NYX/ztMC5wRTI/bh8cM5xygt6JodaauuIdTgINYn+RbFRl7ZXnzSSRIi3uE3OPKRLqUk1aC0nCt1MmE55KyqgZKc88rKyvXr14OgVUfB1ejo6KlTpzA/BwuP/CwiCQDQ6/Uej+fChQu33357eno6F9z5GWMJCQlFRUVpaWmohRAtlQlWYuEkS9NIdzweD+YmIVsLUGXhIDCKVXiWL0xXf1VQFAVN/SKLVRQlEAjQNJFpRIwDRW2j5Urf0+sot0MQj7MDglr5KknEiwTUCCZGbU8kkWGuyWTinJ88ebK/v7+9vf2xxx6L9FrTSCUzMzMfeOCBu++++/jx4z/84Q9PnTqFo42Jo0Qd99V3dmVpNYpG2Vy/dPSbfG5svtZxGSAuA276n7zhb7lkjP7QfKQz8/V/wiGakJEB+H1w8bmlN/mqqe2F+VTMjAFUf+5qlk5a2ZaM8oaoEFFvhOGLR5xDncsufHnkmRoaaj2siyank4OQnFecXb1Ma1fGmMvlmpqaosiuSHTtKy4uTk9Phwjbl9iJTHxwe+MBTAlnKRHtHwgJIQKiChwlChYIguQsKul0OjGkhZj8DZYereN3m0i7R4iQqxmoNU+KlytQrdBWZCQJQWrgI4qfS0tLi4qKjEZjZJLfwcHBc+fOBYNBQp8smoUxohOXy9XY2Ih6BtEuDWsvLi7etGkThEdIFTtO5dNnse+BQCAQCMiyTDnrjEYjeldoMhz+PpC4xTSGy+LlnKvRzkWjPR6zwejCV3dCcqLVAZUvyvaWTbQeROaDP0VFzEh0ptC+AxXUYtSI4eHhF1988cknn/zBD35w6dIlUEPZR1pxIJlMpvr6+n/6p3/6+te/np+f7/f7A4EAPk+ZG1cbrUYECQAwdAre/jK4J9k8QlIeAmaOhw1/zHf9Lzm+KPaCFbMD0qqjhvJmEsDllyXfxLJafFXEpjtY009YVKkKB7CmyeakZReekFVuS7JH7mUmgWfGNXj+N9dZAAkAjEHX0efGujp00eZXMjBLUjYsmjUyesksFAq5XK7x8XHkL1wwZGGMFRcXk1pBPOTw9Rg5ER5veBVGeISpFFettcrHSMTiKfEDW2J4MwL6SkQAoKWe6AvP7ycaH2jEJ0TzrUn0cIJwOLXiLcHag8Gg0Wjcvn17bm4uhKv/0Dmmo6MDowkGg8FgMIj530Iq4Z+ITmRZ9vl8Y2NjnZ2dbrcbaxTFRcXFxfX19SBkBwVh3kkeGYkvxV+ZIHTUdCd2YPQ7Q7SWRBAjjjmLCIsbe8wjzXaOXK5iIYQ1l33/j0oiUCZRogidF+iIeMSIiwoD0Q8PD584ceLll1/+/ve//7Of/ezs2bPo5RnZbHzXarUWFBTs27fviSeeqKiowBAWq9n6dvUeeGzkND/yPyAww+ZrowIgAyu9Vbr/NV7zJZ6yNpb1Ktuy5/0t4GXnf7DM5l4lcQWan+ajrZGImXMAc6Iud8cyCwZmik+Nag/AJBi/fG6w6d3llXyV5B7va33ju8FAlJbJAUgvqbMmpi+jWLwCejyeK1eu4AEpghXGmNVqzcrKwsytGhwTo0yLIBFFLGeqjmxRtezHRfNxn2vNlcSRERORaYD7AsQFNSgeYKL0aBntWbiupRYIwnpY2WKXRxrsqNfrySRXs7zxokV+JCu4EkSZH1PNGGw2286dOzMzMyE8iA8AXLx4sa+vD13czGazRSCz2YzfWAWy2WxWq/Xy5cu9vb1ix/FDVlbWunXr4uLiSG1NrlfikwSGeLjRm8lkQmdwigEpGpKyCNO3FafruVpiIXFFBQIBCnMhkiRJGOZGBI6xryhxR0cmfSWJpt/v5+Hhe2IEqTGSRlYt3joia9H0jhAkU41tcDQwFdmlS5eee+65p5566plnnjl06FB3dzdl0KaKROSalpb2yCOP3HvvvaWlpUwV4a9Ou53VaAdJxLpeDXLQ7/4X0Bnm9WyRAQxm1vA1xfkI9B1mfe9CzzsLlKkr3MWkKCGrmR7kjoOSd+Jjw/lzA9B/mKdXaV2IODC9CRIKlleqJT4lrWRTVHNDJaRcPvrC8opdERo4f9A98dWEjALNlV5RwJ6SY7DGwcySkzriqel2uy9evFheXm6xWDBeKzFBACgqKqqpqTl9+jQpRBQ1V82SpAuo1cIdrnFC/NiJCW6k+I1GDAMRwifRKXWlekFgUSO8kYRcZAuTOCnLCD2DDSDmK4VnJxIldvgAfWZqtlyx5ZpmczXYYdRlI6rbltTm5ZEolaGwNRj9lLrGVUdpAAgEAug/SzN+9SBSA+65Kng2mUwpKSnV1dUYxBvCR3J6elqn02GgeIgBeZDdCDnMiYPAGMvKyiorK2ttbXW73QhKlPCoXqikppbQ65IkWa1WtD9DHKnp2pLUsuLuE+32xMYggd6OdwAAIABJREFUic46UVeLeOPi0byUrhGJKxwRJMZ2ZeFmfDhupJzVgPWFiaxc0MBRg5Oo14qieL1enDVMPMgWi5W4jHuRCBbp3YWhG1dzxuCtg7aeaEFLp9Lrr7/+5ptvrlmzZs+ePffcc09OTg6EM15aHnq9/gtf+ILf7x8bG5uYmFi29+G1ptWNIBkzXDnARx+D7E0A87tHc+AhkOIzWfWDSukdcPkNaPoxm+3jsj9yyKXkNdG1oxLAVCdbidjdyyY228uDIYjQ7DIDcHvm8srUG0zx6YVR+B4DJcSn+pqXV+zKEOfO4UsJmQXarxWwJibqTfZlFcklSZqdnW1qarr99tvxSw0rKS8vr6+vP3HiBKjxY9HALsYQMxqhJgiKDOSAq2Gra4DOfPiAfhKD2S7w/FW25Pq/Lp67oAZNFH/VPMnVRBokTUHlqah8F9/FX/V6PSYoI19dENbG9bFtQJxEYdtxMWP0U4Aw+QqeWGLY5JWabhpAFMDgQvL5fLm5uVu2bLHb7SB4nlGNW7duLSsrQ5OvWKpQFCUUCsXHx1OuHSTqRUJCwvbt2wcGBqampjA2EFeJsN3s7Cw67ojIknNutVotFouI6jSyqMiVEEkimsdvaFEp4Rm6IXx7arZt1PUpphq/1sTCVcYU+xrC945er0e/eOSl4kVi0XYyIfGPw+GgO4aGQqHQ9PQ0Lu9QKIQjKW63SLqaUVrqdhDBNDIZMS824j+0G5Flua2tbXp6+ujRo9u2bdu1a1d5ebnYZrHq22+/fWZm5vvf/77BYIiUzq4GWo1tCiMG8Ppnlfqv6zd+lssQVRuL9NGvRjtUPQCld/PZPmXgpDJ8Rie7JNkHARfIPgDgcdlRlwYD0AVmF26LpDfaU3IZk9xTgyH/PLmlI0hnMNtTcwHAPbnIW6Er70q1X5YSsjXLnnPg8fmSOZH7ZhatTm+y6k1WNCKUdPrEnAqDNUrkRQDgSkj2LtLla0qc8ysnXi7YtCeqHWZq8cbJ7vPLKFan07nd7tbW1pmZmby8PE2NjLHc3NyampqUlJSpqSmCg5E2dgsQcXNR6iOeNMto9soSF/R383FSzffs2mvorjOJEhQlPP2xRoiiOe8hYorFZyIFFRoRF4SfBNdNYgThcESSpLS0NIRQ1CRqidvtRgSpGYoVaYD4TSAQyMvLu/HGG8kdVQRPkiRlZWVlZWUtu7rIL202244dO955553Lly9rRh5rlGV5YmLC7/dHRt1KTU1NSkoCIeBoVGwXY8MixWCR60Tz63wTIXIbcZavNYnI2+v1Op3OzMxMTdVGozEtLS0yimEsA0W3DkmS0tPTNekusXbEizMzM4FAgKlaXVrk12IclrdbSd0c6XIEAIwxDCvh8/k6OztbW1sHBwenpqZuueWWDRs2oAc3hK+NkpKS7du3v/jii06nc3WKIVc9ggRgsld34XuyZ5ytewzs6VGdYH5L+KvODEllupQyXe1jAAAMuDcAvhkAzqwpUWCoBIrbzVzzho9RFCV9TUPJ9gfSSus5sOm+xstHfznU8j5bMIMz5zxnwy15G+9MK6sDYBNdZ3vPvDbY+NZ8nitSyMVAiSIilQHicxV7DpsfQXLO09dsTV+zNSGrzGRLYkzioOiNFmtSFkNjynBiDGYG22LHwdeIgl5nVJGwrEBK8SZ450dLLRA5i9/v7+/vHxgYqKqqEkNLAABeW8vKyurr6w8fPjw9PY3WyhCzalXUhIrCA7L0X2qbrx2JICbySxBMxETB6lIPp9UPOglPi6armmNYPCnp4KcPONekbqOpx8UQDAbRrk6E7DSY18c9n/TsoOrC9Hp9Xl5eXFyc5kl0FJ2YmPB6vairXUE4ohlPANDr9YWFhRs3bkS4RiiWNh0IQGHR8iOxvqguxI6YTKa1a9dmZ2ebzWYaedHeIBQKDQ0Neb1eu90urgTGWGFhYUZGBgm3WLjbDYvNCQyLIlbAVKtKWodRbxSabyL3LFcpEpheI6K1geMwMzMzMjJSVlYmGu0wxiwWS35+PgZ4Z+EOJbG3U5bl9PT0lJQU8Uuu2l34fD632+33+00mE7H0VWUayFVZIxofo7CWmAlNPT5sMpksFktvb++zzz575syZb37zm9XV1Rr9FX7OzMysqak5derU7OzsKgwz/AlAkAAAnnHpwvf4yBm45btgTwFlfo02EQcuA9BprjdCXBpAFAtIAGAS8NleNtsbtVTOef6WfXWf/mtrQjJmBUzIyMhc23Dh5X/vePuHC+yQooYHNj30d+Y4K5ohxqXdnr1+54VfP9X53k+iPs8UPyhRLBY5ABjjwag9CcQWrr3rLyp2f9oSn8zD+6jI0bss6WDi8hklapbD60iy3x3dqICDLWk5Ygk6yBljZ8+eLSwsrKiokISwcMh0UlJSHn/88StXrgwPD+O2jEU59VGb1ZOPGCsS3o9XCVPTcCJR6iP+hIbeqBYkzSNJX2LHPasWRBLgIKwsnuvUbOy7eCUQXSDpScYYpjtDKImewoqi4NlJzhniAX/dZEW0etGMLxgMotMYqgU1mGN0dBSzP5Oh55Kmez6icx23G6LY/Pz8kpISArIEzSk205IkauLA4gcKyyqKmY1GY3l5eWtra39/v+YywBgLBALd3d0ul0sMy4Av5uXlpaenk9cXhGfHWaqpNBKKpkjSRtgahL25gA6Ec06qYRSgLnV7wlWsQxpSnU43Pj7e09OzY8dv3TqxTLPZnJmZiTsCn6QkkDFWgZfY9PR0jWUCrk+v19vb2xsMBqXwYA44FNdtiy1A2Aaj0RgKhXw+H90t6S5BxscYwQM5CWPM5/N1dHT827/92+c///nt27dHul0nJiZu3Ljx4sWL09PTqxBBrl5f7EhiI6f4L+/kTc8yHlhywzmAAvPKLxkw7xT3Tkb90Z6Su/G+b5jtyUEfKDIoMgT9YDDHrb/zy8mF8yatTshas3bvn5rs1qD/o7dCfjCYLeV7vmCyRw/NwwCYO5rviAKS3c5saVF+AgCArLU3Vd36eZM9OeiHkB/k4G//LRBmcm6sZ74CrxvJfo9vzhO5/bkCiTkVyyiQ9q2iKEeOHGlvbwfhsFHUmHkmk2n9+vW7du0qKytDFz+iRasQjyJQczeTDPK6iQdiIZJLRW2STqfDWHdid0AQeFzHll5DIiEKGuMjghRFWZxzdPsFYU410mU8yUCQeBFa0uv1Gidxka7bYsDbiyRJwWCQq96ga9euxSNZM5s9PT0UEh9is1eLhTSCFmzGpk2b1q5dS9+IG43uYMuIhEXH83wP1NbWVlZW4miIb+l0Or/f39HRgSmYRYEZfsjOzs7PzyfEBuEiQFoJC4+Donrj4jeRYn4qUKw9qhoEXZEQRLKrMDVZxlti8yRJGhsb6+7uFruPD5hMpry8vISEBDFia4yckOxNZVkuLy8vLi4WC8dfJycnu7u7KZa4WMVSe3TtiBojqdGgxBsI+cdE3h+8Xu+xY8eOHz8+MzOjWR4AYLFYiouLTSbTMq4u14E+ITJIlSTvGBz5Wz7VDg3fYBYLD8YgjIyFGIBvCoLRVbppZVtsSSkaaZ0cBEu8LbNi21RvYxQlMUDWupsSs/M0ifsUGayJqQVb7u1458fRW+KdiN4jxmCesEaMsbSyOnOcORAlzMK8xBjMjnUv4YVrQ3LQH3TNGC3WSNMCJi1HmCfy/ba2ttbW1jvvvBOPKM3WNZvNt99+u9PpfOGFF/x+f+xWJhoHW2QNYn6a1YO9SHwidhxUUKXT6Ww2G7ZcHJ8YtfkirSpWTqRpFYYYjPQdwc9Wq1UTCluEjKJHKn4v+kYAgMlkQp8VWMzW7RoRV1OwoMBDr9cnJiZWVlZqDMuQurq6urq6xJW8soIcGgGdTrd582b0FdAgOa/XOzc3J4bHI+laLOVzVUVus9lsNhtamIkPrF27tqKi4o033hCbBAA6nS4QCFy+fHlqakrzClZdUFDQ0NBw8OBBn89HxbKlWB/Sk+IHiLCIFYFC1Gsb7VO73Y7gY74nY6FlzK9YI2NscnKyv78f9RWaB1JSUvLy8jo6OrxeL2ljY2wk8k+r1VpWVoZSYQjnpePj452dnSTJA3W1E5r/2FkuU8ONEX+g2VeEsA8opiXHbZqR6enplpaWlpaWbdu2kYSVqyYZ6enpoo3pqqJPGIJEYhef5c5epXC3tOY+brJ+JFm8iiXEABQlNN/2is8ojirJU2SISy+SJEmJZvqmN1l1egiG+3ZzDkzHrI55Has5X3IcbclgiUsvWnJQcAZKMCIv9cdCKwo+0E0PGVwwGGxpaXn//fd37tyJ21VkfLIsr127du/evT09PWfOnEHGFwsnYqpnBklQAAANqFHHtILduRoi5o6xS8Tzg6ue40lJSejip9PpUFpDvYgdUqxO+EjEBbsxjFYN0YxBbTZbQkICBf/jqv0+PUZSBFSFc85RX6woSmpqakpKCjlL4slxnRMoU8RNo9EYCAQSEhLWrFmTkZGBv4ogBgC6urouX74MAhxZEaEOCV2wOr1e73A4ysvLHQ5HZOG9vb0ffPBBW1sbWVAggoylCq7mt7TZbFVVVTt37iwoKNAAtaSkpMLCwuTk5NnZWRHGYUXDw8MDAwPoji2WDAAlJSV79+49cuSI0+nkajZOEOwXF90aJPPGxYYLQ4SPYlEk4eac0z4Vq9DpdElJSbjYxIR+S5mZFdikkiR5PJ6xsbGxsTGMDA/hsZA2bNjQ2dnZ3NyMytwYs48i57HZbNXV1bhcsWvi0I2MjLS1teEGpGsGiwhj/vESTjeuFrJbIPtpcWtQAAcQBI3j4+MdHR0NDQ20eHDojEZjfHz8MgKZXR/6RCJIAGCDR2DoGLT8DLb+FWTWgSGeGYDL8+upFy9RB4xFlSbODLYzSTCpFN5wDl1S5OhVBr2uKFmIGHAF3BPLyfgM82BLLgcD7pll8AedfpUYVURv+vI4HhOM9A0GQ1tb24EDB7Zu3WowGOguyAWDyE2bNj355JPf+c530FSZHFcXoEiRHgBgJjQAICnXx07EZP1+/9zcnEYCBAAmk6mkpMRms4muHquTT10lkUyRMTYzMxMpgASA5OTkysrK5uZmzK3HhfjwNONctVUAADwq/H6/w+H4oz/6o9LSUrEicYVcn0OOZFSc89nZ2XXr1j344IMYQAf9QkjONzAw0NPTMzs7a7fbJSEo5go2hjEWDAYdDkd9fT1KlbhgFYAPNDc3P/fcc263G1MqM0HxtzCJS1Sv1587d66wsLCgoCDyyZycnNra2mPHjnk8HrGnnPNgMNjU1LRu3brq6moI777dbl+3bt2WLVuOHDkyOTmp8ZqKMeYXCHH+FCHopmjFyASVNBpSz83NidwD3zIYDEVFRXFxcWibK4q4Fm3DVZIoEsbPU1NTH3744a233kqybULAe/bsaW9vP3nyJErOkOXGUoXX601LS7v//vsxPiKo0msqvLu7++LFixgrDUcMV3swGFxSDI1rSgRn8S6HAJHgPvFYAr5MNarGnuJbYmnYL/xenIhVRasFvy+DGFdgppsd/ILyX3fwE/8MV94Hv0syAzMC080HS6IT58BsaWCIHoBwrPOUe3JCE6VRpwf/nGe04+h8ws+Bxremei9rQJpOB+6Jga4j/zVvU+aJ+8hlDkp0rxdFDo60Hw0FlXmT90QtUIGErDVLeOHakGQ0G+MSoop4g/6laOVVousp7szJycnz588fO3bM5XJpDnJ8xmg0bty48dFHH927d29eXp7H48HzbIEqSKYlCRlR0UQ6KSkpKyuLtJma6pbRnRUhv9/vcrkiEaTVaq2oqLDZbCiZY0Iejo+3wStLLFwxPTY2Njo6ij+JY5KTk1NfX88Yw6jF4luR7Bt/RWfempqau+++G6UyUYV5C3P/+X5CidSSRNrYKr/fn5OTs2XLlvr6egoRQuT1et97772BgQFJiB5/Lc5gv98fHx+/Z88ejRqdqfq+y5cvt7e3j42NTU5OTk1NTU9PT8RA4+PjExMT+Mrk5OTw8HB7e3t/fz+EC5uRsrOzt2/fbjAYyBqSqQpZnU535syZs2fPRm18WlraQw89tGHDBszhTuMTo6EzIoZAIGAwGKIGpBQXpHgLpZueWAV6BcXHxyOcUhZMsndNyWAwzM3NvfPOO5OTkyBcBvBahVHSysrKQLBuXLTMQCDgcDiqq6sbGhowVZgGs3Z2dl66dMnj8YgjE4tH/NXQMkpmqpbD4XDgUYJJ0SQhujg9qWEU6I0XHx9PX9INQVEUj8ezOkP5wCcaQRLp3INS4w/gjSfg3SeVD/81dPqnfKILAh6mA6YHJgFI6KUyP6xUAEwOMDui/uibHW89+O9+96zO8FEhOj0EA/62d348O3J5vla5xnpa3viu3z0n6T96S9KDb87Z+MpTcjA6NuKcM2tqlEZKwL3e+Rx9AGCs43jPqTd0BmBiTxfsMlfAlpq7shrkZZDBZDXbLFGCDUkwN7pMM0264eGf4+PjL7zwQkdHx0clh9+q8f/bbrvtiSeeuOOOOzD6Ceq5lAVDPJLNGdq+JCQkVFZWbtmyZc2aNVEFmctj+ivCNdxuN0W+FJthMBjy8/Ozs7NtNhtZ8LB54pXM1/5YZCHXQsq1QEXin0xIcAwAkiQNDQ0NDg7iAxq0UV9fn5KSgp6kTCCxBLo5BAIBi8WC8LGmpgZN3QmTLdCqhdtMpNPpUlJSMB5NLIuHlqLD4bjtttt2794dHx/PBLNgpLGxsd/85jdjY2NWqxVvC5ELY9kkCmslSUpPT29oaBBjRFMt6CWNbTMYDJi9EMMmGxYjeobcWvv6+np7e8XZxIrS09M3b96MbuAivmSMGQyGzs7Oc+fOoUxa0wu9Xr9jx45bb721qqoKI/4gN1DUBCoLjACOp81mKykpWbduXWFhodgw0dYWwtmRx+PB7COaMg0GQ0FBQW5ubkJCAr0733xdU3BpMBi8Xu/p06dx7lhESuiampo777wzNTUVBYSxcAbGWG1t7R133IEqbI3ptqIohw4damtrE5kqrluUEZBaf2VpqcNI82IwGKqrq/fu3Zufn2+z2STVzZypjm6SGgudbiP4QFpaWn5+fmTJwWBwamoKrWtWIX1StdhRifW+B73vSZyz1lww2BS9XcraxNNrIC6Xx+d/5JkhGSNhE1cAEvJZYhHM9kUWy5XQ5cO/GO04VnnLF/I33wkAA81HG19+am6sWw76FmhP3+lX3RP96+56Mq20DgBGO861vv6/RzuOz3eUKpJJYlLkb4wBeMdgfgTpm504u/+bo20frr/7q+b4ZGHxc64okt4Y+YqiQFrpFkkyKPLHaQ2pM9qiblUmwQLofAHiajAaDFJjMBj8fv+77767Zs2a9PR00pJECl0wgNyuXbteeOGFw4cPDw4OYuAx5PiieSVZaxGLNJlMN9xwwwMPPLBjxw4x4MKyXbPFO2jspUXKyfCkHB0dbW1tjeovbDKZdu/ePT4+fvToUQRG6IRBuiESe4jqM1EQorHKWkCahVbkXDWBjzHeh2YQIlECHWMQYWCgATS4Knp7e3t7ezdu3CgWyDm3WCzr16+/7bbbXnvttd7eXpvNRiaPFJ0ESwgGg36/X5Kkm2+++dOf/vTOnTtFDxtQHW9Fo1uNyEEURGkuKjQm8fHxjzzyiMfjOXHiBK5krhrjY/l4XInl+3y+1NTUe++999Of/jQ5rzAhT8zs7GxjY2Nra+vc3JzRaCQjLWlZQWoiiUZAluWsrKzKysqkpCRxgmi0z54929vbi6EAuGobEIsLlyQkmdTpdCaTKRAIXLx4sbW1FQ9gcd0yxnJyckpKSiYnJzH4JSkTsZyOjo6XXnrpwQcfRFsO0Z+MMfbQQw/l5+f/8Ic/PHr0qNvtxmx+IDjPUfYRWmacc6/XixFY/uzP/iw5Ofm9995raWnB9UB9JOhAewEAJiYm2tvbKd0ihDsk7dixY2Bg4MMPPyRtqSJkwwPBxAJXBZnq0mfSC2uuiDyaUQcStZCpqglFUZxO54kTJzBIE2FHVNqWl5c//PDDfX19x44dm56expGhSRdrkSQJDX6Kioruvffeffv2UX9FrO90Ot977722tjZRJ87UUFBi0CVaeKAaX8bOe8W9CeFshHaQeDmk6aONTEbSBQUFd9111z333LNr1679+/cfPnx4YmKCrp2KEHCKIsvir+Xl5XV1dbQTaZbdbvfw8DBGMoqlL9eZfqcQJJLEGMwNAMpXx84yJgGTGFNvjZ96FVJKtZ6/HCS7RbGlz7fcuCLPDl86+fOvn37ubwBAkUPzRQXX0GT3+Q+++4Sk09NbC6xpbozjTM8iWSgD7pth/oUS0gQ8M1eO/XK49f24tCI5FMRK5FBApzPc9tcvhiIuMJxDQlapZDB+vAhSb02I+j1j4J7oX0aBtM+JvcqyHAwGDxw4YDabP/e5z2HKMohwgZQkKTk5uba21uFw7Nmz59KlS+3t7VeuXBkaGnI6naiPEEEJBtvLy8tbs2bN+vXri4uLy8rK0HOTShb3PJ36sfSCTghN1yIxoqZAbB6dczgITqezt7fX5XKhVRwIOiDG2M6dO/1+v9frbWxsdLvdRqMRw9NgOWgRn5aWlp2d3d/fj+MgDl0kMNUcFXjzZqq4i5wGYmTuNBTIoEXbRBCmjwCKJIRrJv4unrgXL15sa2sTCyFKTEx89NFH4+LiXnvttebmZmy8KDRSFGVmZiYpKWnLli179uypq6tbs2YNhHuva9CkOFnUNpoaxOuaoPdIZrN58+bN8fHxJ0+e/PDDDy9cuDA7O4sSO5J/Y5I0tMovLS2tra3dsmXLpk2bioqKxMZQe86fP79//36v18sEbzAuxCmMZUYWIFqxoVBozZo1dXV1BKPFJSfL8tmzZ69cuUJLmo7kGKsQNwhjrKOjo7W1de/evZoxpGEcHBzs6Ogg93lQBY09PT2//vWvN27cuH79ejG2ES2bjRs3/vmf/3lDQ8ORI0fOnz8/Pj6uqHlHqBlo9xIMBjGEe319/aZNm6qqqtatW2cymaanp3NycgYHBwlE0ialeQQAi8Xi8Xg6Ozvn5uY0SXGwVTt27AgGg263+/z5806nU0xzhyvK7/cnJSUVFxf39fV5vV5JiO2quSFI4S5BGgRGe5arfmN4f6YXFUU5ePAg1sUEq18sLT8//0tf+lJRUdHbb7/d1NSEy5u2AzXJ7Xanp6ffdNNNd91119atW7Fqgk1IU1NTL730Ul9fH7oQceHGCALcFE3PJcHSHa9/sfAZzXLS4HIaIs1NT/MrOoRt3LixvLzcYDDgUXLjjTeeO3fu1KlTly9fnp6eRu7K1AyHWEJcXNz999+P7p6RbXO73adPn3a73X/IavgxEVeAKwAfebXwuUGWUhrtMZD19oWHg3MuB5ecOJsrshwb3JQyapkpMQoXlwBmusE9umgJXue41zkufmNPK/DNzRmscdFsDZnekhDyuWJp2zUhBlkV26JHrOQweunkMooURRQfVcKY0Wi8dOnS66+/npGRsXv3bofDEYm9kKxWa1VVVVVV1dTUVFNT06VLlzDxFNpHIj9C3m232/Py8goKCioqKjSJTUUMR/wFY3dDbCpdEg6JxbIIWc58JL7LGAsGg6Ojo01NTTabTcxQgqUlJyfv3LlTluXc3NyBgYG5uTkyizQajXa7PSEhoaysLD09ff/+/YODg5oLOkRAW7GD9L0o9hBlCQv0gkhTOOm5NPBRIzYgHMBVr2o8GjEyyNDQUEZGhhTuXSFJUlFR0T333BMfH3/kyJHR0VGPx4P5ZjB2psVisdlsBQUFW7ZsueWWW1A/qwjWaZHCD/EDC3eq0JyIVBRXZY1JSUlbt24tLS3NyckpKirq6emZmppyu90oDseD2WKxxMXFJScnl5eXb926df369XSNoWKxxr6+vnfeeefkyZN4qJMYL/aLTezEOS8vL9+8eXPUqRwZGenq6sJ0UJEn9KKrgoVLwfV6/fDw8JUrV3w+Hwb1FNe/Xq/fvn372bNnW1paKCkOPeN2u9HZzmQy4S7WLDaz2bxp06aSkpLCwsKSkpL+/v6JiQm32x0KhcheVqfT4SykpqYWFxffcMMN1dXVZAydnZ3d0NDw1ltvjY+PixCBdjRXA9T7fL7x8fHGxsbI9NCc88TExBtuuCEQCOTk5PT29s7NzZHvhcFgwK1dWlpaVFT07LPPdnd3ixgIFktwKo4tEyS4NFYkPMPvOzs7P/jgg5qaGjQdFusyGAw1NTW4JnNycmZmZqanpzF/JiJRk8kUHx9vt9srKytvvfXWnTt3gqC8FjlGY2Pjr3/965mZmUinHM3aFodU3FDz8fn5+h6VuUVdlhomD+qK2rx5M8rCcUWVl5dXVlaWlJS0tLT09fXNzs4GAgFkKZIkxcXFJSUlFRQUPPTQQ3gXFZtBm+XcuXMej+cPCHJVEJvp4nxn5PdcBpbdwNv3s3miQl4HYll1zGLhGg9uBjwELJp6PRaS/Z658b6UwiqtyzgHSa/LXn9z1wfPLK/kqydJZ8isuiFS7sAk8M3O+maiBVdfjGjDi9pVxpjFYmlvb3/qqaccDsfWrVttNpvIESIPraSkpJ07dyJ3AwCfz+dyudBLNy4uDnOQRBIXZJ94OcYbJ9qo8ZgFb/iwGOKOrrzi6bgwc6QzQK/Xz83NHThwIDs7u6qqSlMCYywrK+uRRx658847m5qa2traUO2i0+ni4+OLiorWrVuXnZ3t9XpPnjw5MTGB2bqoalKNiSMpuiIqasR1ScjjQhFSFiaU0JCUTlHthyBcNknWBVzI7aFRvhMZDIb+/v4DBw48+OCDiYmJLFzZDQBFRUVFRUX33XffhQsXurq6xsfHvV6vyWRKSEjIzs6uqanJycmRhAQ2nPOpqSnUqJLKDwSIQGAahwItt+iqQ3hdnGUaTM55SkrKfffdd9/Q+PqdAAAgAElEQVR997W3t58/f767uzsUCpnN5ri4OGxScXExmWeAKsvhakoY/NLn8z3zzDNvv/026WoJZJPYZtHpWJQIZJjN5tLSUtGyjWZhenr63LlzKE/V6/UouhMnbtEqxLFCJO33+0dGRi5dulRaWooGqYSMEdDk5OTgkkaZOo0/Ttmzzz5rsViSk5NTUlJoyggfyLKckJBw66233nrrrS6Xq729vbu7G6E8ung7HI60tLTKysqysrJIMVJcXNwdd9zR0tIyMjKCi5k2C10UcRwYY6FQ6LXXXsvIyECFJoSj6pSUlIceeuj2229vaWnBJCU+nw/3aX5+/oYNG/Ly8lC+OzIygpJmVJEHg0FEtFw1LtQAdxp2lLhjY9ADCbcttRmXislkam1tffrpp4uKiiiLjFhOSUlJSUnJ/ffff/78+cbGxv7+/kAggPE1U1NT8/Lytm3bVlpaivuICTFWacM2Nze//fbbFy5cQGPHqDAOu0CXcw3wxYGNxaeH/AgVNfo3hIc6p5EhAsEUHhtsMBgcDkdlZWVcXBxBQMZYRUVFRUWFoih9fX1nzpwZGRlxOp2yLMfHxyNDrqyspJaIF0sAGB8fb25uHhgYUASrmFVFv3cIMnjpdX31n0R+z2WQcrYyeyZMd13/VgEAJBRB/s7ojt0BL5/qWJ4bgtc5Ptx2LL20So4ILaTTsfya27s/3K9ES6V4Hahwy322pKzIk0uSwDnaFfA4l1Em8j7c9pobPwBMTU1961vfevTRRz/1qU+h358oCRBZKg8XAZrNZnRrJbwikoYFEwswGAz4/dTU1FtvvdXc3KxR08xH+IxGOyNKNEWGjh8IpuCfimD4jyfBe++919DQUFpaShHLCD3gh7i4uM2bN1dXVxPYJcEbVpSVlWW1WtGEjry2NdGLRPgO6pGAUlucGsRPeAWPBS7gqc+E7JEidhTHk0J+YqdQcIgaeUkNKY9HeF9f38svv7xjxw6N76cI+uPj4+vq6qqrq0Xlu16vt1gshJNwjfn9/ueee66ioqK2thZlYCJmEuUiNNSijIHaBioc1yiU6cnCwsLMzEyKWIk9RZ8ScdBE+SJ+MzEx8cwzz7z55ptDQ0M4SlQFIfIVCTiHiyEuLq6+vj4vL48mUezI9PT0qVOnUM2K06HZfQuTuDdxUjCmo9PpPHXqVG5urtlspl/prZKSktLSUsxwKIWb86Io8cUXX3S5XE8++SR6q5ArlYhIQA30s2bNGpT/0TZB0ZrG8hUriouLq6urKyws7OzspNsCFkiWcIj1GWN+v//DDz+sr69HKaYGTyAlJCRs3LixqqoK7bBx/dA+VRQlKyvL4XCgrBqrw6JIBCgGq6IwTyRK9/l8er0ekS6NIf5Ea1Wn0zmdztOnT//oRz965JFHUOomCaZ+yF4cDseWLVs2bNiATcUGGAwGo9FIuQzErUHctbu7+5lnnnn11VfFiO4wDxAkFqQTsimKl6hFAxrgIkQ+w9RAQjSb4tbAycJXcCfiJS0QCKSkpGzduhWVPJGLWZKknJycpKQkkhzTUIiPEa/A1w8fPnzgwIH/096dB8dx3XcC/72eA4MZHCQAkiDAAxAICiAoiacp6z4oW6ZCO1JtsrLiOImTssu1Xm98RGWlNuuyk4rWq81uyqnKlmWvopLktSmKsqRQEsmsqYMGSIA0SRAgQNw3hrgIDAaYCzP99o8f5vFNzwDEgCBBrb+fwh84Bt2vr9e//r2jl+Tp7gb5nYsgbcHLZJop3u8iSThdcsc3xa//kpbmRTdpFctpVn7RyC+zJiCJhCAzOCZ7P17sA4gM+0dSjsg2TSoou2Pdzn29p99Z5LKvgzt/3eZH/sxmFylCWycNtdQGJoYXckexUM+IRnxcCBGpEGRmZqalpeXAgQNXrlx57LHHtm7dqib7TV6U1JozLDeS5M+Q1n6tPiaE4DaImpqa6upqzlQtJOVjaGOi1cL1tau1iLmbaThco3jtPzEx8atf/SorK2v//v0isaOeuhG63e55ZsQsLi7Oycnh9ynr3bkse8ZSCYr4OFb+L04oLnCSGn1H6REYpcq/6rG1ehIgLVupyhMKhTo7O3/+858/88wzVVVV+kL0znCZmZkpk81q03i6qCNHjvCOVY22lvNExud1I+3167FYjHs06tuih54zMzNOp1Novb70194kF8myXnV829vbDx8+/NZbb/H4WR5Aw1eE/rSzJHcpHmYUi8UeeeQRntVFx8UbGxurra1V/brUk4xYcD9I/ZRTp9bY2Njp06f37dvHTwWWMRabN2++6667+vv7pdYpVp2oRNTX13f06NGMjIz9+/dv2bJFf0rUzyuOwOY6Ckzfpfy/Lpdry5YtjY2NnZ2d6plHxXBCG5MRi8UmJibee++9lStXPvXUU6qE+tERQvDQ9bkKsGbNGp48kqNA3r0qPFKBr37ZqqKqkFR9r190am/zmTM2Nvbuu+/a7fYvfOEL3Airn4EcSs5TpegrlfGB1dFotKGh4dChQx9//LHP58vKykr5NKV+tJy3htbHWsT7HM9zsPTlqL2t1yFqn1u+V1GgGlq3atWqxx9/vKCgQJVTnTN8FOx2u6VzQvJ+4Fwj//jRRx+99957ra2txlL0Ub5BfuciSCM8Ia+0ilUVyd3vpEm08ZGYPdMWvdkN2dJdKO78UvKb/YiIBIloSMQWXyT/cFdwMmDPcFs2WZrkyvGsqbinp+7tRcRq16n07qcKSjel7lYqaSbgW1yRkm+KluU4nc5z58719/ePjY098cQTlZWVOTk5fKueXXniSElKDCVJu+D1SJESnzuDwaDP5xsdHa2pqTl69OjJkye5frQlvlxxHslRiJ670qvIlLd//oxKcvCGV1dXu1yusrKyTZs2zfW6Nj19IrVUpd1uLy4uzs3NVfGQurWIxI5HlmLomQk9n7eQ42sJAfVjoW6BesnVDUDPBqkNVFEsJw7ffPPNrKys7OzswsJCS6pDP9CWnax2fjgcnpycPHLkyGuvvdbQ0BAOhy0LUd9bBjFY9rY6uOozkUiko6NjaGjojjvuyM/Pt5xsZqoh+ZYfeWmTk5OXL18+ePDgO++809vbywkPFQ/xLU2kGvSzaHyeZGdn79y50/I+blXC/v7+jo6OWCzGheGeIQu/2C3HWj38+Hw+bthdu3YtJXUD3bx58/bt248eParmT1B/VY+afX19L730UigU+tznPnf77bdzJKqvV8abgEmLVKTWccWypUQUi8WmpqaGh4e5IwQlRpZ6O4CKSJxOZ21trc1mKysrq6ioyMjIsFRllhPAUicYhrF27dqcnBx96nI9J61aGPRYVj8DHQ5HKBRS3UzVqo3EoTkc7XV1db355pt+v//LX/5ycXExTxFF8bBJTWUvk8ZN60VSEdL09HR9ff3hw4ffeOONQCDAcXByTWj50bLzU159859g+qWt9qel2lfbZcQb3Pl79Sxts9k8Hk8oFFKDNedZnarPKfE+wgsPhUKXLl166aWXzpw5EwgE9HPgVvM7F0FSNCzrXxSf+R8p3l4jiRyZRtWXqP7Fm1woc/2DNkdGcgKSiKQkuvT69cR3l5tODLWc3rDzwWhSuBYNU2HFPSvXVUwMtFzHGtJmd2Xll+6QMkW212aniYGB4daaxS2ZL071rMwjhfWWMsMwsrOzg8HgwYMHT5069fDDD3/+85/ftm0bX8b6K1/1FhxKbDbVG55kfKoUVYapqamzZ88eO3bso48+GhkZiUQi3MwktOGB81cxqnuffp/jb/Q4T33eUt+pepDLyVvNHfVOnz793HPPff/739+2bZtqmeI1phwFoufkOLfBDX/ccqo6DOmt6vo9krSxjap5S98D81eL6h9VoMBvoVA7RI/GRLyJnJLuzXrqVy0zGAy+9tpr3d3dzz333IYNG4z4WyK4nOrgql2kH7JwOHzhwoWXX365pqZmeHiYZzS0FEm/x6tNVl0zOT+kgnv9KDc1Nf3sZz+rra396le/un///sLCQss9TD9P9ENmar1CR0dHjx8//uqrr7a3t4dCIc4D8dY5HA69WTP5FFq0UCiUl5e3a9cufo0hJSWN2trampqa9IBevRlSzx7NQ92/VYF5T4ZCoeHh4d7e3tLS0szMTH2cMhEVFBRUVla6XC4+f4QQ/O5HM95VVL3j5JVXXqmrq9u3b9/TTz/N+SS1f0R8uJU6K1ToQIl9oNV/eb3e48ePHzp0qLW1NRgM8pRMXCmpMfVcBvV6Ev73s2fPfve73/3BD35w9913G3MMDVZH39DmrJZSFhYWcvirghuKx2pS6/ihn6hq+VzncF8OvprUO1H4r9worBLqTqfT6/UePHiwoaHha1/72n333afPvqk6fYr4/Dtqj1meW4QQExMTr7/++uHDh3nyIx49o58SMvHpUSY+0ZGWeJbxFCCv95otHqrSUGvUp5mUiRG/+hfuLsLPQm63u6+v78UXX3zyySfvv/9+fnxSMaI6VaTWnCUTH33Vpk1NTR07duyVV15pamoKBoNqRqRbM4j8XYsgJZGk4Xp5pY9Wrk/1okJDbv2S7P+NGGu6eYVaUWbs/su5EpA0PSYu/fJ6Fm9GI5cvnVhbda8w7JaIzYxRbuG6ys9+/dTL35Y38V18t937B+u3PZAc0RIRCbp86eSVnobFLVkNvOBed3pdqa5DMz4go7e39+233z579mxFRcWOHTu2bdu2efPmue5hepWnamGKh1nj4+M9PT2dnZ3Nzc3d3d2Dg4P8so1IJMJ5BRGfzobvItesC/gDubkJsx2psqnJ/Cy/T/6NXmFJKQOBwKVLl374wx8+9NBDe/fu3bp1KyVGinPhDJa6zatbeDQadTgcaoi3Cub4R36Rhorj+Rt9TPo1d4KqgikeN+jtd/r9Izc3Vw8TpdbTSwWUKtPD9xW/319dXf3ss8/u3r37gQce2LVrl2XAY3KsPzIycubMmVOnTvE4G7/fz/dv1aXJ8i/c30vGJwaKaS+QjGnvAVL7PxQKHThwgJvwXn311bq6ut27d99zzz2VlZXJx8hyGzYMIxwO19fX19bW1tfXd3R09PX1BQIBS4jAXUvN+Ct6VeicvLHpikajJSUlTz31FCcCk0vY1dV14cIF0zQ5IcdXh37XX+CKVGOfioN5o+rr67du3aqPK1LLLC8v37t37wcffDA2NsanotD6uqhofmZmpq2t7cCBA3V1dTt27OAehzy9Dmmnt+Ub0i6icDjc1tZ28eLFc+fO9fT0eL3ewcHBYDBIRDabjftGq8dRPh/0becizczM9PT0PP/88w888MDevXu3b99u2RxKqpH4G7vd7nK51FSmHAmp5xb1CMfTyiTvWJ7wi/eniPcmV4+aXIPxKaQ/oAaDwZaWlhdeeOH999/fvXv3zp07Kysrkx94LLuLvwkEAk1NTWfOnKmtreXUOz+gqpg1uU6zLM3tdnM9qT/uEhEPl1xIK7bqTmBo89SqOk3ft9nZ2WpmVj7xuCax2WyhUOjcuXMDAwPvvvtuRUVFVVXVtm3biouL9SLpm5C8K9ra2urq6mpraxsbGwcGBsLhsAq1b8HYkf3/E0EKIpIkBQlJMjHtHf97POXl75GDp2yr1ifPsSNjJFasM3d+k45/m2IBIkoxO+MCy2Mtxhwy8+U93xeelSkjSGGnWMsbtuhi3u+n6zn9ztZ933Rl5yRvcjRCJXs+722u7j558DrXskCrynffuf9byd0fiUgYFAlGuk6+seiF65el5bnNcvXyXYTfUNLa2trS0lJfX19WVrZ69eqVK1dmZ2d7PB6Px8Nhk5oAhbt58QSKoVDI7/f7/f7Jycm+vr6BgYGenp729vahoaFoNMo91rkqFFqfmAVuhd1uj0Qi77zzTklJif4szmmbS5cu8YAYy13f8pyqx44ynoINhUKnTp0aGxsbHBzcuXNnUVHRihUr3G4339R5rDTfZnj45OTkpN/vn5iY4G1UlbuK7Xw+HzfTkxas804bHBwMh8Nq4mtVJBX+XjNosCQh7HZ7Y2Pj22+/zbOpKRkZGV6v1+v1qiyy0LIUMrE9jrSG44mJiQ8//LCvr6+np6ehoaGwsDA/Pz87O9vpdKq7bCgU4m4Jw8PDnZ2d586du3jxotfr5RwMv/iupqYmFou53W79YLlcrurqastQa5HYry4QCPA7Bl0ul8/na2xsrK6uHh4ezszMbGtr6+3t7ejo6OjoKCsrKyoq4rKp17cQ0czMTCgUCgQCU1NT4+Pjg4ODLS0t58+f7+3tDYVCapgqM7SJOSne1Jicy1k0m802NTV14cIFnk1a33A+pY8fP97e3q46g1JSVLHAJys9K6yiMSKqrq6WUlZUVKh5uUX85aUjIyM+n0/vccgRldT6vQkhHA5HJBLp7OxsbW3t7OxsaWnZtGnThg0b8vPzc3JyPB4P73yVnItGozMzMzxTI9cGQ0NDPT09ra2tzc3N4+Pj/Myj5ylF0mgqPYNI8VAmEomcPn16dHTU6/U2NzfzdZqVlcU1Ej+YMe6HNzU1NTk5OT4+7vV6u7u7VRZNz3VRvEPtxYsXf/GLX6gonOLdK1tbW9UVZKk59atJfa+eQEKhUH19PZ+uFy9eLC8vX7t2bW5ublZWltvt5jKr5zr9jO3r62ttbW1sbORZWlVfi4XETLzAEydOTE5OejwefU9mZGTU1NSEQqEFPqmq85D37fDw8KFDh0pKSnjqCXXOjI6Otre3qxNAJTv57jAxMTEyMtLR0dHQ0HDhwoXz589v3LgxPz+fe8u43W6V2eWHBN4VPp+PT5v29vb6+vrm5ma/35+RkaGaQdJ6uLrJRGlp6XKtWwVY8SgtOfAT2q+ufieF+vPVfxfxfzJISkGSpPY7SWRIESMik4QUZKzfS3v/p3DmpJ6MkEw6+8/ytz+WMmrMBqBGQvZutsRS/8lyhA0pTOsmJe0BKc07/8K493tEthSjdwRRNGj+65/ahk7Pt5SF2fXFv7v90Wdiqd6NZNhoemzo5MvfGW5ZZNvxwhlO90P/8V/WVuxOGUEaNhrtajz69/sXfcGoB26hddzRgxt111TpNF5XJBKJRCJCiNWrV5eVlZWWlubn5xcVFeXk5PAIXI44p6enw+Gwz+cbGRm5cuUKRx5er1efDpcDHTUKmLTmRSPesD7/Bop4+2k4HFb1vgoBY7FYZmYmN/8ZiXPHqG/0nKt+3xLxxh2ek8zhcFRVVfHEK9zyxVEjm56eHh0d7e/v52nVOagy4mOQeRWcV+O9xzEN31nVmF+u2fV+kxRPvy3wKOtBMKeaQqGQWoXqQiDi83roj/vq/qEiD5HUK4vzWDxxSV5eXnl5eUlJycqVK7OysrgH0tTUlNfrbW9vb29v9/l8FG+C1EvIRTK0IQtcYD13m7xdwWBwy5Ytjz32WF5eXmZmptfrPXHiRGtrq5r+TcbfnGmaZlFRUXl5+fr16/Py8rKzs7klmm/Dw8PDfX193d3dnGDj/SATW/DVxqpfUjymoXhb8PWnOnhPCm3Gcv1YcNlUwyJfMiovu5BewuosUrGgWhG3PHDbtP4vqjVTzaOkIkgumCWaFPEOLepUycjIKCkp2bRpU0FBAZ8Y/LIrdaVwl9Pe3t6+vj61NDUxp02bdNPSHVBFkCmjNB7wy2OqKioqysvLuScJv1xnamoqFAqFw2F+benAwABPXsvBB+cRY9qbn9S+5adTHg6v71VeY2ZmpvqkntTnitQwDDUGXE/qq8fCWCzGl1JBQUFZWVlxcfGaNWu4FuX9wA/eXq+3p6enu7t7cnJSalP3W2JHPYpNGVZKKXlefRXkUfwuoDcLLOTU1R81eSssh4z3gD1OtXrrtYotPrMYpxucTmdeXt6GDRvWrVu3evVqfgDgz/Bz6cjISFdXV29vL7+6kC8QFZqrem+BqYeb75aKIM3E4yxI6hGkQaTyiVIKawRJ8TSjIFMKms1GxlfFOUEpJJGUgoQ0xK7vyN3fTG7I5gUJIeWlt+SH3xFkEgmSRmKIaM7mPEnqSUr9E0IayZtkYZY+Lh7/MUlr4/LsEhxEZ1+ik39Pc8S5acnIWvHgf3h5dfmdye+nISLDRjOhYPVP/9Ngw/+9/nXNSRif/so/brrv9+Z8GaQ0j/3oyUU3YV8PVWmqOkI15eixDn/MjOPp5ZL72SzVI+NcTTALD7/moupivqPrIYVObaNMyndaljbXjX/J67551rXo3aLuHPrRV0tTdxTurEapju9cpZq/SBxi8qyEfP/j22HyTXSesnHCWAWaetB2880fAl7/eXvT1m5ZjqVO0FenHwJ1pdDSHQIuibpO1Vaobo56ARZ4Aty4C9ZSkeqhofqAqjzVBXXNAi9kjRbXc7JdfyXDSxDxPujq6YW0ByoZfz7kAzd/HXtrWuZWbJkQdQl9YIWkpLTebBRJJMmUxPtZqigt3n4tpBEP+wQJM75kIjKElFKYhklEBp3/iSj/fZmzIUX0JomEkOvvlxs+Y/T8myDrkA9B/DuD159qy4SZoviJK1m1Tdz9LFHq8JEMktN+0XN8ScJHIgpPTTQf+0leyT8I4Uq+NMwYZXgyb7vvD6fHen2DrUuyRgths1c++hfr7no0OsdrFO1O6q8/OTnUeSPWfk16vayGIqp6xFLNqbCS7+U37gHxxi1Z1VPcIq/XmPodaIHbeDMrvhuxLrWx+tGnxJZ3lb5awlIJISKRSCAQUJkGvuNes2wyMTejlzDdMiyt5b0FLuHa9eVIKbmlWK8TKPFKUZfJDTo5l+Q61Zd5gw7TXBWp/gFa0t11gyqE61ymvh+42cRMmk2C4gdOfyb8ZFnOHKQpVAtxQjaR846W9l8hSUgypCGIhJxNJUpBMUExIaTeFUxKg6SQxtWOj9pi4muRRGRW/Dvxmf8m53ovtEFixi9q/8m48DOZmE0U0oinOGdXkarMJsUzkRZSSrPyi8aebwhPUeoBNETCTrL5Lfrgr8Rcn0if3ZX16T//cenuhyJz9Ku02elKX1vtK89e6a5fqpUyw+Ha8ycvbNi213BkpAyJDRvFIsGa//2dvnNHlnbVAAAAsORsatqFm08KEkSCo0MiUkm7hB9I/U5w8zJHnJyxFPwlpBD8Pc02QVN82RRfvCASggwhDSJDcPJzoouyNorVm1OnESUJe4Ys+jQ5s6X3LMkZulpUFbHq5Zr9m5zNrXIWNam1y5VH9/w17fiG4V4xZ/hoI9n2vvjN34joXM29i2FGI4HR3jWVDzk9WSnDOGlSVl7+qs33BsaH/EOdSfH3Iq0q33P3n/z3jTselGRPuV4hKBaJnHn9b/vOHJZLlHMFAACAG2c5I0gSQpAwSIjZFmchtKEzgmYbpoUWUsrZSHB26IrJUaMQ3PFEEBmSDClUaKoFqBzkzf5JkJBCCHOGxltl0T0iK2+uIJIMg4p3yLV7RGiMgqMiFlalu/op9ZPQCpkUQUopZdEe49F/oNseE8KWeo1EwkGmt9H44FsUGl/cfp1HYOJyeHqy+I69NEfC3DTJlZ27YccTjsysSMAXGL98Pal1e2Z2+YPP7P6j51cUlURn5oxIHRl08f2fXDr2IsJHAACAT4TljCCFiuekEPGoLvEDWv7w6q+IVPZx9huhcpPGbEu3UF+8HlMI7jl5NVvIkWRonMbbacMj5JjzJVFkksgtkrf9Hq2uoowcMdZEWvJQb7m+mjwVJGQ8Jcoj3aqekXd+hXZ8Q+RtTD18h//XRtLXJz78npi4Ud0BJ/qb7U7XqvJdcwWG3E+jsGJ7YdWjK9dtmQlMTo/1p7sWV+6aLY9//fZH//T2R75ssznnmZPLZqeuuiPn3vhbmXJ4NgAAANx6ljUHSTTb5CviX8lJKmH9ktoXx4EGkUHSUFGlMC1fgkyDTINMQYl/4hDU30fOXFG8K3EkT1IxDSHyS2TxgzLvdnPskogGSJpzDZaJx46CbE4qqKL7fiju+nNRtIVsrnnCx9kC1P+LaHs77R2ZDp+3rWDTp3LXrJlnrn4zRk63p+C2ijWVDxt2x3h/ExEtYNZxYXO4SvY8ufuZvyvd89ncwo0p5w9SbA6avjL821/8TeDKYPrbAQAAAMtjOUfS3Dqkw027vi2qnian+xoDVziQnQnTRJfZXyO9pw0zJCJTYmZqdlC2sEuHR9o9pt1DuSX2ss/K/Epht6d8g591yWSK8y/JU8+LJeqAOI+8jXfe9ft/VXTHvbHoNQrGY/sCvlH/cFdX3b+GJoZi4emZ8HQ0HCDuW2rPcLiybBkeW4ancPOnirY+5M4rMgwyzWss2eag6dHh2lef8178YAk3DQAAAG40RJBXycqn6d6/JkfWXD0UExjaoJ4oyeA48USLdqfwrKD4QHBpzjHbj4UgkjG68LKo/RGZN6kx1+7yfOqPf1Sye5806ZoTCXOXVcM22zkgHIiF/GP8J6c7JzPbJSVJIhkjM3btpRGRYaPAxEjdK98bbET4CAAA8Amz7K3Yt5KRBjHWQhseJmfGtZOAMj4XZIxIEjkzKcNDGR5yuChGFCPi2HEhyUQb0fSo+OC71PRLYc41t9DSM6Mzl5tO2OyuVZu2C+PaYZ+UZMbIjFEsSoZhON0eZ6bHmekxDHssOvunhYyEEQbZndRz+mjda8+NtC/B63YAAADgJkMEeZUQgnzdsr9a5FVQztr0/llqX2msksggGjxjHv26cfmMkDd7KIkZjXibT4Qmx/NL7nJ6MtMaCS3l7FdahEGxmfDFIz/97S9/EJy4nN4/AwAAwK0BEaSVCAyLvo8p9zZRUCrmGVtz/QwyHCTb/038+lvG9HKOI7nSU+8bbF296VOZK7LlAvOmi2J3Uiwyc/7Qf216/5+luWQzpQMAAMBNhggylZkp4T1ljrZJ1ypjRaHl3YvXS8T7UPq95m9/Is79LxEcWbqlL5J/uHu47fTU6PCKdVWOzAyipYwjhSDDRlLS5f2b6HQAAAOQSURBVOaa+jdf6Dp1aMkWDQAAAMsBI2nmI525VPVHdMdXyJUrnDYZW9iwmLkIEjaSUZOC41T/U9H2FgWGl6ysSySrYOOOf/9fVpfvdLpzDBvFZtJup9YZNhIGRYIh/1D3mf/zn33etpmgf+kKCwAAAMsDEeS1mY5sWfaEUfoYrdlu5K6QMSIebryQ0IpnMLeRsJEZjNJgHfX82mx+3RadvuHlXiwpZdaasvL7n161aWd+6faMTIrOLHSUDBEJgwyDbA4iIt/locvNNd11v7rc9JtP4FvjAQAAIDVEkOlYd7+56k7Ku91Yc6fMKhZOG5nxUFKPJq++Q5HMiCmmB8yBOuHvFr5e0X2UYjdvtPV1crpz123/rKdg3epNe7LXlLpXFBi22cl6LNHk7LspDRJEIf+Uf7h78FJ1dNo30l432nl2mYoPAAAANwoiyLRJe6ZwryJnlvSspeJ7KK+ScjdSztrZBm5B5B8gX7eY6JajDWL0IkWm5NSgMOd9N8stTEqZmVPg9KywZ7hXrq9avfnTnoJ1K4orHRkuKUkIMqMzk0Ndk5fbp0b7httqA1cGr/+F2gAAAHArQwQJAAAAAOkxlrsAAAAAAPAJgwgSAAAAANKDCBIAAAAA0oMIEgAAAADSgwgSAAAAANKDCBIAAAAA0oMIEgAAAADSgwgSAAAAANKDCBIAAAAA0oMIEgAAAADSgwgSAAAAANKDCBIAAAAA0oMIEgAAAADSgwgSAAAAANKDCBIAAAAA0oMIEgAAAADSgwgSAAAAANKDCBIAAAAA0oMIEgAAAADSgwgSAAAAANKDCBIAAAAA0oMIEgAAAADSgwgSAAAAANKDCBIAAAAA0oMIEgAAAADSgwgSAAAAANKDCBIAAAAA0oMIEgAAAADSgwgSAAAAANKDCBIAAAAA0oMIEgAAAADSgwgSAAAAANKDCBIAAAAA0oMIEgAAAADSgwgSAAAAANKDCBIAAAAA0oMIEgAAAADSgwgSAAAAANKDCBIAAAAA0oMIEgAAAADSgwgSAAAAANKDCBIAAAAA0oMIEgAAAADSgwgSAAAAANKDCBIAAAAA0oMIEgAAAADSgwgSAAAAANKDCBIAAAAA0oMIEgAAAADSgwgSAAAAANKDCBIAAAAA0mOXUi53GQAAAADgkwQ5SAAAAABIj10IsdxlAAAAAIBPEuQgAQAAACA9dtM0l7sMAAAAAPBJ8v8Am5mbjV/x8RIAAAAASUVORK5CYII=;" vertex="1" parent="1">
          <mxGeometry x="310" y="263.95" width="175" height="98.2" as="geometry" />
        </mxCell>
      </root>
    </mxGraphModel>
  </diagram>
</mxfile>
